STARTFONT 2.3
FONT -FontForge-Rajdhani-Book-R-Normal--20-200-72-72-P-123-ISO10646-1
SIZE 20 72 72  4
FONTBOUNDINGBOX 50 25 -9 -7
COMMENT "Generated by fontforge, http://fontforge.sourceforge.net"
COMMENT "Copyright (c) 2014 Indian Type Foundry (info@indiantypefoundry.com)"
STARTPROPERTIES 41
FOUNDRY "FontForge"
FAMILY_NAME "Rajdhani"
WEIGHT_NAME "Book"
SLANT "R"
SETWIDTH_NAME "Normal"
ADD_STYLE_NAME ""
PIXEL_SIZE 20
POINT_SIZE 200
RESOLUTION_X 72
RESOLUTION_Y 72
SPACING "P"
AVERAGE_WIDTH 123
CHARSET_REGISTRY "ISO10646"
CHARSET_ENCODING "1"
FONTNAME_REGISTRY ""
CHARSET_COLLECTIONS "ISO8859-2 ISO8859-9 ISO8859-4 ISO10646-1"
BITS_PER_PIXEL 4
FONT_NAME "Rajdhani-Regular"
FACE_NAME "Rajdhani Regular"
COPYRIGHT "Copyright (c) 2014 Indian Type Foundry (info@indiantypefoundry.com)"
FONT_VERSION "1.201;PS 1.0;hotconv 1.0.78;makeotf.lib2.5.61930; ttfautohint (v1.1) -l 7 -r 28 -G 50 -x 13 -D latn -f deva -w G"
FONT_ASCENT 16
FONT_DESCENT 4
UNDERLINE_POSITION -2
UNDERLINE_THICKNESS 1
X_HEIGHT 9
CAP_HEIGHT 12
DEFAULT_CHAR 3
RAW_ASCENT 800
RAW_DESCENT 200
NORM_SPACE 5
RELATIVE_WEIGHT 40
RELATIVE_SETWIDTH 50
SUPERSCRIPT_X 0
SUPERSCRIPT_Y 7
SUPERSCRIPT_SIZE 12
SUBSCRIPT_X 0
SUBSCRIPT_Y 1
SUBSCRIPT_SIZE 12
AVG_LOWERCASE_WIDTH 90
AVG_UPPERCASE_WIDTH 105
ENDPROPERTIES
CHARS 1043
STARTCHAR NULL.dup1
ENCODING 0
SWIDTH 0 0
DWIDTH 0 0
BBX 1 1 0 0
BITMAP
00
ENDCHAR
STARTCHAR CR
ENCODING 13
SWIDTH 0 0
DWIDTH 0 0
BBX 1 1 0 0
BITMAP
00
ENDCHAR
STARTCHAR space
ENCODING 32
SWIDTH 267 0
DWIDTH 5 0
BBX 1 1 0 0
BITMAP
00
ENDCHAR
STARTCHAR exclam
ENCODING 33
SWIDTH 237 0
DWIDTH 5 0
BBX 2 13 1 0
BITMAP
3E
3E
3E
3E
3E
2D
2D
1C
0A
00
2B
2E
2D
ENDCHAR
STARTCHAR quotedbl
ENCODING 34
SWIDTH 330 0
DWIDTH 7 0
BBX 5 4 1 9
BITMAP
A40A40
A30940
920830
710720
ENDCHAR
STARTCHAR numbersign
ENCODING 35
SWIDTH 677 0
DWIDTH 14 0
BBX 12 13 1 0
BITMAP
000058000930
000085000D10
0000C2001C00
0001D0005800
07DEEDDDEED5
00085000D100
000C1003B000
002B00076000
0076000C2000
BDFEDDEFDD10
01C000580000
058000A30000
093000C00000
ENDCHAR
STARTCHAR dollar
ENCODING 36
SWIDTH 504 0
DWIDTH 10 0
BBX 8 17 1 -2
BITMAP
00015000
0003B000
07DDDD70
4C1001C5
87000069
96000036
96000000
5C200000
07DDED80
000001B7
0000005A
6400004B
9600005A
4C1001B6
07DDDD80
0003B000
0002A000
ENDCHAR
STARTCHAR percent
ENCODING 37
SWIDTH 717 0
DWIDTH 14 0
BBX 13 13 1 0
BITMAP
4DDD5000A20000
C201D002B00000
D000C108400000
D000C11C000000
C302D067000000
4CDC40C1000000
00000490000000
00000A21ABB700
00002B08500B30
0000850B200750
0001C00B200750
00067009500B30
000B1002CDD800
ENDCHAR
STARTCHAR ampersand
ENCODING 38
SWIDTH 597 0
DWIDTH 12 0
BBX 10 13 1 0
BITMAP
004CDD8000
01E300B700
05A0005B00
05A0004B00
03D0000000
00C6000000
09EF400000
6C16FEDDDA
87007D2000
960008C100
870000AA00
4C1001BC80
07DDDD80B6
ENDCHAR
STARTCHAR quotesingle
ENCODING 39
SWIDTH 186 0
DWIDTH 4 0
BBX 2 4 1 9
BITMAP
95
94
83
62
ENDCHAR
STARTCHAR parenleft
ENCODING 40
SWIDTH 283 0
DWIDTH 6 0
BBX 4 15 1 -2
BITMAP
09D4
7900
C200
D100
D100
D100
D100
D100
D100
D100
D100
D100
C200
7A10
08D3
ENDCHAR
STARTCHAR parenright
ENCODING 41
SWIDTH 283 0
DWIDTH 6 0
BBX 4 15 1 -2
BITMAP
BC30
03D1
00A3
0095
0095
0095
0095
0095
0095
0095
0095
0095
00A3
04D0
BB20
ENDCHAR
STARTCHAR asterisk
ENCODING 42
SWIDTH 406 0
DWIDTH 8 0
BBX 6 6 1 7
BITMAP
005700
214613
5A67B6
008710
0953B0
010010
ENDCHAR
STARTCHAR plus
ENCODING 43
SWIDTH 523 0
DWIDTH 10 0
BBX 8 8 1 2
BITMAP
0003A000
0004B000
0004B000
0004B000
7DDEFDDD
0004B000
0004B000
0003A000
ENDCHAR
STARTCHAR comma
ENCODING 44
SWIDTH 191 0
DWIDTH 4 0
BBX 2 5 1 -2
BITMAP
96
A7
A5
A1
50
ENDCHAR
STARTCHAR hyphen
ENCODING 45
SWIDTH 312 0
DWIDTH 6 0
BBX 6 1 0 6
BITMAP
2DDDD5
ENDCHAR
STARTCHAR period
ENCODING 46
SWIDTH 191 0
DWIDTH 4 0
BBX 2 3 1 0
BITMAP
85
A7
96
ENDCHAR
STARTCHAR slash
ENCODING 47
SWIDTH 396 0
DWIDTH 8 0
BBX 6 13 1 0
BITMAP
000069
0000C4
0002D0
000780
000D30
003D00
008700
00D200
04C000
097000
0E1000
5B0000
A50000
ENDCHAR
STARTCHAR zero
ENCODING 48
SWIDTH 514 0
DWIDTH 10 0
BBX 8 13 1 0
BITMAP
08DDDDA1
5C100089
9600002D
A500001E
A500001E
A500001E
A500001E
A500001E
A500001E
A500001E
9600002D
5C100089
08DDDDA1
ENDCHAR
STARTCHAR one
ENCODING 49
SWIDTH 317 0
DWIDTH 6 0
BBX 5 13 0 0
BITMAP
004C90
19D9A0
3705A0
0005A0
0005A0
0005A0
0005A0
0005A0
0005A0
0005A0
0005A0
0005A0
000590
ENDCHAR
STARTCHAR two
ENCODING 50
SWIDTH 478 0
DWIDTH 10 0
BBX 8 13 1 0
BITMAP
19DDDC40
990003E1
C30000A5
D20000A5
000000C3
000008B0
0001BA10
003D7000
06D40000
5D200000
B6000000
C4000000
CEDDDDD5
ENDCHAR
STARTCHAR three
ENCODING 51
SWIDTH 496 0
DWIDTH 10 0
BBX 8 13 1 0
BITMAP
08DDDD70
6B1001C4
A5000078
83000069
00000078
000002C3
0009EF70
000002C4
00000078
A3000069
A5000078
7A1001C4
08DDDD70
ENDCHAR
STARTCHAR four
ENCODING 52
SWIDTH 520 0
DWIDTH 10 0
BBX 10 13 0 0
BITMAP
000000CF00
0000079F00
00002D1F00
0000A50F00
0004B00F00
000C200F00
0078000F00
02D1000F00
0B50000F00
1EDDDDDFD9
0000000F00
0000000F00
0000000E00
ENDCHAR
STARTCHAR five
ENCODING 53
SWIDTH 482 0
DWIDTH 10 0
BBX 8 13 1 0
BITMAP
9EDDDDD3
A5000000
A5000000
A5000000
A5000000
A9CDDD60
990002D3
00000087
00000078
73000078
A5000087
6B1002D3
08DDDD60
ENDCHAR
STARTCHAR six
ENCODING 54
SWIDTH 497 0
DWIDTH 10 0
BBX 8 13 1 0
BITMAP
19DDDDD0
8A000000
C3000000
D3000000
D3000000
DEDDDD60
D30002D4
D3000069
D300005A
D300005A
C4000069
8A0001C5
19DDDD70
ENDCHAR
STARTCHAR seven
ENCODING 55
SWIDTH 380 0
DWIDTH 8 0
BBX 8 13 0 0
BITMAP
8DDDDDF3
000002E0
00000790
00000D40
00003D00
00009700
0000E200
0005B000
000B6000
001E1000
007A0000
00C40000
03D00000
ENDCHAR
STARTCHAR eight
ENCODING 56
SWIDTH 519 0
DWIDTH 10 0
BBX 9 13 1 0
BITMAP
08DDDDB200
6B10006B00
A600000E00
A500000E10
A600000F00
5C10008A00
0AFDDEE200
5C10007B00
A600000F00
A500000E10
A600000E00
6B10006B00
08DDDDB200
ENDCHAR
STARTCHAR nine
ENCODING 57
SWIDTH 497 0
DWIDTH 10 0
BBX 8 13 1 0
BITMAP
19DDDD70
890001C4
C3000078
D2000069
D2000069
C3000069
8A100069
08DDDDE9
00000069
00000069
00000078
000001C4
3DDDDD70
ENDCHAR
STARTCHAR colon
ENCODING 58
SWIDTH 191 0
DWIDTH 4 0
BBX 2 10 1 0
BITMAP
96
A7
85
00
00
00
00
85
A7
96
ENDCHAR
STARTCHAR semicolon
ENCODING 59
SWIDTH 191 0
DWIDTH 4 0
BBX 2 13 1 -3
BITMAP
96
A7
85
00
00
00
00
64
A7
A6
A2
70
10
ENDCHAR
STARTCHAR less
ENCODING 60
SWIDTH 513 0
DWIDTH 10 0
BBX 8 7 1 3
BITMAP
00000059
00038D94
16CB5100
AB200000
28C94000
0004AD82
0000016B
ENDCHAR
STARTCHAR equal
ENCODING 61
SWIDTH 531 0
DWIDTH 11 0
BBX 9 4 1 4
BITMAP
6DDDDDDD10
0000000000
0000000000
6DDDDDDD10
ENDCHAR
STARTCHAR greater
ENCODING 62
SWIDTH 531 0
DWIDTH 11 0
BBX 9 7 1 3
BITMAP
6720000000
17CB500000
00038D9300
0000007F20
00017CA500
15BC710000
6930000000
ENDCHAR
STARTCHAR question
ENCODING 63
SWIDTH 473 0
DWIDTH 9 0
BBX 7 13 1 0
BITMAP
07DDDB20
4C1007B0
870000E0
860000E0
000006B0
00006C10
0004C100
00096000
00074000
00000000
00095000
000B6000
000A6000
ENDCHAR
STARTCHAR at
ENCODING 64
SWIDTH 753 0
DWIDTH 15 0
BBX 13 13 1 -1
BITMAP
0017CDDDDDC400
01C71000003C20
0B400000000660
2B005CDDE50570
5703D200950570
57068000850570
57077000850570
57068000950660
5703D203D52C20
2B006CD96EC500
0B500000000000
02C82000000000
0017CDDDD60000
ENDCHAR
STARTCHAR A
ENCODING 65
SWIDTH 533 0
DWIDTH 11 0
BBX 10 13 0 0
BITMAP
00007F2000
0000CB7000
0002D4C000
000790E200
000C50A600
002F105B00
006B001F10
00B7000C60
01F20007B0
06FDDDDEF1
0A700000D5
1E2000007A
5B0000002E
ENDCHAR
STARTCHAR B
ENCODING 66
SWIDTH 546 0
DWIDTH 11 0
BBX 9 13 1 0
BITMAP
4FDDDDC400
4B00002D10
4B00000A50
4B00000960
4B00000A50
4B00004D10
4FDDDEE500
4B00002D30
4B00000870
4B00000780
4B00000870
4B00001D30
4FDDDDD600
ENDCHAR
STARTCHAR C
ENCODING 67
SWIDTH 542 0
DWIDTH 11 0
BBX 9 13 1 0
BITMAP
06DDDDD700
3D20001C50
7800000780
8800000590
8800000010
8800000000
8800000000
8800000000
8800000010
8800000590
7800000680
3D20001C50
06DDDDD700
ENDCHAR
STARTCHAR D
ENCODING 68
SWIDTH 557 0
DWIDTH 11 0
BBX 9 13 1 0
BITMAP
4FDDDDD700
4B00001C50
4B00000690
4B000005A0
4B000005A0
4B000005A0
4B000005A0
4B000005A0
4B000005A0
4B000005A0
4B00000690
4B00001C50
4FDDDDD700
ENDCHAR
STARTCHAR E
ENCODING 69
SWIDTH 481 0
DWIDTH 10 0
BBX 8 13 1 0
BITMAP
4FDDDDD3
4B000000
4B000000
4B000000
4B000000
4B000000
4FDDDD90
4B000000
4B000000
4B000000
4B000000
4B000000
4FDDDDD3
ENDCHAR
STARTCHAR F
ENCODING 70
SWIDTH 459 0
DWIDTH 9 0
BBX 8 13 1 0
BITMAP
4FDDDDD3
4B000000
4B000000
4B000000
4B000000
4B000000
4FDDDD90
4B000000
4B000000
4B000000
4B000000
4B000000
4A000000
ENDCHAR
STARTCHAR G
ENCODING 71
SWIDTH 539 0
DWIDTH 11 0
BBX 9 13 1 0
BITMAP
06DDDDC400
3D20003E10
7800000C40
8800000930
8800000000
8800000000
88005DDE40
8800000B40
8800000B40
8800000B40
7800000C30
3D20004D10
06DDDDC300
ENDCHAR
STARTCHAR H
ENCODING 72
SWIDTH 570 0
DWIDTH 11 0
BBX 9 13 1 0
BITMAP
4A000004A0
4B000004B0
4B000004B0
4B000004B0
4B000004B0
4B000005B0
4FDDDDDEB0
4B000005B0
4B000004B0
4B000004B0
4B000004B0
4B000004B0
4A000004A0
ENDCHAR
STARTCHAR I
ENCODING 73
SWIDTH 230 0
DWIDTH 5 0
BBX 2 13 1 0
BITMAP
3C
3C
3C
3C
3C
3C
3C
3C
3C
3C
3C
3C
3C
ENDCHAR
STARTCHAR J
ENCODING 74
SWIDTH 499 0
DWIDTH 10 0
BBX 9 13 0 0
BITMAP
0000000950
0000000960
0000000960
0000000960
0000000960
0000000960
0000000960
0000000960
2800000960
4C00000960
3D00000A50
0D40003E10
03CDDDC400
ENDCHAR
STARTCHAR K
ENCODING 75
SWIDTH 530 0
DWIDTH 11 0
BBX 9 13 1 0
BITMAP
4A00001D30
4B0000B800
4B0007C000
4B003E2000
4B01D50000
4B0AA00000
4B6DD00000
4CD1980000
4E301D3000
4B0004D000
4B00009800
4B00001D30
4A000004C0
ENDCHAR
STARTCHAR L
ENCODING 76
SWIDTH 451 0
DWIDTH 9 0
BBX 8 13 1 0
BITMAP
4A000000
4B000000
4B000000
4B000000
4B000000
4B000000
4B000000
4B000000
4B000000
4B000000
4B000000
4B000000
4FDDDDD6
ENDCHAR
STARTCHAR M
ENCODING 77
SWIDTH 696 0
DWIDTH 14 0
BBX 12 13 1 0
BITMAP
4F50000006F3
4EB000000CE3
4AD200004CC3
4A790000A5C3
4A1E1002D0C3
4A09600880C3
4A02D00D10C3
4A00B45A00C3
4A004BC300C3
4A000DC000C3
4A00011000C3
4A00000000C3
4A00000000B3
ENDCHAR
STARTCHAR N
ENCODING 78
SWIDTH 579 0
DWIDTH 12 0
BBX 9 13 1 0
BITMAP
4D000001D0
4F700001E0
4DE10001E0
4B890001E0
4B1D3001E0
4B05B001E0
4B00C501E0
4B003D01E0
4B000971E0
4B0001D3E0
4B00006BE0
4B00000CE0
4A000004D0
ENDCHAR
STARTCHAR O
ENCODING 79
SWIDTH 553 0
DWIDTH 11 0
BBX 9 13 1 0
BITMAP
06DDDDD600
3D20002D40
7800000780
8800000780
8800000780
8800000780
8800000780
8800000780
8800000780
8800000780
7800000780
3D20002D40
06DDDDD600
ENDCHAR
STARTCHAR P
ENCODING 80
SWIDTH 524 0
DWIDTH 10 0
BBX 9 13 1 0
BITMAP
4FDDDDC400
4B00003E10
4B00000B40
4B00000B50
4B00000B50
4B00000B40
4B00004E10
4FDDDDB300
4B00000000
4B00000000
4B00000000
4B00000000
4A00000000
ENDCHAR
STARTCHAR Q
ENCODING 81
SWIDTH 556 0
DWIDTH 11 0
BBX 9 16 1 -3
BITMAP
05DDDDD600
3D20001C40
6900000780
7800000690
7800000690
7800000690
7800000690
7800000690
7800000690
7800000690
6900000780
3D20001C40
05DDDDD700
00000D3000
000005C000
000000B500
ENDCHAR
STARTCHAR R
ENCODING 82
SWIDTH 534 0
DWIDTH 11 0
BBX 9 13 1 0
BITMAP
4FDDDEC300
4B00004D00
4B00000C30
4B00000B40
4B00000B40
4B00000C30
4B00005D00
4FDDDFB200
4B000A6000
4B0003D000
4B0000A600
4B00003D00
4A00000A60
ENDCHAR
STARTCHAR S
ENCODING 83
SWIDTH 562 0
DWIDTH 11 0
BBX 9 13 1 0
BITMAP
04CEDDD600
1E30001D40
5B00000780
6A00000450
4C00000000
0CB5100000
006BEC8200
0000039E20
0000000980
4700000690
5A00000780
1E30001C40
04CEDDD700
ENDCHAR
STARTCHAR T
ENCODING 84
SWIDTH 420 0
DWIDTH 8 0
BBX 8 13 0 0
BITMAP
8DDEFDDD
0004B000
0004B000
0004B000
0004B000
0004B000
0004B000
0004B000
0004B000
0004B000
0004B000
0004B000
0004A000
ENDCHAR
STARTCHAR U
ENCODING 85
SWIDTH 552 0
DWIDTH 11 0
BBX 9 13 1 0
BITMAP
6900000860
6900000870
6900000870
6900000870
6900000870
6900000870
6900000870
6900000870
6900000870
6900000870
5A00000960
2E20002E20
05DDDDD500
ENDCHAR
STARTCHAR V
ENCODING 86
SWIDTH 500 0
DWIDTH 10 0
BBX 10 13 0 0
BITMAP
5A000000A5
1E000000E1
0C400004C0
0780000970
03D0000D30
00D2002D00
0096007900
004B00B400
000E11E000
000A45A000
0006996000
0001DD1000
0000CC0000
ENDCHAR
STARTCHAR W
ENCODING 87
SWIDTH 794 0
DWIDTH 16 0
BBX 16 13 0 0
BITMAP
4C00000C900000E2
1F10001ED00002E0
0D30005AB30006B0
0A60009677000980
06A000D24B000C50
03D002D00E000E10
00E105900B303D00
00C4095007706A00
00870D1003B09600
005A2C0000D1C300
002D680000A5E000
000DB400006BC000
000AE000002F8000
ENDCHAR
STARTCHAR X
ENCODING 88
SWIDTH 504 0
DWIDTH 10 0
BBX 10 13 0 0
BITMAP
0D300002D1
06B0000A70
00C4003D00
003D00B500
000A65B000
0002DD2000
0000CD0000
0005BA7000
000D32E100
0079008800
01E2001E20
09800007A0
2D100000D3
ENDCHAR
STARTCHAR Y
ENCODING 89
SWIDTH 493 0
DWIDTH 10 0
BBX 10 13 0 0
BITMAP
5C000001D3
0D400007A0
05B0000D30
00D3006B00
006B00D300
000D35B000
0006AC3000
0000DB0000
0000960000
0000960000
0000960000
0000960000
0000860000
ENDCHAR
STARTCHAR Z
ENCODING 90
SWIDTH 482 0
DWIDTH 10 0
BBX 9 13 0 0
BITMAP
0CDDDDDE90
0000001D50
0000008B00
000002E300
00000A8000
00004E1000
0000D50000
0007B00000
002E300000
00A9000000
04E1000000
0C60000000
2FDDDDDDA0
ENDCHAR
STARTCHAR bracketleft
ENCODING 91
SWIDTH 287 0
DWIDTH 6 0
BBX 4 15 1 -2
BITMAP
AED4
B300
B300
B300
B300
B300
B300
B300
B300
B300
B300
B300
B300
B300
AED4
ENDCHAR
STARTCHAR backslash
ENCODING 92
SWIDTH 396 0
DWIDTH 8 0
BBX 6 13 1 0
BITMAP
A50000
5B0000
0E1000
097000
04C000
00D200
008800
003D00
000D30
000880
0002D0
0000C4
000069
ENDCHAR
STARTCHAR bracketright
ENCODING 93
SWIDTH 287 0
DWIDTH 6 0
BBX 4 15 1 -2
BITMAP
ADF4
0094
0094
0094
0094
0094
0094
0094
0094
0094
0094
0094
0094
0094
ADE4
ENDCHAR
STARTCHAR asciicircum
ENCODING 94
SWIDTH 465 0
DWIDTH 9 0
BBX 8 6 1 7
BITMAP
004E9000
00C3D200
06905A00
0D200C30
780004B0
61000061
ENDCHAR
STARTCHAR underscore
ENCODING 95
SWIDTH 372 0
DWIDTH 7 0
BBX 8 1 0 -2
BITMAP
DDDDDDD5
ENDCHAR
STARTCHAR grave
ENCODING 96
SWIDTH 269 0
DWIDTH 5 0
BBX 3 3 1 11
BITMAP
6D10
0880
0060
ENDCHAR
STARTCHAR a
ENCODING 97
SWIDTH 502 0
DWIDTH 10 0
BBX 8 10 1 0
BITMAP
08DDDDE8
6B100078
A5000078
B4000078
B4000078
B4000078
B4000078
A5000088
6B1002D8
08DDDC88
ENDCHAR
STARTCHAR b
ENCODING 98
SWIDTH 504 0
DWIDTH 10 0
BBX 8 14 1 0
BITMAP
77000000
88000000
88000000
88000000
89BDDD90
8D2001A7
8800004B
8800003C
8800003C
8800003C
8800003C
8800004B
880000A7
7EDDDD90
ENDCHAR
STARTCHAR c
ENCODING 99
SWIDTH 394 0
DWIDTH 8 0
BBX 7 10 1 0
BITMAP
08DDDD20
6B100000
A5000000
B4000000
B4000000
B4000000
B4000000
A5000000
6B100000
08DDDD20
ENDCHAR
STARTCHAR d
ENCODING 100
SWIDTH 504 0
DWIDTH 10 0
BBX 8 14 1 0
BITMAP
00000068
00000069
00000069
00000069
08DDDB89
6B1002D9
A5000079
B4000069
B4000069
B4000069
B4000069
A5000079
6B1002D9
08DDDC88
ENDCHAR
STARTCHAR e
ENCODING 101
SWIDTH 492 0
DWIDTH 10 0
BBX 8 10 1 0
BITMAP
08DDDD70
6C1001C4
A5000068
B400005A
B500006A
BEDDDDE9
B5000000
A5000000
6A100000
08DDDDD6
ENDCHAR
STARTCHAR f
ENCODING 102
SWIDTH 303 0
DWIDTH 6 0
BBX 6 14 0 0
BITMAP
0009D8
005C10
008700
009700
3DFED8
009600
009600
009600
009600
009600
009600
009600
009600
009600
ENDCHAR
STARTCHAR g
ENCODING 103
SWIDTH 506 0
DWIDTH 10 0
BBX 8 13 1 -3
BITMAP
07DDDDE9
4C10006A
8700006A
9600006A
9600006A
9600006A
9600006A
8700007A
4D2003DA
06CDDB8A
00000069
000001C5
0DDDDD70
ENDCHAR
STARTCHAR h
ENCODING 104
SWIDTH 507 0
DWIDTH 10 0
BBX 8 14 1 0
BITMAP
77000000
88000000
88000000
88000000
89BDDD90
8D2001B7
8800005A
8800004B
8800004B
8800004B
8800004B
8800004B
8800004B
7700004B
ENDCHAR
STARTCHAR i
ENCODING 105
SWIDTH 210 0
DWIDTH 4 0
BBX 2 14 1 0
BITMAP
69
69
11
00
69
69
69
69
69
69
69
69
69
69
ENDCHAR
STARTCHAR j
ENCODING 106
SWIDTH 210 0
DWIDTH 4 0
BBX 4 17 -1 -3
BITMAP
0069
0069
0011
0000
0069
0069
0069
0069
0069
0069
0069
0069
0069
0069
0078
01D4
DD70
ENDCHAR
STARTCHAR k
ENCODING 107
SWIDTH 431 0
DWIDTH 9 0
BBX 8 14 1 0
BITMAP
77000000
88000000
88000000
88000000
880005C0
88001E30
8800A700
8805C000
881E3000
880C5000
8802D200
88006B00
88000B70
770002D2
ENDCHAR
STARTCHAR l
ENCODING 108
SWIDTH 210 0
DWIDTH 4 0
BBX 2 14 1 0
BITMAP
69
69
69
69
69
69
69
69
69
69
69
69
69
69
ENDCHAR
STARTCHAR m
ENCODING 109
SWIDTH 769 0
DWIDTH 15 0
BBX 13 10 1 0
BITMAP
78BDEC34CDEA10
8D2004DB1008A0
880000C50001E0
880000C40001F0
880000C40001F0
880000C40001F0
880000C40001F0
880000C40001F0
880000C40001F0
770000B40001E0
ENDCHAR
STARTCHAR n
ENCODING 110
SWIDTH 507 0
DWIDTH 10 0
BBX 8 10 1 0
BITMAP
78BDDD90
8D2001B7
8800005A
8800004B
8800004B
8800004B
8800004B
8800004B
8800004B
7700004B
ENDCHAR
STARTCHAR o
ENCODING 111
SWIDTH 496 0
DWIDTH 10 0
BBX 8 10 1 0
BITMAP
08DDDD70
6B1001C5
A5000069
B400005A
B400005A
B400005A
B400005A
A5000069
6B1001C5
08DDDD70
ENDCHAR
STARTCHAR p
ENCODING 112
SWIDTH 504 0
DWIDTH 10 0
BBX 8 13 1 -3
BITMAP
78BDDD90
8D2001A7
8800004B
8800003C
8800003C
8800003C
8800003C
8800004B
8D2001A7
89BDDD90
88000000
88000000
77000000
ENDCHAR
STARTCHAR q
ENCODING 113
SWIDTH 502 0
DWIDTH 10 0
BBX 8 13 1 -3
BITMAP
08DDDDE8
6B100078
A5000078
B4000078
B4000078
B4000078
B4000078
A5000088
6B1002D8
08DDEC88
00000078
00000078
00000068
ENDCHAR
STARTCHAR r
ENCODING 114
SWIDTH 313 0
DWIDTH 6 0
BBX 5 10 1 0
BITMAP
78AD90
8E3000
890000
880000
880000
880000
880000
880000
880000
770000
ENDCHAR
STARTCHAR s
ENCODING 115
SWIDTH 431 0
DWIDTH 9 0
BBX 7 10 1 0
BITMAP
4CEDDD00
D5000000
E1000000
A8100000
07D94000
0004AB10
00000A60
00000880
00001B60
BDDDD900
ENDCHAR
STARTCHAR t
ENCODING 116
SWIDTH 347 0
DWIDTH 7 0
BBX 7 12 0 0
BITMAP
00D20000
00D20000
6DFEDC00
00D20000
00D20000
00D20000
00D20000
00D20000
00D20000
00C30000
00990000
0019DD10
ENDCHAR
STARTCHAR u
ENCODING 117
SWIDTH 507 0
DWIDTH 10 0
BBX 8 10 1 0
BITMAP
96000059
9600005A
9600005A
9600005A
9600005A
9600005A
9600005A
8700006A
5C1001CA
07DDDC89
ENDCHAR
STARTCHAR v
ENCODING 118
SWIDTH 416 0
DWIDTH 8 0
BBX 8 10 0 0
BITMAP
7700003C
3C000088
0D2000D3
087002D0
04B00780
00E10B30
00961D00
004A6900
000EB400
000AE000
ENDCHAR
STARTCHAR w
ENCODING 119
SWIDTH 683 0
DWIDTH 14 0
BBX 14 10 0 0
BITMAP
780000C70000D2
3D0001EB0003D0
0E20058D100780
09600949400B40
05A00D05801E00
01E03B01C05A00
00B37700C19600
0077B30085D100
002CD0004CC000
000D90000E7000
ENDCHAR
STARTCHAR x
ENCODING 120
SWIDTH 413 0
DWIDTH 8 0
BBX 8 10 0 0
BITMAP
2D1000C5
098005C0
01D20D30
006A6900
000CD100
000DD200
00795B00
02E10B50
0A7003D1
4C000098
ENDCHAR
STARTCHAR y
ENCODING 121
SWIDTH 459 0
DWIDTH 9 0
BBX 9 13 0 -3
BITMAP
5A00000780
0E10000D30
0960003D00
04B0008700
00D200D200
008704C000
003C097000
000D3E2000
0008CB0000
0001D60000
0001E10000
000A800000
0DE9000000
ENDCHAR
STARTCHAR z
ENCODING 122
SWIDTH 405 0
DWIDTH 8 0
BBX 8 10 0 0
BITMAP
2DDDDDF4
000005D0
00001E30
00009900
0004D100
000D5000
008A0000
03E10000
0C600000
4FDDDDD5
ENDCHAR
STARTCHAR braceleft
ENCODING 123
SWIDTH 298 0
DWIDTH 6 0
BBX 5 15 0 -2
BITMAP
001BA0
009600
00B200
00C100
00C100
00C100
02D000
3F6000
02D000
00C100
00C100
00C100
00B200
008700
001AA0
ENDCHAR
STARTCHAR bar
ENCODING 124
SWIDTH 207 0
DWIDTH 4 0
BBX 2 13 1 0
BITMAP
57
57
57
57
57
57
57
57
57
57
57
57
57
ENDCHAR
STARTCHAR braceright
ENCODING 125
SWIDTH 298 0
DWIDTH 6 0
BBX 5 15 0 -2
BITMAP
3D6000
01D100
009400
009500
009500
009500
006900
001DA0
006900
009500
009500
009500
009400
01D100
3D6000
ENDCHAR
STARTCHAR asciitilde
ENCODING 126
SWIDTH 523 0
DWIDTH 10 0
BBX 8 1 1 6
BITMAP
5CDDDDDA
ENDCHAR
STARTCHAR uni00A0
ENCODING 160
SWIDTH 267 0
DWIDTH 5 0
BBX 1 1 0 0
BITMAP
00
ENDCHAR
STARTCHAR exclamdown
ENCODING 161
SWIDTH 237 0
DWIDTH 5 0
BBX 2 13 1 0
BITMAP
2D
2E
2B
00
0A
1C
2D
2D
3E
3E
3E
3E
3E
ENDCHAR
STARTCHAR cent
ENCODING 162
SWIDTH 414 0
DWIDTH 8 0
BBX 7 14 1 -2
BITMAP
00049000
0004A000
08DDDD70
6B100000
A5000000
B4000000
B4000000
B4000000
B4000000
A5000000
6B100000
08DDDD70
0004A000
00024000
ENDCHAR
STARTCHAR sterling
ENCODING 163
SWIDTH 528 0
DWIDTH 11 0
BBX 10 13 0 0
BITMAP
0009DDDB20
007A0006B0
00B40000E0
00C30000B1
00C3000000
00C3000000
00C3000000
3DFEDD8000
00C3000000
00C3000000
00C3000000
01D1000000
3EEDDDDDD2
ENDCHAR
STARTCHAR yen
ENCODING 165
SWIDTH 499 0
DWIDTH 10 0
BBX 10 13 0 0
BITMAP
4C000000D3
0C500005B0
05C0000C40
00D4004C00
005B00B500
000D33D000
3CCDAADCC2
0000DD0000
0000980000
3DDDEEDDD2
0000870000
0000870000
0000770000
ENDCHAR
STARTCHAR brokenbar
ENCODING 166
SWIDTH 201 0
DWIDTH 4 0
BBX 2 13 1 0
BITMAP
66
77
77
77
66
00
00
00
66
77
77
77
66
ENDCHAR
STARTCHAR section
ENCODING 167
SWIDTH 454 0
DWIDTH 9 0
BBX 7 13 1 0
BITMAP
2BDDDD30
98000000
C4000000
C8000000
CADB8400
C2036C70
B40003C0
5D6301D0
037ADBD0
000007D0
000003D0
000008A0
8DDDDB10
ENDCHAR
STARTCHAR dieresis
ENCODING 168
SWIDTH 345 0
DWIDTH 7 0
BBX 5 3 1 11
BITMAP
A40680
A40680
840570
ENDCHAR
STARTCHAR copyright
ENCODING 169
SWIDTH 723 0
DWIDTH 14 0
BBX 12 13 1 0
BITMAP
07DDDDDDDDB2
4B100000005B
85000000000C
8400ADDC300C
84058003B00C
84075000B00C
84084000000C
84084000000C
84075000C00C
84058003A00C
85007BBA200C
4B100000005B
07DDDDDDDEB2
ENDCHAR
STARTCHAR guillemotleft
ENCODING 171
SWIDTH 431 0
DWIDTH 9 0
BBX 7 8 1 1
BITMAP
00030120
00A41B20
0A51C300
950B3000
78096000
0880A600
00760A30
00010010
ENDCHAR
STARTCHAR registered
ENCODING 174
SWIDTH 439 0
DWIDTH 9 0
BBX 7 6 1 8
BITMAP
2BDDDA00
83AD6750
90809360
90AE6360
84515750
1BDDD900
ENDCHAR
STARTCHAR macron
ENCODING 175
SWIDTH 358 0
DWIDTH 7 0
BBX 5 1 1 12
BITMAP
9DDDB0
ENDCHAR
STARTCHAR degree
ENCODING 176
SWIDTH 298 0
DWIDTH 6 0
BBX 4 4 1 10
BITMAP
4EE3
7456
7456
3DD3
ENDCHAR
STARTCHAR plusminus
ENCODING 177
SWIDTH 523 0
DWIDTH 10 0
BBX 8 8 1 2
BITMAP
0003A000
0004B000
0004B000
7DDEFDDD
0004B000
0003A000
00000000
7DDDDDDD
ENDCHAR
STARTCHAR acute
ENCODING 180
SWIDTH 269 0
DWIDTH 5 0
BBX 3 3 1 11
BITMAP
08B0
3C10
4200
ENDCHAR
STARTCHAR paragraph
ENCODING 182
SWIDTH 513 0
DWIDTH 10 0
BBX 8 13 1 0
BITMAP
3CFEDDE7
DFF50068
FFF50068
FFF50068
EFF50068
9FF50068
05C50068
00950068
00950068
00950068
00950068
00950068
00840057
ENDCHAR
STARTCHAR periodcentered
ENCODING 183
SWIDTH 207 0
DWIDTH 4 0
BBX 2 3 1 5
BITMAP
68
89
79
ENDCHAR
STARTCHAR cedilla
ENCODING 184
SWIDTH 257 0
DWIDTH 5 0
BBX 3 4 1 -4
BITMAP
1A10
7B50
01B0
7D60
ENDCHAR
STARTCHAR guillemotright
ENCODING 187
SWIDTH 431 0
DWIDTH 9 0
BBX 7 8 1 1
BITMAP
30030000
780A5000
0880A500
00860A30
00A41B20
1B51B300
950A3000
10010000
ENDCHAR
STARTCHAR questiondown
ENCODING 191
SWIDTH 473 0
DWIDTH 9 0
BBX 7 13 1 0
BITMAP
000E2000
000E2000
000C2000
00000000
000A1000
000E1000
006B0000
06C10000
4D100000
870000D0
870000F0
4C1006B0
07DDDB20
ENDCHAR
STARTCHAR Agrave
ENCODING 192
SWIDTH 532 0
DWIDTH 11 0
BBX 10 17 0 0
BITMAP
0007200000
0006B00000
0000850000
0000000000
00007F2000
0000CB7000
0002D4C000
000790E200
000C50A600
002F105B00
006B001F10
00B7000C60
01F20007B0
06FDDDDEF1
0A700000D5
1E2000007A
5B0000002E
ENDCHAR
STARTCHAR Aacute
ENCODING 193
SWIDTH 532 0
DWIDTH 11 0
BBX 10 17 0 0
BITMAP
0000005500
000002D200
00000A3000
0000000000
00007F2000
0000CB7000
0002D4C000
000790E200
000C50A600
002F105B00
006B001F10
00B7000C60
01F20007B0
06FDDDDEF1
0A700000D5
1E2000007A
5B0000002E
ENDCHAR
STARTCHAR Acircumflex
ENCODING 194
SWIDTH 532 0
DWIDTH 11 0
BBX 10 17 0 0
BITMAP
0000270000
0000B77000
000670B100
0000000000
00007F2000
0000CB7000
0002D4C000
000790E200
000C50A600
002F105B00
006B001F10
00B7000C60
01F20007B0
06FDDDDEF1
0A700000D5
1E2000007A
5B0000002E
ENDCHAR
STARTCHAR Atilde
ENCODING 195
SWIDTH 532 0
DWIDTH 11 0
BBX 10 17 0 0
BITMAP
000808D300
00091A3600
0005A32500
0000000000
00007F2000
0000CB7000
0002D4C000
000790E200
000C50A600
002F105B00
006B001F10
00B7000C60
01F20007B0
06FDDDDEF1
0A700000D5
1E2000007A
5B0000002E
ENDCHAR
STARTCHAR Adieresis
ENCODING 196
SWIDTH 532 0
DWIDTH 11 0
BBX 10 17 0 0
BITMAP
000A206500
000C308700
000C308600
0000000000
00007F2000
0000CB7000
0002D4C000
000790E200
000C50A600
002F105B00
006B001F10
00B7000C60
01F20007B0
06FDDDDEF1
0A700000D5
1E2000007A
5B0000002E
ENDCHAR
STARTCHAR Aring
ENCODING 197
SWIDTH 532 0
DWIDTH 11 0
BBX 10 17 0 0
BITMAP
0001CE7000
000560B000
000571B000
0001BD7000
00007F2000
0000CB7000
0002D4C000
000790E200
000C50A600
002F105B00
006B001F10
00B7000C60
01F20007B0
06FDDDDEF1
0A700000D5
1E2000007A
5B0000002E
ENDCHAR
STARTCHAR AE
ENCODING 198
SWIDTH 773 0
DWIDTH 15 0
BBX 15 13 0 0
BITMAP
0000005FFDDDDD10
000000DB80000000
000006B780000000
00001E4780000000
00007B0780000000
0001E30790000000
0009B007FDDDD700
002F300790000000
00AA000780000000
03FEDDDE80000000
0B90000780000000
4E10000780000000
C5000006FDDDDD10
ENDCHAR
STARTCHAR Ccedilla
ENCODING 199
SWIDTH 542 0
DWIDTH 11 0
BBX 9 17 1 -4
BITMAP
06DDDDD700
3D20001C50
7800000780
8800000590
8800000010
8800000000
8800000000
8800000000
8800000010
8800000590
7800000680
3D20001C50
06DDDDD700
0001A10000
0004AA0000
00000B1000
0003D90000
ENDCHAR
STARTCHAR Egrave
ENCODING 200
SWIDTH 481 0
DWIDTH 10 0
BBX 8 17 1 0
BITMAP
01720000
007B0000
00095000
00000000
4FDDDDD3
4B000000
4B000000
4B000000
4B000000
4B000000
4FDDDD90
4B000000
4B000000
4B000000
4B000000
4B000000
4FDDDDD3
ENDCHAR
STARTCHAR Eacute
ENCODING 201
SWIDTH 481 0
DWIDTH 10 0
BBX 8 17 1 0
BITMAP
00001710
0000A700
00049000
00000000
4FDDDDD3
4B000000
4B000000
4B000000
4B000000
4B000000
4FDDDD90
4B000000
4B000000
4B000000
4B000000
4B000000
4FDDDDD3
ENDCHAR
STARTCHAR Ecircumflex
ENCODING 202
SWIDTH 481 0
DWIDTH 10 0
BBX 8 17 1 0
BITMAP
00054000
002AA200
00A23A00
00000000
4FDDDDD3
4B000000
4B000000
4B000000
4B000000
4B000000
4FDDDD90
4B000000
4B000000
4B000000
4B000000
4B000000
4FDDDDD3
ENDCHAR
STARTCHAR Edieresis
ENCODING 203
SWIDTH 481 0
DWIDTH 10 0
BBX 8 17 1 0
BITMAP
01A00A10
02D00D20
02D00D20
00000000
4FDDDDD3
4B000000
4B000000
4B000000
4B000000
4B000000
4FDDDD90
4B000000
4B000000
4B000000
4B000000
4B000000
4FDDDDD3
ENDCHAR
STARTCHAR Igrave
ENCODING 204
SWIDTH 230 0
DWIDTH 5 0
BBX 3 17 0 0
BITMAP
7200
5C00
0760
0000
03C0
03C0
03C0
03C0
03C0
03C0
03C0
03C0
03C0
03C0
03C0
03C0
03C0
ENDCHAR
STARTCHAR Iacute
ENCODING 205
SWIDTH 231 0
DWIDTH 5 0
BBX 4 17 1 0
BITMAP
0054
03D1
0B20
0000
3C00
3C00
3C00
3C00
3C00
3C00
3C00
3C00
3C00
3C00
3C00
3C00
3C00
ENDCHAR
STARTCHAR Icircumflex
ENCODING 206
SWIDTH 229 0
DWIDTH 5 0
BBX 5 17 0 0
BITMAP
027000
0B8600
670C10
000000
03C000
03C000
03C000
03C000
03C000
03C000
03C000
03C000
03C000
03C000
03C000
03C000
03C000
ENDCHAR
STARTCHAR Idieresis
ENCODING 207
SWIDTH 230 0
DWIDTH 5 0
BBX 5 17 0 0
BITMAP
A20750
C20860
C20860
000000
03C000
03C000
03C000
03C000
03C000
03C000
03C000
03C000
03C000
03C000
03C000
03C000
03C000
ENDCHAR
STARTCHAR Eth
ENCODING 208
SWIDTH 514 0
DWIDTH 10 0
BBX 10 13 0 0
BITMAP
03FDDDDD80
04C00001B6
04C000005A
04C000004B
04C000004B
04C000004B
6EFDDD104B
04C000004B
04C000004B
04C000004B
04C000005A
04C00001B6
03FDDDDD80
ENDCHAR
STARTCHAR Ntilde
ENCODING 209
SWIDTH 579 0
DWIDTH 12 0
BBX 9 17 1 0
BITMAP
00542D9000
005593A000
001D908000
0000000000
4D000001D0
4F700001E0
4DE10001E0
4B890001E0
4B1D3001E0
4B05B001E0
4B00C501E0
4B003D01E0
4B000971E0
4B0001D3E0
4B00006BE0
4B00000CE0
4A000004D0
ENDCHAR
STARTCHAR Ograve
ENCODING 210
SWIDTH 553 0
DWIDTH 11 0
BBX 9 17 1 0
BITMAP
0055000000
002D200000
0003A00000
0000000000
06DDDDD600
3D20002D40
7800000780
8800000780
8800000780
8800000780
8800000780
8800000780
8800000780
8800000780
7800000780
3D20002D40
06DDDDD600
ENDCHAR
STARTCHAR Oacute
ENCODING 211
SWIDTH 553 0
DWIDTH 11 0
BBX 9 17 1 0
BITMAP
0000055000
00002D2000
0000A30000
0000000000
06DDDDD600
3D20002D40
7800000780
8800000780
8800000780
8800000780
8800000780
8800000780
8800000780
8800000780
7800000780
3D20002D40
06DDDDD600
ENDCHAR
STARTCHAR Ocircumflex
ENCODING 212
SWIDTH 553 0
DWIDTH 11 0
BBX 9 17 1 0
BITMAP
0001710000
00097A0000
003A094000
0000000000
06DDDDD600
3D20002D40
7800000780
8800000780
8800000780
8800000780
8800000780
8800000780
8800000780
8800000780
7800000780
3D20002D40
06DDDDD600
ENDCHAR
STARTCHAR Otilde
ENCODING 213
SWIDTH 553 0
DWIDTH 11 0
BBX 9 17 1 0
BITMAP
00805E5000
0092B19000
005D608000
0000000000
06DDDDD600
3D20002D40
7800000780
8800000780
8800000780
8800000780
8800000780
8800000780
8800000780
8800000780
7800000780
3D20002D40
06DDDDD600
ENDCHAR
STARTCHAR Odieresis
ENCODING 214
SWIDTH 553 0
DWIDTH 11 0
BBX 9 17 1 0
BITMAP
0074048000
009605A000
0095059000
0000000000
06DDDDD600
3D20002D40
7800000780
8800000780
8800000780
8800000780
8800000780
8800000780
8800000780
8800000780
7800000780
3D20002D40
06DDDDD600
ENDCHAR
STARTCHAR multiply
ENCODING 215
SWIDTH 493 0
DWIDTH 10 0
BBX 6 7 2 3
BITMAP
400004
C800A9
1C8AA0
01EC00
0AAC80
AA01C8
600016
ENDCHAR
STARTCHAR Oslash
ENCODING 216
SWIDTH 559 0
DWIDTH 11 0
BBX 10 13 1 0
BITMAP
05DDDDD782
2D20001DA0
6900002E90
780000B9A0
78000776A0
78003B06A0
7800B206A0
78095006A0
78490006A0
79B10006A0
6F30000690
7E20001C50
A5DEDDD700
ENDCHAR
STARTCHAR Ugrave
ENCODING 217
SWIDTH 552 0
DWIDTH 11 0
BBX 9 17 1 0
BITMAP
0045000000
001D400000
0002B00000
0000000000
6900000860
6900000870
6900000870
6900000870
6900000870
6900000870
6900000870
6900000870
6900000870
6900000870
5A00000960
2E20002E20
05DDDDD500
ENDCHAR
STARTCHAR Uacute
ENCODING 218
SWIDTH 552 0
DWIDTH 11 0
BBX 9 17 1 0
BITMAP
0000055000
00002D2000
0000A30000
0000000000
6900000860
6900000870
6900000870
6900000870
6900000870
6900000870
6900000870
6900000870
6900000870
6900000870
5A00000960
2E20002E20
05DDDDD500
ENDCHAR
STARTCHAR Ucircumflex
ENCODING 219
SWIDTH 552 0
DWIDTH 11 0
BBX 9 17 1 0
BITMAP
0001710000
00097A0000
003A094000
0000000000
6900000860
6900000870
6900000870
6900000870
6900000870
6900000870
6900000870
6900000870
6900000870
6900000870
5A00000960
2E20002E20
05DDDDD500
ENDCHAR
STARTCHAR Udieresis
ENCODING 220
SWIDTH 552 0
DWIDTH 11 0
BBX 9 17 1 0
BITMAP
0074048000
009605A000
0095059000
0000000000
6900000860
6900000870
6900000870
6900000870
6900000870
6900000870
6900000870
6900000870
6900000870
6900000870
5A00000960
2E20002E20
05DDDDD500
ENDCHAR
STARTCHAR Yacute
ENCODING 221
SWIDTH 493 0
DWIDTH 10 0
BBX 10 17 0 0
BITMAP
0000017100
00000A7000
00004A0000
0000000000
5C000001D3
0D400007A0
05B0000D30
00D3006B00
006B00D300
000D35B000
0006AC3000
0000DB0000
0000960000
0000960000
0000960000
0000960000
0000860000
ENDCHAR
STARTCHAR Thorn
ENCODING 222
SWIDTH 501 0
DWIDTH 10 0
BBX 7 13 2 0
BITMAP
A4000000
B5000000
B5000000
BEDDD800
B5001C50
B5000690
B5000690
B5000690
B5002C50
BEDDD700
B5000000
B5000000
A4000000
ENDCHAR
STARTCHAR germandbls
ENCODING 223
SWIDTH 540 0
DWIDTH 11 0
BBX 9 13 1 0
BITMAP
05DDDEC300
2E20005D00
5A00000D20
6900000C30
6900000D20
6900007C00
6901DEE300
6900005D10
6900000A50
6900000960
6900000A50
6900002E20
6806DDD500
ENDCHAR
STARTCHAR agrave
ENCODING 224
SWIDTH 502 0
DWIDTH 10 0
BBX 8 14 1 0
BITMAP
006C0000
000A6000
00018000
00000000
08DDDDE8
6B100078
A5000078
B4000078
B4000078
B4000078
B4000078
A5000088
6B1002D8
08DDDC88
ENDCHAR
STARTCHAR aacute
ENCODING 225
SWIDTH 502 0
DWIDTH 10 0
BBX 8 14 1 0
BITMAP
00002E30
0000A600
00017000
00000000
08DDDDE8
6B100078
A5000078
B4000078
B4000078
B4000078
B4000078
A5000088
6B1002D8
08DDDC88
ENDCHAR
STARTCHAR acircumflex
ENCODING 226
SWIDTH 502 0
DWIDTH 10 0
BBX 8 14 1 0
BITMAP
0008C100
002B4900
00630810
00000000
08DDDDE8
6B100078
A5000078
B4000078
B4000078
B4000078
B4000078
A5000088
6B1002D8
08DDDC88
ENDCHAR
STARTCHAR atilde
ENCODING 227
SWIDTH 504 0
DWIDTH 10 0
BBX 8 14 1 0
BITMAP
00907E40
0090A280
004A4160
00000000
08DDDDE8
6B100078
A5000078
B4000078
B4000078
B4000078
B4000078
A5000088
6B1002D8
08DDDC88
ENDCHAR
STARTCHAR adieresis
ENCODING 228
SWIDTH 502 0
DWIDTH 10 0
BBX 8 14 1 0
BITMAP
00B30760
00C30870
00A20660
00000000
08DDDDE8
6B100078
A5000078
B4000078
B4000078
B4000078
B4000078
A5000088
6B1002D8
08DDDC88
ENDCHAR
STARTCHAR aring
ENCODING 229
SWIDTH 502 0
DWIDTH 10 0
BBX 8 15 1 0
BITMAP
003DD500
00820900
00820900
003DD500
00000000
08DDDDE8
6B100078
A5000078
B4000078
B4000078
B4000078
B4000078
A5000088
6B1002D8
08DDDC88
ENDCHAR
STARTCHAR ae
ENCODING 230
SWIDTH 795 0
DWIDTH 16 0
BBX 14 10 1 0
BITMAP
09DDDD55DEDD70
000002DD2001B5
00000098000059
00000088000049
08DDDDE8000059
6B10008EDDDDE8
A5000088000000
A5000088000000
6A1002CD200000
08DDDC46DDDDD8
ENDCHAR
STARTCHAR ccedilla
ENCODING 231
SWIDTH 394 0
DWIDTH 8 0
BBX 7 14 1 -4
BITMAP
08DDDD20
6B100000
A5000000
B4000000
B4000000
B4000000
B4000000
A5000000
6B100000
08DDDD20
000A3000
001AB100
00008400
001DB100
ENDCHAR
STARTCHAR egrave
ENCODING 232
SWIDTH 492 0
DWIDTH 10 0
BBX 8 14 1 0
BITMAP
01D50000
003D1000
00054000
00000000
08DDDD70
6C1001C4
A5000068
B400005A
B500006A
BEDDDDE9
B5000000
A5000000
6A100000
08DDDDD6
ENDCHAR
STARTCHAR eacute
ENCODING 233
SWIDTH 492 0
DWIDTH 10 0
BBX 8 14 1 0
BITMAP
00008B00
0002D100
00063000
00000000
08DDDD70
6C1001C4
A5000068
B400005A
B500006A
BEDDDDE9
B5000000
A5000000
6A100000
08DDDDD6
ENDCHAR
STARTCHAR ecircumflex
ENCODING 234
SWIDTH 492 0
DWIDTH 10 0
BBX 8 14 1 0
BITMAP
000BA000
00678500
00811800
00000000
08DDDD70
6C1001C4
A5000068
B400005A
B500006A
BEDDDDE9
B5000000
A5000000
6A100000
08DDDDD6
ENDCHAR
STARTCHAR edieresis
ENCODING 235
SWIDTH 492 0
DWIDTH 10 0
BBX 8 14 1 0
BITMAP
02C00C10
02D00D10
02A00B10
00000000
08DDDD70
6C1001C4
A5000068
B400005A
B500006A
BEDDDDE9
B5000000
A5000000
6A100000
08DDDDD6
ENDCHAR
STARTCHAR igrave
ENCODING 236
SWIDTH 210 0
DWIDTH 4 0
BBX 4 14 -1 0
BITMAP
1D40
04C0
0053
0000
0069
0069
0069
0069
0069
0069
0069
0069
0069
0069
ENDCHAR
STARTCHAR iacute
ENCODING 237
SWIDTH 208 0
DWIDTH 4 0
BBX 4 14 1 0
BITMAP
02E3
0A60
1700
0000
6900
6900
6900
6900
6900
6900
6900
6900
6900
6900
ENDCHAR
STARTCHAR icircumflex
ENCODING 238
SWIDTH 210 0
DWIDTH 4 0
BBX 4 14 0 0
BITMAP
0AB0
4967
7208
0000
0690
0690
0690
0690
0690
0690
0690
0690
0690
0690
ENDCHAR
STARTCHAR idieresis
ENCODING 239
SWIDTH 210 0
DWIDTH 4 0
BBX 5 14 0 0
BITMAP
E00B30
E00C30
C00930
000000
069000
069000
069000
069000
069000
069000
069000
069000
069000
069000
ENDCHAR
STARTCHAR eth
ENCODING 240
SWIDTH 488 0
DWIDTH 10 0
BBX 8 14 1 0
BITMAP
01700250
00A73C30
001CC200
007AC400
06802D40
000003D1
07DDDBA6
6C1003D8
A5000088
B4000088
B4000088
A5000087
6B1002D3
08DDDD60
ENDCHAR
STARTCHAR ntilde
ENCODING 241
SWIDTH 507 0
DWIDTH 10 0
BBX 8 14 1 0
BITMAP
0180CD10
00A57730
00AC1630
00000000
78BDDD90
8D2001B7
8800005A
8800004B
8800004B
8800004B
8800004B
8800004B
8800004B
7700004B
ENDCHAR
STARTCHAR ograve
ENCODING 242
SWIDTH 496 0
DWIDTH 10 0
BBX 8 14 1 0
BITMAP
02E30000
005C0000
00062000
00000000
08DDDD70
6B1001C5
A5000069
B400005A
B400005A
B400005A
B400005A
A5000069
6B1001C5
08DDDD70
ENDCHAR
STARTCHAR oacute
ENCODING 243
SWIDTH 496 0
DWIDTH 10 0
BBX 8 14 1 0
BITMAP
00004E20
0000C400
00036000
00000000
08DDDD70
6B1001C5
A5000069
B400005A
B400005A
B400005A
B400005A
A5000069
6B1001C5
08DDDD70
ENDCHAR
STARTCHAR ocircumflex
ENCODING 244
SWIDTH 496 0
DWIDTH 10 0
BBX 8 14 1 0
BITMAP
000BA000
00678500
00801700
00000000
08DDDD70
6B1001C5
A5000069
B400005A
B400005A
B400005A
B400005A
A5000069
6B1001C5
08DDDD70
ENDCHAR
STARTCHAR otilde
ENCODING 245
SWIDTH 496 0
DWIDTH 10 0
BBX 8 14 1 0
BITMAP
0361DB00
03774910
00CB0810
00000000
08DDDD70
6B1001C5
A5000069
B400005A
B400005A
B400005A
B400005A
A5000069
6B1001C5
08DDDD70
ENDCHAR
STARTCHAR odieresis
ENCODING 246
SWIDTH 496 0
DWIDTH 10 0
BBX 8 14 1 0
BITMAP
02C00D10
02C00E10
02A00B10
00000000
08DDDD70
6B1001C5
A5000069
B400005A
B400005A
B400005A
B400005A
A5000069
6B1001C5
08DDDD70
ENDCHAR
STARTCHAR divide
ENCODING 247
SWIDTH 510 0
DWIDTH 10 0
BBX 8 8 1 2
BITMAP
00048000
00046000
00000000
6DDDDDD9
00000000
00000000
00048000
00046000
ENDCHAR
STARTCHAR oslash
ENCODING 248
SWIDTH 521 0
DWIDTH 10 0
BBX 10 10 0 0
BITMAP
005DDDE915
02D20009D6
0690000AD0
078000B7D0
07801B52D0
0781B502D0
079B4002D0
06E40003C0
1CD2000990
336DDDDA10
ENDCHAR
STARTCHAR ugrave
ENCODING 249
SWIDTH 507 0
DWIDTH 10 0
BBX 8 14 1 0
BITMAP
01D40000
004C0000
00053000
00000000
96000059
9600005A
9600005A
9600005A
9600005A
9600005A
9600005A
8700006A
5C1001CA
07DDDC89
ENDCHAR
STARTCHAR uacute
ENCODING 250
SWIDTH 507 0
DWIDTH 10 0
BBX 8 14 1 0
BITMAP
00003E20
0000C400
00026000
00000000
96000059
9600005A
9600005A
9600005A
9600005A
9600005A
9600005A
8700006A
5C1001CA
07DDDC89
ENDCHAR
STARTCHAR ucircumflex
ENCODING 251
SWIDTH 507 0
DWIDTH 10 0
BBX 8 14 1 0
BITMAP
000AB000
00587600
00811800
00000000
96000059
9600005A
9600005A
9600005A
9600005A
9600005A
9600005A
8700006A
5C1001CA
07DDDC89
ENDCHAR
STARTCHAR udieresis
ENCODING 252
SWIDTH 507 0
DWIDTH 10 0
BBX 8 14 1 0
BITMAP
01D00C20
01D00D20
01B00A20
00000000
96000059
9600005A
9600005A
9600005A
9600005A
9600005A
9600005A
8700006A
5C1001CA
07DDDC89
ENDCHAR
STARTCHAR yacute
ENCODING 253
SWIDTH 459 0
DWIDTH 9 0
BBX 9 17 0 -3
BITMAP
000008A000
00003D1000
0000620000
0000000000
5A00000780
0E10000D30
0960003D00
04B0008700
00D200D200
008704C000
003C097000
000D3E2000
0008CB0000
0001D60000
0001E10000
000A800000
0DE9000000
ENDCHAR
STARTCHAR thorn
ENCODING 254
SWIDTH 508 0
DWIDTH 10 0
BBX 8 17 1 -3
BITMAP
68000000
69000000
69000000
69000000
69ADDD91
6E300098
6900003C
6900002D
6900002D
6900002D
6900002D
6900003C
6E300098
6ABDDDA1
69000000
69000000
68000000
ENDCHAR
STARTCHAR ydieresis
ENCODING 255
SWIDTH 459 0
DWIDTH 9 0
BBX 9 17 0 -3
BITMAP
007604A000
008704B000
0066039000
0000000000
5A00000780
0E10000D30
0960003D00
04B0008700
00D200D200
008704C000
003C097000
000D3E2000
0008CB0000
0001D60000
0001E10000
000A800000
0DE9000000
ENDCHAR
STARTCHAR Amacron
ENCODING 256
SWIDTH 532 0
DWIDTH 11 0
BBX 10 16 0 0
BITMAP
000CDDD700
0000000000
0000000000
00007F2000
0000CB7000
0002D4C000
000790E200
000C50A600
002F105B00
006B001F10
00B7000C60
01F20007B0
06FDDDDEF1
0A700000D5
1E2000007A
5B0000002E
ENDCHAR
STARTCHAR amacron
ENCODING 257
SWIDTH 502 0
DWIDTH 10 0
BBX 8 13 1 0
BITMAP
009DDDA0
00000000
00000000
08DDDDE8
6B100078
A5000078
B4000078
B4000078
B4000078
B4000078
A5000088
6B1002D8
08DDDC88
ENDCHAR
STARTCHAR Abreve
ENCODING 258
SWIDTH 532 0
DWIDTH 11 0
BBX 10 17 0 0
BITMAP
0005003200
0009308300
0002997000
0000000000
00007F2000
0000CB7000
0002D4C000
000790E200
000C50A600
002F105B00
006B001F10
00B7000C60
01F20007B0
06FDDDDEF1
0A700000D5
1E2000007A
5B0000002E
ENDCHAR
STARTCHAR abreve
ENCODING 259
SWIDTH 502 0
DWIDTH 10 0
BBX 8 14 1 0
BITMAP
00820550
00650830
00189700
00000000
08DDDDE8
6B100078
A5000078
B4000078
B4000078
B4000078
B4000078
A5000088
6B1002D8
08DDDC88
ENDCHAR
STARTCHAR Aogonek
ENCODING 260
SWIDTH 532 0
DWIDTH 11 0
BBX 10 15 0 -2
BITMAP
00007F2000
0000CB7000
0002D4C000
000790E200
000C50A600
002F105B00
006B001F10
00B7000C60
01F20007B0
06FDDDDEF1
0A700000D5
1E2000007A
5B0000002E
0000000081
00000005D6
ENDCHAR
STARTCHAR aogonek
ENCODING 261
SWIDTH 502 0
DWIDTH 10 0
BBX 8 12 1 -2
BITMAP
08DDDDE8
6B100078
A5000078
B4000078
B4000078
B4000078
B4000078
A5000088
6B1002D8
08DDDC98
00000360
00000AB1
ENDCHAR
STARTCHAR Cacute
ENCODING 262
SWIDTH 542 0
DWIDTH 11 0
BBX 9 17 1 0
BITMAP
0000055000
00002D2000
0000A40000
0000000000
06DDDDD700
3D20001C50
7800000780
8800000590
8800000010
8800000000
8800000000
8800000000
8800000010
8800000590
7800000680
3D20001C50
06DDDDD700
ENDCHAR
STARTCHAR cacute
ENCODING 263
SWIDTH 394 0
DWIDTH 8 0
BBX 7 14 1 0
BITMAP
0000B700
0005B000
00071000
00000000
08DDDD20
6B100000
A5000000
B4000000
B4000000
B4000000
B4000000
A5000000
6B100000
08DDDD20
ENDCHAR
STARTCHAR Cdotaccent
ENCODING 266
SWIDTH 542 0
DWIDTH 11 0
BBX 9 17 1 0
BITMAP
0000200000
0000E10000
0000E10000
0000000000
06DDDDD700
3D20001C50
7800000780
8800000590
8800000010
8800000000
8800000000
8800000000
8800000010
8800000590
7800000680
3D20001C50
06DDDDD700
ENDCHAR
STARTCHAR cdotaccent
ENCODING 267
SWIDTH 394 0
DWIDTH 8 0
BBX 7 14 1 0
BITMAP
000D1000
000E1000
00020000
00000000
08DDDD20
6B100000
A5000000
B4000000
B4000000
B4000000
B4000000
A5000000
6B100000
08DDDD20
ENDCHAR
STARTCHAR Ccaron
ENCODING 268
SWIDTH 542 0
DWIDTH 11 0
BBX 9 17 1 0
BITMAP
0024033000
000B1B1000
0004C60000
0000000000
06DDDDD700
3D20001C50
7800000780
8800000590
8800000010
8800000000
8800000000
8800000000
8800000010
8800000590
7800000680
3D20001C50
06DDDDD700
ENDCHAR
STARTCHAR ccaron
ENCODING 269
SWIDTH 394 0
DWIDTH 8 0
BBX 7 14 1 0
BITMAP
01B06600
0076B000
00094000
00000000
08DDDD20
6B100000
A5000000
B4000000
B4000000
B4000000
B4000000
A5000000
6B100000
08DDDD20
ENDCHAR
STARTCHAR Dcaron
ENCODING 270
SWIDTH 557 0
DWIDTH 11 0
BBX 9 17 1 0
BITMAP
0034042000
001C1B0000
0005C40000
0000000000
4FDDDDD700
4B00001C50
4B00000690
4B000005A0
4B000005A0
4B000005A0
4B000005A0
4B000005A0
4B000005A0
4B000005A0
4B00000690
4B00001C50
4FDDDDD700
ENDCHAR
STARTCHAR dcaron
ENCODING 271
SWIDTH 534 0
DWIDTH 11 0
BBX 10 14 1 0
BITMAP
000000683C
000000694C
000000694A
0000006946
08EFFB8932
6C2003D900
A500007900
B400006900
B400006900
B400006900
B400006900
A500007900
6B1002D900
08DDDC8800
ENDCHAR
STARTCHAR Dcroat
ENCODING 272
SWIDTH 514 0
DWIDTH 10 0
BBX 10 13 0 0
BITMAP
03FDDDDD80
04C00001B6
04C000005A
04C000004B
04C000004B
6EFDDD104B
04C000004B
04C000004B
04C000004B
04C000004B
04C000005A
04C00001B6
03FDDDDD80
ENDCHAR
STARTCHAR dcroat
ENCODING 273
SWIDTH 539 0
DWIDTH 11 0
BBX 10 14 1 0
BITMAP
0000006800
0000006900
000DDDEFD3
0000006900
0000006900
07DDDB8900
5C1003D900
A500007900
B400006900
B400006900
B400006900
A500007900
6B1002D900
08DDDC8800
ENDCHAR
STARTCHAR Emacron
ENCODING 274
SWIDTH 481 0
DWIDTH 10 0
BBX 8 16 1 0
BITMAP
03DDDD20
00000000
00000000
4FDDDDD3
4B000000
4B000000
4B000000
4B000000
4B000000
4FDDDD90
4B000000
4B000000
4B000000
4B000000
4B000000
4FDDDDD3
ENDCHAR
STARTCHAR emacron
ENCODING 275
SWIDTH 492 0
DWIDTH 10 0
BBX 8 13 1 0
BITMAP
03DDDD30
00000000
00000000
08DDDD70
6C1001C4
A5000068
B400005A
B500006A
BEDDDDE9
B5000000
A5000000
6A100000
08DDDDD6
ENDCHAR
STARTCHAR Ebreve
ENCODING 276
SWIDTH 481 0
DWIDTH 10 0
BBX 8 17 1 0
BITMAP
00500500
00B00A00
00599300
00000000
4FDDDDD3
4B000000
4B000000
4B000000
4B000000
4B000000
4FDDDD90
4B000000
4B000000
4B000000
4B000000
4B000000
4FDDDDD3
ENDCHAR
STARTCHAR ebreve
ENCODING 277
SWIDTH 492 0
DWIDTH 10 0
BBX 8 14 1 0
BITMAP
01A00A00
00B01A00
00499300
00000000
08DDDD70
6C1001C4
A5000068
B400005A
B500006A
BEDDDDE9
B5000000
A5000000
6A100000
08DDDDD6
ENDCHAR
STARTCHAR Edotaccent
ENCODING 278
SWIDTH 496 0
DWIDTH 10 0
BBX 8 17 1 0
BITMAP
00011000
00077000
00077000
00000000
4FDDDDD3
4B000000
4B000000
4B000000
4B000000
4B000000
4FDDDD90
4B000000
4B000000
4B000000
4B000000
4B000000
4FDDDDD3
ENDCHAR
STARTCHAR edotaccent
ENCODING 279
SWIDTH 492 0
DWIDTH 10 0
BBX 8 14 1 0
BITMAP
00077000
00087000
00011000
00000000
08DDDD70
6C1001C4
A5000068
B400005A
B500006A
BEDDDDE9
B5000000
A5000000
6A100000
08DDDDD6
ENDCHAR
STARTCHAR Eogonek
ENCODING 280
SWIDTH 481 0
DWIDTH 10 0
BBX 8 15 1 -2
BITMAP
4FDDDDD3
4B000000
4B000000
4B000000
4B000000
4B000000
4FDDDD90
4B000000
4B000000
4B000000
4B000000
4B000000
4FDDDDD3
00002700
00009C20
ENDCHAR
STARTCHAR eogonek
ENCODING 281
SWIDTH 492 0
DWIDTH 10 0
BBX 8 12 1 -2
BITMAP
08DDDD70
6C1001C4
A5000068
B400005A
B500006A
BEDDDDE9
B5000000
A5000000
6A100000
08DDDDD6
00002700
00008C20
ENDCHAR
STARTCHAR Ecaron
ENCODING 282
SWIDTH 481 0
DWIDTH 10 0
BBX 8 17 1 0
BITMAP
00600600
00676700
000AB000
00000000
4FDDDDD3
4B000000
4B000000
4B000000
4B000000
4B000000
4FDDDD90
4B000000
4B000000
4B000000
4B000000
4B000000
4FDDDDD3
ENDCHAR
STARTCHAR ecaron
ENCODING 283
SWIDTH 492 0
DWIDTH 10 0
BBX 8 14 1 0
BITMAP
00B22A00
003AA300
00076000
00000000
08DDDD70
6C1001C4
A5000068
B400005A
B500006A
BEDDDDE9
B5000000
A5000000
6A100000
08DDDDD6
ENDCHAR
STARTCHAR Gcircumflex
ENCODING 284
SWIDTH 539 0
DWIDTH 11 0
BBX 9 17 1 0
BITMAP
0002710000
000A780000
00580B2000
0000000000
06DDDDC400
3D20003E10
7800000C40
8800000930
8800000000
8800000000
88005DDE40
8800000B40
8800000B40
8800000B40
7800000C30
3D20004D10
06DDDDC300
ENDCHAR
STARTCHAR gcircumflex
ENCODING 285
SWIDTH 506 0
DWIDTH 10 0
BBX 8 17 1 -3
BITMAP
0006D300
001B2B00
00440720
00000000
07DDDDE9
4C10006A
8700006A
9600006A
9600006A
9600006A
9600006A
8700007A
4D2003DA
06CDDB8A
00000069
000001C5
0DDDDD70
ENDCHAR
STARTCHAR Gbreve
ENCODING 286
SWIDTH 539 0
DWIDTH 11 0
BBX 9 17 1 0
BITMAP
0041023000
0074074000
0019980000
0000000000
06DDDDC400
3D20003E10
7800000C40
8800000930
8800000000
8800000000
88005DDE40
8800000B40
8800000B40
8800000B40
7800000C30
3D20004D10
06DDDDC300
ENDCHAR
STARTCHAR gbreve
ENCODING 287
SWIDTH 506 0
DWIDTH 10 0
BBX 8 17 1 -3
BITMAP
00640280
00470560
00089800
00000000
07DDDDE9
4C10006A
8700006A
9600006A
9600006A
9600006A
9600006A
8700007A
4D2003DA
06CDDB8A
00000069
000001C5
0DDDDD70
ENDCHAR
STARTCHAR Gdotaccent
ENCODING 288
SWIDTH 539 0
DWIDTH 11 0
BBX 9 17 1 0
BITMAP
0000200000
0002D00000
0002D00000
0000000000
06DDDDC400
3D20003E10
7800000C40
8800000930
8800000000
8800000000
88005DDE40
8800000B40
8800000B40
8800000B40
7800000C30
3D20004D10
06DDDDC300
ENDCHAR
STARTCHAR gdotaccent
ENCODING 289
SWIDTH 506 0
DWIDTH 10 0
BBX 8 17 1 -3
BITMAP
0000E000
0000F000
00002000
00000000
07DDDDE9
4C10006A
8700006A
9600006A
9600006A
9600006A
9600006A
8700007A
4D2003DA
06CDDB8A
00000069
000001C5
0DDDDD70
ENDCHAR
STARTCHAR uni0122
ENCODING 290
SWIDTH 539 0
DWIDTH 11 0
BBX 9 18 1 -5
BITMAP
06DDDDC400
3D20003E10
7800000C40
8800000930
8800000000
8800000000
88005DDE40
8800000B40
8800000B40
8800000B40
7800000C30
3D20004D10
06DDDDC300
0000000000
0000C40000
0000C30000
0000B00000
0000600000
ENDCHAR
STARTCHAR uni0123
ENCODING 291
SWIDTH 506 0
DWIDTH 10 0
BBX 8 18 1 -3
BITMAP
00006000
0000B000
0001E000
0001E000
00000000
07DDDDE9
4C10006A
8700006A
9600006A
9600006A
9600006A
9600006A
8700007A
4D2003DA
06CDDB8A
00000069
000001C5
0DDDDD70
ENDCHAR
STARTCHAR hcircumflex
ENCODING 293
SWIDTH 507 0
DWIDTH 10 0
BBX 8 15 1 0
BITMAP
0005B400
771B1B10
88220220
88000000
88000000
89BDDD90
8D2001B7
8800005A
8800004B
8800004B
8800004B
8800004B
8800004B
8800004B
7700004B
ENDCHAR
STARTCHAR Hbar
ENCODING 294
SWIDTH 523 0
DWIDTH 10 0
BBX 12 13 0 0
BITMAP
03C000003C00
03C000003C00
04C000004C00
6EFDDDDDEFD1
03C000003C00
03C000003C00
03FDDDDDEC00
03C000003C00
03C000003C00
03C000003C00
03C000003C00
03C000003C00
03C000003C00
ENDCHAR
STARTCHAR hbar
ENCODING 295
SWIDTH 544 0
DWIDTH 11 0
BBX 10 14 0 0
BITMAP
00C3000000
00C3000000
6DFEDDA000
00C3000000
00C3000000
00C6CDDC50
00CB1003E2
00C4000096
00C3000087
00C3000087
00C3000087
00C3000087
00C3000087
00C3000087
ENDCHAR
STARTCHAR Itilde
ENCODING 296
SWIDTH 230 0
DWIDTH 5 0
BBX 5 17 0 0
BITMAP
808D20
A2A460
7D3260
000000
03C000
03C000
03C000
03C000
03C000
03C000
03C000
03C000
03C000
03C000
03C000
03C000
03C000
ENDCHAR
STARTCHAR itilde
ENCODING 297
SWIDTH 210 0
DWIDTH 4 0
BBX 6 14 -1 0
BITMAP
180CD1
0A5773
0AC153
000000
006900
006900
006900
006900
006900
006900
006900
006900
006900
006900
ENDCHAR
STARTCHAR Imacron
ENCODING 298
SWIDTH 230 0
DWIDTH 5 0
BBX 5 16 0 0
BITMAP
CDDD70
000000
000000
03C000
03C000
03C000
03C000
03C000
03C000
03C000
03C000
03C000
03C000
03C000
03C000
03C000
ENDCHAR
STARTCHAR imacron
ENCODING 299
SWIDTH 208 0
DWIDTH 4 0
BBX 6 13 -1 0
BITMAP
2DDDD4
000000
000000
006900
006900
006900
006900
006900
006900
006900
006900
006900
006900
ENDCHAR
STARTCHAR Ibreve
ENCODING 300
SWIDTH 231 0
DWIDTH 5 0
BBX 5 17 0 0
BITMAP
500320
930830
299700
000000
03C000
03C000
03C000
03C000
03C000
03C000
03C000
03C000
03C000
03C000
03C000
03C000
03C000
ENDCHAR
STARTCHAR ibreve
ENCODING 301
SWIDTH 211 0
DWIDTH 4 0
BBX 5 14 0 0
BITMAP
A00910
A10A00
299400
000000
069000
069000
069000
069000
069000
069000
069000
069000
069000
069000
ENDCHAR
STARTCHAR Iogonek
ENCODING 302
SWIDTH 230 0
DWIDTH 5 0
BBX 3 15 0 -2
BITMAP
03C0
03C0
03C0
03C0
03C0
03C0
03C0
03C0
03C0
03C0
03C0
03C0
03C0
0810
4D70
ENDCHAR
STARTCHAR iogonek
ENCODING 303
SWIDTH 210 0
DWIDTH 4 0
BBX 3 16 0 -2
BITMAP
0690
0690
0110
0000
0690
0690
0690
0690
0690
0690
0690
0690
0690
0690
1800
6C40
ENDCHAR
STARTCHAR Idotaccent
ENCODING 304
SWIDTH 230 0
DWIDTH 5 0
BBX 2 16 1 0
BITMAP
3C
3C
02
3C
3C
3C
3C
3C
3C
3C
3C
3C
3C
3C
3C
3C
ENDCHAR
STARTCHAR dotlessi
ENCODING 305
SWIDTH 212 0
DWIDTH 4 0
BBX 2 10 1 0
BITMAP
59
69
69
69
69
69
69
69
69
59
ENDCHAR
STARTCHAR IJ
ENCODING 306
SWIDTH 721 0
DWIDTH 14 0
BBX 12 13 1 0
BITMAP
2C000000002D
3C000000002D
3C000000002D
3C000000002D
3C000000002D
3C000000002D
3C000000002D
3C000000002D
3C008300002D
3C00B400002D
3C00A500003C
3C006B100098
2C0008DDDD91
ENDCHAR
STARTCHAR ij
ENCODING 307
SWIDTH 419 0
DWIDTH 8 0
BBX 6 17 1 -3
BITMAP
69003B
69003C
110001
000000
69003B
69003C
69003C
69003C
69003C
69003C
69003C
69003C
69003C
69003C
00004B
0001B7
00BD90
ENDCHAR
STARTCHAR Jcircumflex
ENCODING 308
SWIDTH 494 0
DWIDTH 10 0
BBX 10 17 0 0
BITMAP
0000000630
00000049B1
000000B158
0000000000
0000000950
0000000960
0000000960
0000000960
0000000960
0000000960
0000000960
0000000960
2800000960
4C00000960
3D00000A50
0D40003E10
03CDDDC400
ENDCHAR
STARTCHAR jcircumflex
ENCODING 309
SWIDTH 209 0
DWIDTH 4 0
BBX 5 17 -1 -3
BITMAP
00AB00
049660
071080
000000
006900
006900
006900
006900
006900
006900
006900
006900
006900
006900
007800
01D400
DD7000
ENDCHAR
STARTCHAR uni0136
ENCODING 310
SWIDTH 530 0
DWIDTH 11 0
BBX 9 18 1 -5
BITMAP
4A00001D30
4B0000B800
4B0007C000
4B003E2000
4B01D50000
4B0AA00000
4B6DD00000
4CD1980000
4E301D3000
4B0004D000
4B00009800
4B00001D30
4A000004C0
0000530000
0000A60000
0000A40000
0000900000
0000300000
ENDCHAR
STARTCHAR uni0137
ENCODING 311
SWIDTH 431 0
DWIDTH 9 0
BBX 8 19 1 -5
BITMAP
77000000
88000000
88000000
88000000
880005C0
88001E30
8800A700
8805C000
881E3000
880C5000
8802D200
88006B00
88000B70
770002D2
00000000
000B4000
000C4000
000B0000
00060000
ENDCHAR
STARTCHAR Lacute
ENCODING 313
SWIDTH 451 0
DWIDTH 9 0
BBX 8 17 1 0
BITMAP
00630000
05C10000
0B200000
00000000
4A000000
4B000000
4B000000
4B000000
4B000000
4B000000
4B000000
4B000000
4B000000
4B000000
4B000000
4B000000
4FDDDDD6
ENDCHAR
STARTCHAR lacute
ENCODING 314
SWIDTH 207 0
DWIDTH 4 0
BBX 4 18 1 0
BITMAP
0072
06C0
0D30
2400
6900
6900
6900
6900
6900
6900
6900
6900
6900
6900
6900
6900
6900
6900
ENDCHAR
STARTCHAR uni013B
ENCODING 315
SWIDTH 451 0
DWIDTH 9 0
BBX 8 18 1 -5
BITMAP
4A000000
4B000000
4B000000
4B000000
4B000000
4B000000
4B000000
4B000000
4B000000
4B000000
4B000000
4B000000
4FDDDDD6
00000000
00069000
00079000
00075000
00061000
ENDCHAR
STARTCHAR uni013C
ENCODING 316
SWIDTH 211 0
DWIDTH 4 0
BBX 2 19 1 -5
BITMAP
69
69
69
69
69
69
69
69
69
69
69
69
69
69
00
69
69
65
61
ENDCHAR
STARTCHAR Lcaron
ENCODING 317
SWIDTH 451 0
DWIDTH 9 0
BBX 8 13 1 0
BITMAP
4A000C30
4B000C30
4B000C20
4B000A00
4B000600
4B000000
4B000000
4B000000
4B000000
4B000000
4B000000
4B000000
4FDDDDD6
ENDCHAR
STARTCHAR lcaron
ENCODING 318
SWIDTH 274 0
DWIDTH 5 0
BBX 5 14 1 0
BITMAP
690D20
690E20
690D10
690A00
690600
690000
690000
690000
690000
690000
690000
690000
690000
690000
ENDCHAR
STARTCHAR Ldot
ENCODING 319
SWIDTH 500 0
DWIDTH 10 0
BBX 8 13 1 0
BITMAP
4B000000
4B000000
4B000000
4B000000
4B000000
4B005800
4B007A00
4B006900
4B000000
4B000000
4B000000
4B000000
4FDDDDD6
ENDCHAR
STARTCHAR ldot
ENCODING 320
SWIDTH 314 0
DWIDTH 6 0
BBX 5 14 1 0
BITMAP
590000
6A0000
6A0000
6A0000
6A0000
6A0000
6A0950
6A0B60
6A0A60
6A0000
6A0000
6A0000
6A0000
590000
ENDCHAR
STARTCHAR Lslash
ENCODING 321
SWIDTH 504 0
DWIDTH 10 0
BBX 9 13 0 0
BITMAP
02C0000000
02D0000000
02D0100000
02D7C10000
06F7100000
9BD0000000
22D0000000
02D0000000
02D0000000
02D0000000
02D0000000
02D0000000
02FDDDDD80
ENDCHAR
STARTCHAR lslash
ENCODING 322
SWIDTH 296 0
DWIDTH 6 0
BBX 6 14 0 0
BITMAP
008600
008700
008700
008700
0089A5
01BD40
4DC700
318700
008700
008700
008700
008700
008700
008600
ENDCHAR
STARTCHAR Nacute
ENCODING 323
SWIDTH 579 0
DWIDTH 12 0
BBX 9 17 1 0
BITMAP
0000017100
0000099000
00003A0000
0000000000
4D000001D0
4F700001E0
4DE10001E0
4B890001E0
4B1D3001E0
4B05B001E0
4B00C501E0
4B003D01E0
4B000971E0
4B0001D3E0
4B00006BE0
4B00000CE0
4A000004D0
ENDCHAR
STARTCHAR nacute
ENCODING 324
SWIDTH 507 0
DWIDTH 10 0
BBX 8 14 1 0
BITMAP
00002E30
0000A600
00017000
00000000
78BDDD90
8D2001B7
8800005A
8800004B
8800004B
8800004B
8800004B
8800004B
8800004B
7700004B
ENDCHAR
STARTCHAR uni0145
ENCODING 325
SWIDTH 579 0
DWIDTH 12 0
BBX 9 18 1 -5
BITMAP
4D000001D0
4F700001E0
4DE10001E0
4B890001E0
4B1D3001E0
4B05B001E0
4B00C501E0
4B003D01E0
4B000971E0
4B0001D3E0
4B00006BE0
4B00000CE0
4A000004D0
0000000000
0000A50000
0000A40000
0000A10000
0000600000
ENDCHAR
STARTCHAR uni0146
ENCODING 326
SWIDTH 505 0
DWIDTH 10 0
BBX 8 15 1 -5
BITMAP
78BDDD90
8D2001B7
8800005A
8800004B
8800004B
8800004B
8800004B
8800004B
8800004B
7700004B
00000000
0006A000
00069000
00065000
00051000
ENDCHAR
STARTCHAR Ncaron
ENCODING 327
SWIDTH 579 0
DWIDTH 12 0
BBX 9 17 1 0
BITMAP
0006015000
0009494000
0001B90000
0000000000
4D000001D0
4F700001E0
4DE10001E0
4B890001E0
4B1D3001E0
4B05B001E0
4B00C501E0
4B003D01E0
4B000971E0
4B0001D3E0
4B00006BE0
4B00000CE0
4A000004D0
ENDCHAR
STARTCHAR ncaron
ENCODING 328
SWIDTH 507 0
DWIDTH 10 0
BBX 8 14 1 0
BITMAP
00941B00
001B8400
00058000
00000000
78BDDD90
8D2001B7
8800005A
8800004B
8800004B
8800004B
8800004B
8800004B
8800004B
7700004B
ENDCHAR
STARTCHAR Eng
ENCODING 330
SWIDTH 519 0
DWIDTH 10 0
BBX 9 16 1 -3
BITMAP
4D100001D0
4F800001E0
4DE20001E0
4B7A0001E0
4B1D3001E0
4B05C001E0
4B00B601E0
4B003D11E0
4B000981E0
4B0001D3E0
4B00006BE0
4B00000CE0
4B000004E0
00000002D0
0000000990
000009EA10
ENDCHAR
STARTCHAR eng
ENCODING 331
SWIDTH 507 0
DWIDTH 10 0
BBX 8 13 1 -3
BITMAP
78BDDD80
8D2001B6
8800005A
8800004B
8800004B
8800004B
8800004B
8800004B
8800004B
7700004B
0000005A
000001B6
0000BD80
ENDCHAR
STARTCHAR Omacron
ENCODING 332
SWIDTH 553 0
DWIDTH 11 0
BBX 9 16 1 0
BITMAP
009DDDA000
0000000000
0000000000
06DDDDD600
3D20002D40
7800000780
8800000780
8800000780
8800000780
8800000780
8800000780
8800000780
8800000780
7800000780
3D20002D40
06DDDDD600
ENDCHAR
STARTCHAR omacron
ENCODING 333
SWIDTH 496 0
DWIDTH 10 0
BBX 8 13 1 0
BITMAP
03DDDD20
00000000
00000000
08DDDD70
6B1001C5
A5000069
B400005A
B400005A
B400005A
B400005A
A5000069
6B1001C5
08DDDD70
ENDCHAR
STARTCHAR Obreve
ENCODING 334
SWIDTH 553 0
DWIDTH 11 0
BBX 9 17 1 0
BITMAP
0032014000
0056056000
0008991000
0000000000
06DDDDD600
3D20002D40
7800000780
8800000780
8800000780
8800000780
8800000780
8800000780
8800000780
8800000780
7800000780
3D20002D40
06DDDDD600
ENDCHAR
STARTCHAR obreve
ENCODING 335
SWIDTH 496 0
DWIDTH 10 0
BBX 8 14 1 0
BITMAP
00A00A00
00B00A00
00499300
00000000
08DDDD70
6B1001C5
A5000069
B400005A
B400005A
B400005A
B400005A
A5000069
6B1001C5
08DDDD70
ENDCHAR
STARTCHAR Ohungarumlaut
ENCODING 336
SWIDTH 553 0
DWIDTH 11 0
BBX 9 17 1 0
BITMAP
0000B25700
000681C100
000B065000
0000000000
06DDDDD600
3D20002D40
7800000780
8800000780
8800000780
8800000780
8800000780
8800000780
8800000780
8800000780
7800000780
3D20002D40
06DDDDD600
ENDCHAR
STARTCHAR ohungarumlaut
ENCODING 337
SWIDTH 496 0
DWIDTH 10 0
BBX 8 14 1 0
BITMAP
000691D2
001C1760
00540900
00000000
08DDDD70
6B1001C5
A5000069
B400005A
B400005A
B400005A
B400005A
A5000069
6B1001C5
08DDDD70
ENDCHAR
STARTCHAR OE
ENCODING 338
SWIDTH 775 0
DWIDTH 16 0
BBX 13 13 1 0
BITMAP
05DDDDFEDDDDD0
3D200096000000
69000096000000
78000096000000
78000096000000
78000096000000
7800009EDDDD50
78000096000000
78000096000000
78000096000000
69000096000000
3D200096000000
05DDDDFEDDDDD0
ENDCHAR
STARTCHAR oe
ENCODING 339
SWIDTH 812 0
DWIDTH 16 0
BBX 14 10 1 0
BITMAP
08DDDD63CDDDA1
6B1001CD300099
A500006B00002D
B400006A00001E
B400006A00001E
B400006FDDDDED
B400006A000000
A500006A000000
6B1001CD200000
08DDDD64CDDDDA
ENDCHAR
STARTCHAR Racute
ENCODING 340
SWIDTH 534 0
DWIDTH 11 0
BBX 9 17 1 0
BITMAP
0000171000
0000A80000
0004A00000
0000000000
4FDDDEC300
4B00004D00
4B00000C30
4B00000B40
4B00000B40
4B00000C30
4B00005D00
4FDDDFB200
4B000A6000
4B0003D000
4B0000A600
4B00003D00
4A00000A60
ENDCHAR
STARTCHAR racute
ENCODING 341
SWIDTH 313 0
DWIDTH 6 0
BBX 5 14 1 0
BITMAP
004E20
00C400
036000
000000
78AD90
8E3000
890000
880000
880000
880000
880000
880000
880000
770000
ENDCHAR
STARTCHAR uni0156
ENCODING 342
SWIDTH 534 0
DWIDTH 11 0
BBX 9 18 1 -5
BITMAP
4FDDDEC300
4B00004D00
4B00000C30
4B00000B40
4B00000B40
4B00000C30
4B00005D00
4FDDDFB200
4B000A6000
4B0003D000
4B0000A600
4B00003D00
4A00000A60
0000000000
0002D00000
0003C00000
0003800000
0003400000
ENDCHAR
STARTCHAR uni0157
ENCODING 343
SWIDTH 313 0
DWIDTH 6 0
BBX 5 15 1 -5
BITMAP
78AD90
8E3000
890000
880000
880000
880000
880000
880000
880000
770000
000000
780000
870000
830000
600000
ENDCHAR
STARTCHAR Rcaron
ENCODING 344
SWIDTH 534 0
DWIDTH 11 0
BBX 9 17 1 0
BITMAP
0061060000
0057670000
000AB00000
0000000000
4FDDDEC300
4B00004D00
4B00000C30
4B00000B40
4B00000B40
4B00000C30
4B00005D00
4FDDDFB200
4B000A6000
4B0003D000
4B0000A600
4B00003D00
4A00000A60
ENDCHAR
STARTCHAR rcaron
ENCODING 345
SWIDTH 313 0
DWIDTH 6 0
BBX 5 14 1 0
BITMAP
490930
0A5A00
029200
000000
78AD90
8E3000
890000
880000
880000
880000
880000
880000
880000
770000
ENDCHAR
STARTCHAR Sacute
ENCODING 346
SWIDTH 562 0
DWIDTH 11 0
BBX 9 17 1 0
BITMAP
0000055000
00002D2000
0000A40000
0000000000
04CEDDD600
1E30001D40
5B00000780
6A00000450
4C00000000
0CB5100000
006BEC8200
0000039E20
0000000980
4700000690
5A00000780
1E30001C40
04CEDDD700
ENDCHAR
STARTCHAR sacute
ENCODING 347
SWIDTH 427 0
DWIDTH 9 0
BBX 7 14 1 0
BITMAP
0005D100
001D3000
00440000
00000000
4CEDDD00
D5000000
E1000000
A8100000
07D94000
0004AB10
00000A60
00000880
00001B60
BDDDD900
ENDCHAR
STARTCHAR Scircumflex
ENCODING 348
SWIDTH 562 0
DWIDTH 11 0
BBX 9 17 1 0
BITMAP
0000720000
00077B0000
002B085000
0000000000
04CEDDD600
1E30001D40
5B00000780
6A00000450
4C00000000
0CB5100000
006BEC8200
0000039E20
0000000980
4700000690
5A00000780
1E30001C40
04CEDDD700
ENDCHAR
STARTCHAR scircumflex
ENCODING 349
SWIDTH 427 0
DWIDTH 9 0
BBX 7 14 1 0
BITMAP
008C1000
02A48000
06308000
00000000
4CEDDD00
D5000000
E1000000
A8100000
07D94000
0004AB10
00000A60
00000880
00001B60
BDDDD900
ENDCHAR
STARTCHAR uni015E
ENCODING 350
SWIDTH 562 0
DWIDTH 11 0
BBX 9 17 1 -4
BITMAP
04CEDDD600
1E30001D40
5B00000780
6A00000450
4C00000000
0CB5100000
006BEC8200
0000039E20
0000000980
4700000690
5A00000780
1E30001C40
04CEDDD700
0000A20000
0003EB0000
00000A3000
0002DB0000
ENDCHAR
STARTCHAR uni015F
ENCODING 351
SWIDTH 427 0
DWIDTH 9 0
BBX 7 14 1 -4
BITMAP
4CEDDD00
D5000000
E1000000
A8100000
07D93000
0004AB10
00000A60
00000880
00001B60
BDDDEA00
003A0000
009D6000
0001B000
007D6000
ENDCHAR
STARTCHAR Scaron
ENCODING 352
SWIDTH 562 0
DWIDTH 11 0
BBX 9 17 1 0
BITMAP
0024033000
000B1B1000
0003C60000
0000000000
04CEDDD600
1E30001D40
5B00000780
6A00000450
4C00000000
0CB5100000
006BEC8200
0000039E20
0000000980
4700000690
5A00000780
1E30001C40
04CEDDD700
ENDCHAR
STARTCHAR scaron
ENCODING 353
SWIDTH 427 0
DWIDTH 9 0
BBX 7 14 1 0
BITMAP
0750C000
01C76000
00480000
00000000
4CEDDD00
D5000000
E1000000
A8100000
07D94000
0004AB10
00000A60
00000880
00001B60
BDDDD900
ENDCHAR
STARTCHAR uni0162
ENCODING 354
SWIDTH 420 0
DWIDTH 8 0
BBX 8 18 0 -5
BITMAP
8DDEFDDD
0004B000
0004B000
0004B000
0004B000
0004B000
0004B000
0004B000
0004B000
0004B000
0004B000
0004B000
0004A000
00025000
0005B000
00059000
00054000
00020000
ENDCHAR
STARTCHAR uni0163
ENCODING 355
SWIDTH 347 0
DWIDTH 7 0
BBX 7 17 0 -5
BITMAP
00D20000
00D20000
6DFEDC00
00D20000
00D20000
00D20000
00D20000
00D20000
00D20000
00C30000
00990000
0019DD10
00035000
0006A000
00068000
00063000
00030000
ENDCHAR
STARTCHAR Tcaron
ENCODING 356
SWIDTH 420 0
DWIDTH 8 0
BBX 8 17 0 0
BITMAP
00520600
003A3900
0008C100
00000000
8DDEFDDD
0004B000
0004B000
0004B000
0004B000
0004B000
0004B000
0004B000
0004B000
0004B000
0004B000
0004B000
0004A000
ENDCHAR
STARTCHAR tcaron
ENCODING 357
SWIDTH 396 0
DWIDTH 8 0
BBX 8 13 0 0
BITMAP
0040004B
00D2004B
00D20049
6DFEDC46
00D20042
00D20000
00D20000
00D20000
00D20000
00D20000
00C30000
00990000
0019DD10
ENDCHAR
STARTCHAR Tbar
ENCODING 358
SWIDTH 501 0
DWIDTH 10 0
BBX 9 13 0 0
BITMAP
7DDEFDDD20
0003C00000
0003C00000
0003C00000
0003C00000
0003C00000
06DEFDD300
0003C00000
0003C00000
0003C00000
0003C00000
0003C00000
0003C00000
ENDCHAR
STARTCHAR tbar
ENCODING 359
SWIDTH 350 0
DWIDTH 7 0
BBX 7 12 0 0
BITMAP
00C20000
00D30000
6DFEDC00
00D20000
00D20000
00D20000
6DFEDC00
00D20000
00D20000
00C30000
00990000
0019DD20
ENDCHAR
STARTCHAR Utilde
ENCODING 360
SWIDTH 552 0
DWIDTH 11 0
BBX 9 17 1 0
BITMAP
00805E5000
0092B19000
004D608000
0000000000
6900000860
6900000870
6900000870
6900000870
6900000870
6900000870
6900000870
6900000870
6900000870
6900000870
5A00000960
2E20002E20
05DDDDD500
ENDCHAR
STARTCHAR utilde
ENCODING 361
SWIDTH 507 0
DWIDTH 10 0
BBX 8 14 1 0
BITMAP
0271DC00
02865810
00CC0710
00000000
96000059
9600005A
9600005A
9600005A
9600005A
9600005A
9600005A
8700006A
5C1001CA
07DDDC89
ENDCHAR
STARTCHAR Umacron
ENCODING 362
SWIDTH 552 0
DWIDTH 11 0
BBX 9 16 1 0
BITMAP
009DDDA000
0000000000
0000000000
6900000860
6900000870
6900000870
6900000870
6900000870
6900000870
6900000870
6900000870
6900000870
6900000870
5A00000960
2E20002E20
05DDDDD500
ENDCHAR
STARTCHAR umacron
ENCODING 363
SWIDTH 507 0
DWIDTH 10 0
BBX 8 13 1 0
BITMAP
02DDDD30
00000000
00000000
96000059
9600005A
9600005A
9600005A
9600005A
9600005A
9600005A
8700006A
5C1001CA
07DDDC89
ENDCHAR
STARTCHAR Ubreve
ENCODING 364
SWIDTH 552 0
DWIDTH 11 0
BBX 9 17 1 0
BITMAP
0032014000
0056056000
0008991000
0000000000
6900000860
6900000870
6900000870
6900000870
6900000870
6900000870
6900000870
6900000870
6900000870
6900000870
5A00000960
2E20002E20
05DDDDD500
ENDCHAR
STARTCHAR ubreve
ENCODING 365
SWIDTH 507 0
DWIDTH 10 0
BBX 8 14 1 0
BITMAP
00A00A00
00B00B00
00399400
00000000
96000059
9600005A
9600005A
9600005A
9600005A
9600005A
9600005A
8700006A
5C1001CA
07DDDC89
ENDCHAR
STARTCHAR Uring
ENCODING 366
SWIDTH 552 0
DWIDTH 11 0
BBX 9 17 1 0
BITMAP
000AEA0000
0019092000
001A192000
0009D90000
6900000860
6900000870
6900000870
6900000870
6900000870
6900000870
6900000870
6900000870
6900000870
6900000870
5A00000960
2E20002E20
05DDDDD500
ENDCHAR
STARTCHAR uring
ENCODING 367
SWIDTH 507 0
DWIDTH 10 0
BBX 8 15 1 0
BITMAP
008DC100
00A05400
00A05400
008DC100
00000000
96000059
9600005A
9600005A
9600005A
9600005A
9600005A
9600005A
8700006A
5C1001CA
07DDDC89
ENDCHAR
STARTCHAR Uhungarumlaut
ENCODING 368
SWIDTH 552 0
DWIDTH 11 0
BBX 9 17 1 0
BITMAP
0001B16600
000771C100
001A074000
0000000000
6900000860
6900000870
6900000870
6900000870
6900000870
6900000870
6900000870
6900000870
6900000870
6900000870
5A00000960
2E20002E20
05DDDDD500
ENDCHAR
STARTCHAR uhungarumlaut
ENCODING 369
SWIDTH 507 0
DWIDTH 10 0
BBX 8 14 1 0
BITMAP
000691D2
001C1770
00540900
00000000
96000059
9600005A
9600005A
9600005A
9600005A
9600005A
9600005A
8700006A
5C1001CA
07DDDC89
ENDCHAR
STARTCHAR Uogonek
ENCODING 370
SWIDTH 552 0
DWIDTH 11 0
BBX 9 15 1 -2
BITMAP
6900000860
6900000870
6900000870
6900000870
6900000870
6900000870
6900000870
6900000870
6900000870
6900000870
5A00000960
2E20002E20
05DDDDD500
0001800000
0006D40000
ENDCHAR
STARTCHAR uogonek
ENCODING 371
SWIDTH 503 0
DWIDTH 10 0
BBX 8 12 1 -2
BITMAP
96000059
9600005A
9600005A
9600005A
9600005A
9600005A
9600005A
8700006A
5C1001CA
07DDDC99
00000280
000008B2
ENDCHAR
STARTCHAR Wcircumflex
ENCODING 372
SWIDTH 795 0
DWIDTH 16 0
BBX 16 17 0 0
BITMAP
0000000540000000
0000003AB2000000
000000B23A000000
0000000000000000
4C00000C900000E2
1F10001ED00002E0
0D30005AB30006B0
0A60009677000980
06A000D24B000C50
03D002D00E000E10
00E105900B303D00
00C4095007706A00
00870D1003B09600
005A2C0000D1C300
002D680000A5E000
000DB400006BC000
000AE000002F8000
ENDCHAR
STARTCHAR wcircumflex
ENCODING 373
SWIDTH 682 0
DWIDTH 14 0
BBX 14 14 0 0
BITMAP
000001C9000000
0000084A300000
00000802600000
00000000000000
780000C70000D2
3D0001EB0003D0
0E20058D100780
09600949400B40
05A00D05801E00
01E03B01C05A00
00B37700C19600
0077B30085D100
002CD0004CC000
000D90000E7000
ENDCHAR
STARTCHAR Ycircumflex
ENCODING 374
SWIDTH 493 0
DWIDTH 10 0
BBX 10 17 0 0
BITMAP
0000540000
0003AB1000
000B249000
0000000000
5C000001D3
0D400007A0
05B0000D30
00D3006B00
006B00D300
000D35B000
0006AC3000
0000DB0000
0000960000
0000960000
0000960000
0000960000
0000860000
ENDCHAR
STARTCHAR ycircumflex
ENCODING 375
SWIDTH 459 0
DWIDTH 9 0
BBX 9 17 0 -3
BITMAP
0001C80000
00094B2000
0018036000
0000000000
5A00000780
0E10000D30
0960003D00
04B0008700
00D200D200
008704C000
003C097000
000D3E2000
0008CB0000
0001D60000
0001E10000
000A800000
0DE9000000
ENDCHAR
STARTCHAR Ydieresis
ENCODING 376
SWIDTH 493 0
DWIDTH 10 0
BBX 10 17 0 0
BITMAP
002A00B000
003C00E100
003C00E100
0000000000
5C000001D3
0D400007A0
05B0000D30
00D3006B00
006B00D300
000D35B000
0006AC3000
0000DB0000
0000960000
0000960000
0000960000
0000960000
0000860000
ENDCHAR
STARTCHAR Zacute
ENCODING 377
SWIDTH 482 0
DWIDTH 10 0
BBX 9 17 0 0
BITMAP
0000007200
000007A000
00002B1000
0000000000
0CDDDDDE90
0000001D50
0000008B00
000002E300
00000A8000
00004E1000
0000D50000
0007B00000
002E300000
00A9000000
04E1000000
0C60000000
2FDDDDDDA0
ENDCHAR
STARTCHAR zacute
ENCODING 378
SWIDTH 405 0
DWIDTH 8 0
BBX 8 14 0 0
BITMAP
00000C70
00006A00
00008100
00000000
2DDDDDF4
000005D0
00001E30
00009900
0004D100
000D5000
008A0000
03E10000
0C600000
4FDDDDD5
ENDCHAR
STARTCHAR Zdotaccent
ENCODING 379
SWIDTH 482 0
DWIDTH 10 0
BBX 9 17 0 0
BITMAP
0000010000
00004B0000
00004A0000
0000000000
0CDDDDDE90
0000001D50
0000008B00
000002E300
00000A8000
00004E1000
0000D50000
0007B00000
002E300000
00A9000000
04E1000000
0C60000000
2FDDDDDDA0
ENDCHAR
STARTCHAR zdotaccent
ENCODING 380
SWIDTH 405 0
DWIDTH 8 0
BBX 8 14 0 0
BITMAP
0001E000
0001E000
00002000
00000000
2DDDDDF4
000005D0
00001E30
00009900
0004D100
000D5000
008A0000
03E10000
0C600000
4FDDDDD5
ENDCHAR
STARTCHAR Zcaron
ENCODING 381
SWIDTH 482 0
DWIDTH 10 0
BBX 9 17 0 0
BITMAP
0005106000
0004948000
00009B1000
0000000000
0CDDDDDE90
0000001D50
0000008B00
000002E300
00000A8000
00004E1000
0000D50000
0007B00000
002E300000
00A9000000
04E1000000
0C60000000
2FDDDDDDA0
ENDCHAR
STARTCHAR zcaron
ENCODING 382
SWIDTH 405 0
DWIDTH 8 0
BBX 8 14 0 0
BITMAP
00490A30
000A5900
00029200
00000000
2DDDDDF4
000005D0
00001E30
00009900
0004D100
000D5000
008A0000
03E10000
0C600000
4FDDDDD5
ENDCHAR
STARTCHAR florin
ENCODING 402
SWIDTH 494 0
DWIDTH 10 0
BBX 10 17 0 -3
BITMAP
0000002BD6
000000D500
000004B000
0000087000
00000B4000
00000E1000
003DEFDD30
0000690000
0000960000
0000C30000
0000E00000
0003C00000
0006900000
0009600000
000D200000
007B000000
8DA1000000
ENDCHAR
STARTCHAR AEacute
ENCODING 508
SWIDTH 773 0
DWIDTH 15 0
BBX 15 17 0 0
BITMAP
0000000005500000
000000002D200000
00000000A3000000
0000000000000000
0000005FFDDDDD10
000000DB80000000
000006B780000000
00001E4780000000
00007B0780000000
0001E30790000000
0009B007FDDDD700
002F300790000000
00AA000780000000
03FEDDDE80000000
0B90000780000000
4E10000780000000
C5000006FDDDDD10
ENDCHAR
STARTCHAR aeacute
ENCODING 509
SWIDTH 795 0
DWIDTH 16 0
BBX 14 14 1 0
BITMAP
00000002E30000
0000000A600000
00000017000000
00000000000000
09DDDD55DEDD70
000002DD2001B5
00000098000059
00000088000049
08DDDDE8000059
6B10008EDDDDE8
A5000088000000
A5000088000000
6A1002CD200000
08DDDC46DDDDD8
ENDCHAR
STARTCHAR Oslashacute
ENCODING 510
SWIDTH 558 0
DWIDTH 11 0
BBX 10 17 1 0
BITMAP
0000055000
00002D2000
0000A40000
0000000000
05DDDDD782
2D20001DA0
6900002E90
780000B9A0
78000776A0
78003B06A0
7800B206A0
78095006A0
78490006A0
79B10006A0
6F30000690
7E20001C50
A5DEDDD700
ENDCHAR
STARTCHAR oslashacute
ENCODING 511
SWIDTH 521 0
DWIDTH 10 0
BBX 10 14 0 0
BITMAP
000001D500
0000079000
0000080000
0000000000
005DDDE915
02D20009D6
0690000AD0
078000B7D0
07801B52D0
0781B502D0
079B4002D0
06E40003C0
1CD2000990
336DDDDA10
ENDCHAR
STARTCHAR uni0218
ENCODING 536
SWIDTH 562 0
DWIDTH 11 0
BBX 9 18 1 -5
BITMAP
04CEDDD600
1E30001D40
5B00000780
6A00000450
4C00000000
0CB5100000
006BEC8200
0000039E20
0000000980
4700000690
5A00000780
1E30001C40
04CEDDD700
0000000000
0000A50000
0000B50000
0000A10000
0000600000
ENDCHAR
STARTCHAR uni0219
ENCODING 537
SWIDTH 427 0
DWIDTH 9 0
BBX 7 15 1 -5
BITMAP
4CEDDD00
D5000000
E1000000
A8100000
07D94000
0004AB10
00000A60
00000880
00001B60
BDDDD900
00070000
000F1000
000D0000
00090000
00030000
ENDCHAR
STARTCHAR circumflex
ENCODING 710
SWIDTH 326 0
DWIDTH 7 0
BBX 5 3 1 11
BITMAP
08C200
3A3A00
420510
ENDCHAR
STARTCHAR caron
ENCODING 711
SWIDTH 326 0
DWIDTH 7 0
BBX 5 3 1 11
BITMAP
760C10
0B8500
036000
ENDCHAR
STARTCHAR uni02C9
ENCODING 713
SWIDTH 358 0
DWIDTH 7 0
BBX 5 1 1 12
BITMAP
9DDDB0
ENDCHAR
STARTCHAR breve
ENCODING 728
SWIDTH 332 0
DWIDTH 7 0
BBX 5 3 1 11
BITMAP
A10640
840920
199600
ENDCHAR
STARTCHAR dotaccent
ENCODING 729
SWIDTH 183 0
DWIDTH 4 0
BBX 2 3 1 11
BITMAP
A5
A5
10
ENDCHAR
STARTCHAR ring
ENCODING 730
SWIDTH 297 0
DWIDTH 6 0
BBX 4 4 1 11
BITMAP
9DC1
9064
9064
8DC1
ENDCHAR
STARTCHAR ogonek
ENCODING 731
SWIDTH 243 0
DWIDTH 5 0
BBX 3 3 1 -2
BITMAP
0520
3700
7C30
ENDCHAR
STARTCHAR tilde
ENCODING 732
SWIDTH 369 0
DWIDTH 7 0
BBX 5 3 1 11
BITMAP
907E50
91B190
5D5080
ENDCHAR
STARTCHAR hungarumlaut
ENCODING 733
SWIDTH 377 0
DWIDTH 8 0
BBX 6 3 1 11
BITMAP
0881D1
1C0950
631800
ENDCHAR
STARTCHAR Mu
ENCODING 924
SWIDTH 527 0
DWIDTH 11 0
BBX 8 14 1 -3
BITMAP
35000007
5A00001E
5A00001E
5A00001E
5A00001E
5A00001E
5A00001E
5A00001E
5B00003E
5F4001AE
5CBEDC6C
5A000000
5A000000
24000000
ENDCHAR
STARTCHAR Pi
ENCODING 928
SWIDTH 605 0
DWIDTH 12 0
BBX 12 14 0 -1
BITMAP
2DEFEDDDFED4
001E0000D300
001E0000D300
001E0000D300
001E0000D300
001E0000D300
001E0000D300
001E0000D300
001E0000D300
001E0000D300
001E0000D300
001E0000D300
001E0000D300
000500004100
ENDCHAR
STARTCHAR Sigma
ENCODING 931
SWIDTH 481 0
DWIDTH 10 0
BBX 8 13 1 0
BITMAP
BEDDDDD5
6B000000
0C600000
03E10000
00890000
001D3000
0007A000
000D4000
008A0000
03E10000
0C600000
6B000000
AEDDDDD5
ENDCHAR
STARTCHAR uni0901
ENCODING 2305
SWIDTH 0 0
DWIDTH 0 0
BBX 7 4 -6 14
BITMAP
00092000
670001D0
3C1005A0
07DDDB20
ENDCHAR
STARTCHAR uni0902
ENCODING 2306
SWIDTH 0 0
DWIDTH 0 0
BBX 2 1 -3 15
BITMAP
C2
ENDCHAR
STARTCHAR uni0903
ENCODING 2307
SWIDTH 247 0
DWIDTH 5 0
BBX 2 7 1 2
BITMAP
1C
00
00
00
00
00
1C
ENDCHAR
STARTCHAR uni0905
ENCODING 2309
SWIDTH 598 0
DWIDTH 12 0
BBX 13 13 0 0
BITMAP
07DDC4000CED20
00003E100D2000
00000A400D2000
00000A400D2000
00003D100D2000
00DEF4000D2000
00004B000D2000
00000BEDDF2000
00000A500D2000
00000B400D2000
00004E100D2000
3DDDB3000D2000
000000000B1000
ENDCHAR
STARTCHAR uni0906
ENCODING 2310
SWIDTH 828 0
DWIDTH 17 0
BBX 17 13 0 0
BITMAP
07DDC4000CEDDEFDA0
00003E100D1004B000
00000B400D1004B000
00000B400D1004B000
00004D100D1004B000
01DEF3000D1004B000
00004B000D1004B000
00000BEDDF1004B000
00000A400D1004B000
00000C300D1004B000
00005E100D1004B000
3DDDB3000D1004B000
000000000B10039000
ENDCHAR
STARTCHAR uni0907
ENCODING 2311
SWIDTH 478 0
DWIDTH 10 0
BBX 11 14 -1 -1
BITMAP
3DDDDDDEFDA0
00000004B000
00000004B000
0009DDDE9000
006A00000000
008600000000
006A00000000
0009DDDD6000
00000001D200
00000000A400
00940000A400
009A0002D200
0099CDDD6000
009400000000
ENDCHAR
STARTCHAR uni0908
ENCODING 2312
SWIDTH 478 0
DWIDTH 10 0
BBX 11 19 -1 -1
BITMAP
0000002BDD10
000000B60000
000000E00000
000000F00000
000000C20000
3DDDDDDEFDA0
00000004B000
00000004B000
0009DDDE9000
006A00000000
008600000000
006A00000000
0009DDDD6000
00000001D200
00000000A400
00940000A400
009A0002D200
0099CDDD6000
009400000000
ENDCHAR
STARTCHAR uni0909
ENCODING 2313
SWIDTH 471 0
DWIDTH 9 0
BBX 11 13 -1 0
BITMAP
3DDDDDEFDD80
000000088000
00000001D000
00000000E000
00000001E000
000000089000
00003DFE2000
00000007B000
00600000E000
01E00000E100
00E00000E000
00A80007A000
0019DDD91000
ENDCHAR
STARTCHAR uni090A
ENCODING 2314
SWIDTH 661 0
DWIDTH 13 0
BBX 15 13 -1 0
BITMAP
3DDDDDEFDDDDDD60
0000000880000000
00000001D0000000
00000000E0000000
00000001D0000000
0000000860000000
00003DFFEDDD6000
00000007E002D300
00900000E1007700
01E00000E1006800
00E00000E0007700
00A800079002D300
0019DDD9109D6000
ENDCHAR
STARTCHAR uni090B
ENCODING 2315
SWIDTH 753 0
DWIDTH 15 0
BBX 17 13 -1 0
BITMAP
3DDDDDDEFEDDDDDD40
00000000E000000000
00000000E000000000
00000000E000000000
0008DDD7E0007D8000
006B1008F00AA68000
00A40000F1B9068000
00B40000ED70068000
00510003F504BD7000
0000006DF00D300000
00001AA1E00E000000
0003D600E00D300000
004C3000C004CDA000
ENDCHAR
STARTCHAR uni090C
ENCODING 2316
SWIDTH 676 0
DWIDTH 14 0
BBX 15 17 -1 -4
BITMAP
3DDDDDDDDDDEFDA0
000000000004B000
000000000004B000
000000000004B000
0007DDA2ADC8B000
004C106E701BB000
0086000E1005B000
0096000E1004B000
009600090004B000
008600000004B000
004C20000004B000
0007CD600004B000
0000000002BEA000
000000000B500000
000000000D100000
000000000A701680
0000000001ADDA20
ENDCHAR
STARTCHAR uni090D
ENCODING 2317
SWIDTH 521 0
DWIDTH 10 0
BBX 12 17 -1 1
BITMAP
000940005800
00069000A600
00019DDD9000
000000000000
000000000000
3DEFDDDDDFEA
002C00000D20
002C00000D20
002C00000D20
002C00000D10
002C00005C00
002C008DB300
002C00000000
002C00000000
001D00000000
000B70000000
0001ADDDD700
ENDCHAR
STARTCHAR uni090E
ENCODING 2318
SWIDTH 522 0
DWIDTH 10 0
BBX 12 17 -1 1
BITMAP
00000D000000
00000C500000
000002CA2000
00000005D700
000000001E20
3DEFDDDDDFEA
002C00000D20
002C00000D20
002C00000D20
002C00000D10
002C00005C00
002C008DB300
002C00000000
002C00000000
001D00000000
000B70000000
0001ADDDD700
ENDCHAR
STARTCHAR uni090F
ENCODING 2319
SWIDTH 526 0
DWIDTH 11 0
BBX 12 12 -1 1
BITMAP
3DEFDDDDDFEA
002C00000D20
002C00000D20
002C00000D20
002C00000D10
002C00005C00
002C008DB300
002C00000000
002C00000000
001D00000000
000B70000000
0001ADDDD700
ENDCHAR
STARTCHAR uni0910
ENCODING 2320
SWIDTH 526 0
DWIDTH 11 0
BBX 12 17 -1 1
BITMAP
000001D20000
0000006B0000
0000000A6000
00000001C200
000000003A00
3DEFDDDDDFEA
002C00000D20
002C00000D20
002C00000D20
002C00000D10
002C00005C00
002C008DB300
002C00000000
002C00000000
001D00000000
000B70000000
0001ADDDD700
ENDCHAR
STARTCHAR uni0911
ENCODING 2321
SWIDTH 829 0
DWIDTH 17 0
BBX 17 18 0 0
BITMAP
000000000100001000
000000000D0000C200
000000000C3002D000
0000000003CDDC4000
000000000000000000
07DDC4000CEDDEFDB0
00003E100D2003C000
00000A400D2003C000
00000A400D2003C000
00003D100D2003C000
00DEF4000D2003C000
00004B000D2003C000
00000BEDDF2003C000
00000A500D2003C000
00000B400D2003C000
00004E100D2003C000
3DDDB3000D2003C000
000000000B1002A000
ENDCHAR
STARTCHAR uni0912
ENCODING 2322
SWIDTH 828 0
DWIDTH 17 0
BBX 17 18 0 0
BITMAP
000000000680000000
0000000003D1000000
00000000006D700000
0000000000018D3000
00000000000006B000
07DDC4000CEDDEFDA0
00003E100D2004B000
00000A400D2004B000
00000A400D2004B000
00003D100D2004B000
00DEF4000D2004B000
00004B000D2004B000
00000BEDDF2004B000
00000A500D2004B000
00000B400D2004B000
00004E100D2004B000
3DDDB3000D2004B000
000000000B10039000
ENDCHAR
STARTCHAR uni0913
ENCODING 2323
SWIDTH 829 0
DWIDTH 17 0
BBX 17 18 0 0
BITMAP
00000000006B000000
00000000000B600000
000000000002D20000
0000000000005B0000
000000000000086000
07DDC4000CEDDEFDB0
00003E100D2003C000
00000A400D2003C000
00000A400D2003C000
00003D100D2003C000
00DEF4000D2003C000
00004B000D2003C000
00000BEDDF2003C000
00000A500D2003C000
00000B400D2003C000
00004E100D2003C000
3DDDB3000D2003C000
000000000B1002A000
ENDCHAR
STARTCHAR uni0914
ENCODING 2324
SWIDTH 829 0
DWIDTH 17 0
BBX 17 18 0 0
BITMAP
00000000008802B000
00000000001D33C000
000000000004C3C000
00000000000088B000
00000000000009B000
07DDC4000CEDDEFDB0
00003E100D2003C000
00000A400D2003C000
00000A400D2003C000
00003D100D2003C000
00DEF4000D2003C000
00004B000D2003C000
00000BEDDF2003C000
00000A500D2003C000
00000B400D2003C000
00004E100D2003C000
3DDDB3000D2003C000
000000000B1002A000
ENDCHAR
STARTCHAR uni0915
ENCODING 2325
SWIDTH 725 0
DWIDTH 15 0
BBX 16 13 -1 0
BITMAP
3DDDDDDEFDDDDDDA
00000003B0000000
00000003B0000000
0008DD33BADDB300
006B1003F4004D10
00B40003C0000B30
00C30003B0000A40
00C30003B0000A40
00B40004B0000B30
006B101BB0004D00
0008DDC7B0ADB300
00000003B0000000
0000000290000000
ENDCHAR
STARTCHAR uni0916
ENCODING 2326
SWIDTH 696 0
DWIDTH 14 0
BBX 16 13 -1 0
BITMAP
3DDDDFEDDDDDFED2
00000D200000D100
00000D200000D100
00000D207D80D100
00000D14C100D100
00004D086000D100
04EDC3095000D100
01D300086000E100
004C0004C106F100
000980007DD7D100
0001D3000000D100
00005C000000D100
000009500000B100
ENDCHAR
STARTCHAR uni0917
ENCODING 2327
SWIDTH 494 0
DWIDTH 10 0
BBX 12 13 -1 0
BITMAP
3DDEFDDDFED1
0005A000E100
0005A000E100
0005A000E100
0005A000E100
00069000E100
001B6000E100
08D80000E100
00000000E100
00000000E100
00000000E100
00000000E100
00000000B000
ENDCHAR
STARTCHAR uni0918
ENCODING 2328
SWIDTH 559 0
DWIDTH 11 0
BBX 13 13 -1 0
BITMAP
3DDFEDDDDFED50
004B0000095000
00860000095000
00870000095000
004C1000095000
000AFD60095000
005B1000095000
00860000095000
008700000B5000
005C10005F5000
0007DDDDAA5000
00000000095000
00000000084000
ENDCHAR
STARTCHAR uni0919
ENCODING 2329
SWIDTH 505 0
DWIDTH 10 0
BBX 12 13 -1 0
BITMAP
3DDDDDDEFDD4
00000004A000
00000004A000
0009DDDE8000
005B00000000
007700000750
005B10000000
0008DDDD6000
00000002E200
00110000B400
00850000B400
006A0002E100
0009DDDC5000
ENDCHAR
STARTCHAR uni091A
ENCODING 2330
SWIDTH 563 0
DWIDTH 11 0
BBX 13 13 -1 0
BITMAP
3DDDDDDDDEED70
00000000087000
00000000087000
00000000087000
07DDEED5087000
00079000087000
000C2000087000
000D1000087000
000C2000097000
0008A1003E7000
00008DDDBA7000
00000000087000
00000000075000
ENDCHAR
STARTCHAR uni091B
ENCODING 2331
SWIDTH 581 0
DWIDTH 12 0
BBX 13 12 -1 1
BITMAP
3DDFFDDDDEFDB0
003C1000059000
00780000059000
00780000059000
00780004DE7000
003D200003E000
0009FD2000C200
004C100000C200
0078000000C200
0078000000D100
004C100005C000
0007DDDDDB2000
ENDCHAR
STARTCHAR uni091C
ENCODING 2332
SWIDTH 547 0
DWIDTH 11 0
BBX 13 13 -1 0
BITMAP
3DDDDDDDDFED20
000000000D1000
000000000D1000
000000000D1000
007DEEDDDF1000
00002C300D1000
000007800D1000
000006800D1000
000006800D1000
000007700D1000
00002D300D1000
05DDD6000D1000
000000000B1000
ENDCHAR
STARTCHAR uni091D
ENCODING 2333
SWIDTH 664 0
DWIDTH 13 0
BBX 15 14 -1 -1
BITMAP
3DDDDDEFEDDEED70
0000000E00087000
0000000E00087000
0009DDDD00087000
006A000000087000
0087000000087000
006A100000087000
0009DDEEEDDF7000
0000000970087000
0094000590087000
00A9000970087000
00A9DDDA10087000
00A4000000087000
0094000000011000
ENDCHAR
STARTCHAR uni091E
ENCODING 2334
SWIDTH 592 0
DWIDTH 12 0
BBX 14 13 -1 0
BITMAP
3DDDDDDDDEFED1
0000000000E000
0000000000E000
00ADD80000E000
0000096000E000
000002A000E000
000001C000E000
000001FDDEF000
000002C000E000
0000099000E000
01DDDA1000E000
0000000000E000
0000000000C000
ENDCHAR
STARTCHAR uni091F
ENCODING 2335
SWIDTH 485 0
DWIDTH 10 0
BBX 11 12 -1 1
BITMAP
3DDDDDDEFDC0
000000069000
000000069000
000000069000
0007DDDE7000
005C10000000
009500000000
00A400000000
00A400003900
009500004A00
005C2001B500
0007CDDD7000
ENDCHAR
STARTCHAR uni0920
ENCODING 2336
SWIDTH 512 0
DWIDTH 10 0
BBX 12 12 -1 1
BITMAP
3DDDDDDEFDD7
00000002D000
00000002C000
000000079000
0007DDEF7000
005C1001B600
009500004A00
00A400003B00
00A400003B00
009500004A00
005C2001B600
0007DDDD7000
ENDCHAR
STARTCHAR uni0921
ENCODING 2337
SWIDTH 475 0
DWIDTH 10 0
BBX 11 13 -1 0
BITMAP
3DDDDDDEFDA0
00000004A000
00000004A000
0009DDDE8000
005A00000000
007700000000
005A00000000
0009DDDD6000
00000002E200
00210000B400
00860000B400
005A0003E100
0008DDDC5000
ENDCHAR
STARTCHAR uni0922
ENCODING 2338
SWIDTH 485 0
DWIDTH 10 0
BBX 11 12 -1 1
BITMAP
3DDDDDDEFDD0
00000004B000
00000004B000
00000004B000
0006DDDE9000
005C10000000
009600000000
0095009DC300
009502C05A00
009502603B00
004C10008800
0006CDDDA100
ENDCHAR
STARTCHAR uni0923
ENCODING 2339
SWIDTH 681 0
DWIDTH 14 0
BBX 15 13 -1 0
BITMAP
3DEFDDDFEDDEFDC0
005900086002C000
005900086002C000
005900086002C000
005900086002C000
005900086002C000
005900095002C000
002D202D2002C000
0005CDC50002C000
000000000002C000
000000000002C000
000000000002C000
000000000002A000
ENDCHAR
STARTCHAR uni0924
ENCODING 2340
SWIDTH 496 0
DWIDTH 10 0
BBX 12 13 -1 0
BITMAP
3DDDDDDDFED2
00000000D100
00000000D100
00000000D100
0008DDDDF100
006B1000D100
00950000D100
00A40000D100
00A40000D100
00A40000D100
00950000D100
005C1000D100
0007D900C100
ENDCHAR
STARTCHAR uni0925
ENCODING 2341
SWIDTH 593 0
DWIDTH 12 0
BBX 12 13 1 0
BITMAP
06DDA000DED1
2D109600E100
3A005900E100
13006800E100
0001B500E100
BEDD8000E100
C3000000E100
B3000000E100
96000001F100
3D30001AF100
05CDDDD6E100
00000000E100
00000000C000
ENDCHAR
STARTCHAR uni0926
ENCODING 2342
SWIDTH 489 0
DWIDTH 10 0
BBX 11 13 -1 0
BITMAP
3DDDDDDEFED0
00000000F000
00000000F000
0006DDDDD000
004C20000000
008600000000
00A500000000
00A500000000
008600009400
004C2002D400
0006CDDBB400
00000000A400
000000009400
ENDCHAR
STARTCHAR uni0927
ENCODING 2343
SWIDTH 560 0
DWIDTH 11 0
BBX 13 13 -1 0
BITMAP
3DDFE807DFED60
004B0000095000
00870000095000
00870000095000
004C1000095000
000AFD60095000
004C1000095000
00870000095000
00860000095000
007700000B5000
003D20005F5000
0006CDDDAA5000
00000000074000
ENDCHAR
STARTCHAR uni0928
ENCODING 2344
SWIDTH 473 0
DWIDTH 9 0
BBX 11 13 -1 0
BITMAP
3DDDDDDEFD90
000000059000
000000059000
000000059000
000000059000
006DDDDE9000
00E200059000
01E000059000
00A100059000
000000059000
000000059000
000000059000
000000048000
ENDCHAR
STARTCHAR uni0928093C
ENCODING 2345
SWIDTH 473 0
DWIDTH 9 0
BBX 11 13 -1 0
BITMAP
3DDDDDDEFD90
000000059000
000000059000
000000059000
000000059000
006DDDDE9000
00E200059000
01E000059000
008100059000
000000059000
000000059000
000000059000
0000C0024000
ENDCHAR
STARTCHAR uni092A
ENCODING 2346
SWIDTH 503 0
DWIDTH 10 0
BBX 12 13 -1 0
BITMAP
3DEFDDDDFED4
00590000B400
00590000B400
00590000B400
00590000B400
00590000B400
005A0000C400
001D3005F400
0004CDD9B400
00000000B400
00000000B400
00000000B400
000000009300
ENDCHAR
STARTCHAR uni092B
ENCODING 2347
SWIDTH 739 0
DWIDTH 15 0
BBX 16 13 -1 0
BITMAP
3DEFDDDEFEDDDDDD
00590000E0000000
00590000E0000000
00590000E7DDC500
00590000E8002D30
00590000E1000770
004A0000F0000680
001D3008F0000680
0004CDD7E0000770
00000000E0002D30
00000000E06DC500
00000000E0000000
00000000C0000000
ENDCHAR
STARTCHAR uni092C
ENCODING 2348
SWIDTH 491 0
DWIDTH 10 0
BBX 12 13 -1 0
BITMAP
3DDDDDDEFED1
00000000F000
00000000F000
0007DD60F000
006F2000F000
00A8B100F000
00B33B10F000
00B303B1F000
00A4002BF000
006B1019F000
0007DDD6F000
00000000F000
00000000C000
ENDCHAR
STARTCHAR uni092D
ENCODING 2349
SWIDTH 491 0
DWIDTH 10 0
BBX 12 13 -1 0
BITMAP
3D9000DEFED1
00A50000F000
00680000F000
00680000F000
00680000F000
00690000F000
006FDDDEF000
00690000F000
00680000F000
00230000F000
00000000F000
00000000F000
00000000C000
ENDCHAR
STARTCHAR uni092E
ENCODING 2350
SWIDTH 490 0
DWIDTH 10 0
BBX 12 13 -1 0
BITMAP
3DEFDDDEFED1
00680000E000
00680000E000
00680000E000
00680000E000
00680000E000
006FDDDEE000
00680000E000
00680000E000
00220000E000
00000000E000
00000000E000
00000000C000
ENDCHAR
STARTCHAR uni092F
ENCODING 2351
SWIDTH 564 0
DWIDTH 11 0
BBX 13 13 -1 0
BITMAP
3DDEFEDDDEED70
00002C10087000
00000A40087000
00000B40087000
00002D10087000
009EC500087000
00A50000087000
00A50000087000
008700000A7000
003D30005F7000
0004BDDDA97000
00000000087000
00000000065000
ENDCHAR
STARTCHAR uni0930
ENCODING 2352
SWIDTH 337 0
DWIDTH 7 0
BBX 8 13 -1 0
BITMAP
3DDDDFED
00000D20
00000D20
00000D20
00000D10
00004D00
04EDC300
01D30000
004C0000
000A7000
0001D200
00005B00
00000A40
ENDCHAR
STARTCHAR uni0930093C
ENCODING 2353
SWIDTH 347 0
DWIDTH 7 0
BBX 9 14 -1 -1
BITMAP
3DDDDFED20
00000A4000
00000A4000
00000A4000
00000A4000
00002E1000
02EEC50000
00B6000000
003D100000
0009800000
0001D20000
00006A0000
00000C3000
0840024000
ENDCHAR
STARTCHAR uni0932
ENCODING 2354
SWIDTH 676 0
DWIDTH 14 0
BBX 15 13 -1 0
BITMAP
3DDDDDDDDDDEFDA0
000000000004B000
000000000004B000
000000000004B000
0007DDA2ADC8B000
004C106E701BB000
0086000E1005B000
0096000E0004B000
009600090004B000
008600000004B000
004C20000004B000
0007CD700004B000
0000000000039000
ENDCHAR
STARTCHAR uni0933
ENCODING 2355
SWIDTH 672 0
DWIDTH 13 0
BBX 15 12 -1 1
BITMAP
3DDDDDDDDEFDDD90
0000000005900000
0000000004900000
0000000005900000
0007DDB28EEA2000
005B105E9106B000
0095000D3000E000
00A4000C2000E000
00A4000C2000E000
0095000D3000E000
005B105EA106B000
0007DDB28DDA1000
ENDCHAR
STARTCHAR uni0933093C
ENCODING 2356
SWIDTH 672 0
DWIDTH 13 0
BBX 15 14 -1 -1
BITMAP
3DDDDDDDDEFDDD90
0000000005900000
0000000004900000
0000000005900000
0007DDB28EEA2000
005B105E9106B000
0095000D3000E000
00A4000C2000E000
00A4000C2000E000
0095000D3000E000
005B105EA106B000
0007DDB28DDA1000
0000000000000000
0000580000000000
ENDCHAR
STARTCHAR uni0935
ENCODING 2357
SWIDTH 484 0
DWIDTH 10 0
BBX 11 13 -1 0
BITMAP
3DDDDDDEFDC0
00000001D000
00000001D000
0007DD51D000
006B1001D000
00A50001D000
00B40001D000
00B40001D000
00A40002D000
006B101AD000
0007DDD7D000
00000001D000
00000001B000
ENDCHAR
STARTCHAR uni0936
ENCODING 2358
SWIDTH 614 0
DWIDTH 12 0
BBX 13 13 0 0
BITMAP
009DDA1007ED70
05B00880087000
087004A0087000
054004B0087000
000005A0087000
00001B60087000
2EDDD800087000
0B600000087000
02D10000087000
007A0000087000
000C4000087000
0003D100087000
00008600065000
ENDCHAR
STARTCHAR uni0937
ENCODING 2359
SWIDTH 505 0
DWIDTH 10 0
BBX 12 13 -1 0
BITMAP
3DEEDDDDFED5
005E2000A400
005BB200A400
00592B10A400
005903A0A400
00590059A400
005A0006F400
001D3005F400
0004CDD9B400
00000000A400
00000000A400
00000000A400
000000009300
ENDCHAR
STARTCHAR uni0938
ENCODING 2360
SWIDTH 575 0
DWIDTH 12 0
BBX 13 13 -1 0
BITMAP
3DDDEFDDDEFDA0
00004B0004A000
00004B0004A000
00004B0004A000
00005A0004A000
0001A50005A000
04EEEDDDDEA000
01D3000005A000
005B000004A000
000C400004A000
0004C00004A000
0000B60004A000
00002B00039000
ENDCHAR
STARTCHAR uni0939
ENCODING 2361
SWIDTH 481 0
DWIDTH 10 0
BBX 11 14 -1 -1
BITMAP
3DDDDDDEFDB0
00000002D000
00000002D000
0007DDDEB000
004C10000000
006900000000
003C10000000
0008FEDC4000
002D2003E000
00780000C200
008700006100
006800000000
002D30000000
0004CDDDC000
ENDCHAR
STARTCHAR uni093C
ENCODING 2364
SWIDTH 0 0
DWIDTH 0 0
BBX 2 1 -4 -2
BITMAP
2B
ENDCHAR
STARTCHAR uni093D
ENCODING 2365
SWIDTH 529 0
DWIDTH 11 0
BBX 8 13 1 0
BITMAP
01ADDDD0
06A00000
07700000
06A00000
01E70000
003DB300
00007E80
000001B8
0000003C
0000002D
1900003C
09A20098
006CDDA1
ENDCHAR
STARTCHAR uni093E
ENCODING 2366
SWIDTH 231 0
DWIDTH 5 0
BBX 6 13 -1 0
BITMAP
3DEFDB
002C00
002C00
002C00
002C00
002C00
002C00
002C00
002C00
002C00
002C00
002C00
002A00
ENDCHAR
STARTCHAR uni093F
ENCODING 2367
SWIDTH 231 0
DWIDTH 5 0
BBX 14 18 -1 0
BITMAP
0004CDDDDDDD80
000E30000001C4
002C0000000077
002C0000000045
003C0000000000
3DEFDB00000000
002C0000000000
002C0000000000
002C0000000000
002C0000000000
002C0000000000
002C0000000000
002C0000000000
002C0000000000
002C0000000000
002C0000000000
002C0000000000
002A0000000000
ENDCHAR
STARTCHAR uni0940
ENCODING 2368
SWIDTH 231 0
DWIDTH 5 0
BBX 8 18 -3 0
BITMAP
1ADDA100
97008900
C2003C00
81002C00
00003C00
003DEFDB
00002C00
00002C00
00002C00
00002C00
00002C00
00002C00
00002C00
00002C00
00002C00
00002C00
00002C00
00002A00
ENDCHAR
STARTCHAR uni0941
ENCODING 2369
SWIDTH 0 0
DWIDTH 0 0
BBX 8 5 -7 -5
BITMAP
00009CA1
A1000077
78000058
0C600096
01AEDDA1
ENDCHAR
STARTCHAR uni0942
ENCODING 2370
SWIDTH 0 0
DWIDTH 0 0
BBX 8 5 -6 -5
BITMAP
06DDD800
1D1018A0
3B0000C3
1D10005A
07DD100C
ENDCHAR
STARTCHAR uni0943
ENCODING 2371
SWIDTH 0 0
DWIDTH 0 0
BBX 7 5 -6 -5
BITMAP
09DD1000
4B000000
68000000
4B001960
08DDD700
ENDCHAR
STARTCHAR uni0945
ENCODING 2373
SWIDTH 0 0
DWIDTH 0 0
BBX 7 3 -6 14
BITMAP
590001C0
2C100690
07DDDB20
ENDCHAR
STARTCHAR uni0946
ENCODING 2374
SWIDTH 0 0
DWIDTH 0 0
BBX 6 6 -7 12
BITMAP
D00000
C50000
2CA200
005D70
0001E2
0002D7
ENDCHAR
STARTCHAR uni0947
ENCODING 2375
SWIDTH 0 0
DWIDTH 0 0
BBX 6 6 -7 12
BITMAP
1D3000
06C000
00B700
002E20
0006C0
000097
ENDCHAR
STARTCHAR uni0948
ENCODING 2376
SWIDTH 0 0
DWIDTH 0 0
BBX 6 6 -7 12
BITMAP
2D10B2
0890C2
01D4B2
004DA2
0008E3
0000B7
ENDCHAR
STARTCHAR uni0949
ENCODING 2377
SWIDTH 231 0
DWIDTH 5 0
BBX 7 18 -1 0
BITMAP
10000100
B2000860
97001C30
1ADDD700
00000000
3DEFDB00
002C0000
002C0000
002C0000
002C0000
002C0000
002C0000
002C0000
002C0000
002C0000
002C0000
002C0000
002A0000
ENDCHAR
STARTCHAR uni094A
ENCODING 2378
SWIDTH 231 0
DWIDTH 5 0
BBX 8 18 -3 0
BITMAP
68000000
3D100000
06D70000
0018D300
00005B00
003DEFDB
00002C00
00002C00
00002C00
00002C00
00002C00
00002C00
00002C00
00002C00
00002C00
00002C00
00002C00
00002A00
ENDCHAR
STARTCHAR uni094B
ENCODING 2379
SWIDTH 231 0
DWIDTH 5 0
BBX 7 18 -2 0
BITMAP
5B000000
0B600000
01D20000
004B0000
00076000
03DEFDB0
0002C000
0002C000
0002C000
0002C000
0002C000
0002C000
0002C000
0002C000
0002C000
0002C000
0002C000
0002A000
ENDCHAR
STARTCHAR uni094C
ENCODING 2380
SWIDTH 231 0
DWIDTH 5 0
BBX 7 18 -2 0
BITMAP
7902C000
0C42C000
02C2C000
0068C000
0008B000
03DEFDB0
0002C000
0002C000
0002C000
0002C000
0002C000
0002C000
0002C000
0002C000
0002C000
0002C000
0002C000
0002A000
ENDCHAR
STARTCHAR uni094D
ENCODING 2381
SWIDTH 0 0
DWIDTH 0 0
BBX 3 4 -3 -4
BITMAP
5100
5A00
0B50
03D0
ENDCHAR
STARTCHAR uni0950
ENCODING 2384
SWIDTH 847 0
DWIDTH 17 0
BBX 15 16 1 1
BITMAP
000000000A300000
0000000000000000
0000000000000200
0000000000004D20
04DDD7000ADDB300
00001C4000000000
0000078000000000
000007800ADDC400
00002C4000003D10
009EF70000000A40
00002C1000000950
000007EDE9000950
810006801D000950
C20007801D000A40
89102D400E302D20
18DDC60004CDD600
ENDCHAR
STARTCHAR uni0951
ENCODING 2385
SWIDTH 0 0
DWIDTH 0 0
BBX 2 4 -3 14
BITMAP
C2
C2
C2
C2
ENDCHAR
STARTCHAR uni0952
ENCODING 2386
SWIDTH 0 0
DWIDTH 0 0
BBX 8 1 -9 -2
BITMAP
3DDDDDD2
ENDCHAR
STARTCHAR uni0953
ENCODING 2387
SWIDTH 0 0
DWIDTH 0 0
BBX 3 4 -5 14
BITMAP
D200
6B00
0B50
02C0
ENDCHAR
STARTCHAR uni0954
ENCODING 2388
SWIDTH 0 0
DWIDTH 0 0
BBX 4 4 -3 14
BITMAP
00C4
07A0
2D10
9600
ENDCHAR
STARTCHAR uni0915093C
ENCODING 2392
SWIDTH 725 0
DWIDTH 15 0
BBX 16 14 -1 -1
BITMAP
3DDDDDDEFDDDDDDA
00000003B0000000
00000003B0000000
0008DD33BADDB300
006B1003F5004D10
00B40003C0000B30
00C30003B0000A40
00C30003B0000A40
00B40004B0000B30
006B101BB0004D00
0008DDC7B0ADB300
00000003B0000000
00000003B0000000
0001C00020000000
ENDCHAR
STARTCHAR uni0916093C
ENCODING 2393
SWIDTH 696 0
DWIDTH 14 0
BBX 16 14 -1 -1
BITMAP
3DDDDFEDDDDDFED2
00000D200000D100
00000D200000D100
00000D207D80D100
00000D14C100D100
00004D086000D100
04EDC3095000D100
01D300086000E100
005C0004C106F100
000B60007DD7D100
0002E1000000D100
000079000000D100
00000D300000D100
01C0021000003000
ENDCHAR
STARTCHAR uni0917093C
ENCODING 2394
SWIDTH 494 0
DWIDTH 10 0
BBX 12 14 -1 -1
BITMAP
3DDEFDDDFED1
0005A000E100
0005A000E100
0005A000E100
0005A000E100
00069000E100
001B6000E100
08D80000E100
00000000E100
00000000E100
00000000E100
00000000E100
00000000E100
000C00004000
ENDCHAR
STARTCHAR uni091C093C
ENCODING 2395
SWIDTH 547 0
DWIDTH 11 0
BBX 13 14 -1 -1
BITMAP
3DDDDDDDDFED20
000000000D1000
000000000D1000
000000000D1000
007DEEDDDF1000
00002C300D1000
000007800D1000
000006800D1000
000006800D1000
000007700D1000
00002D300D1000
05DDD6000D1000
000000000D1000
003A0000010000
ENDCHAR
STARTCHAR uni0921093C
ENCODING 2396
SWIDTH 475 0
DWIDTH 10 0
BBX 11 16 -1 -3
BITMAP
3DDDDDDEFDA0
00000004A000
00000004A000
0009DDDE8000
005A00000000
007700000000
005A00000000
0009DDDD6000
00000002E200
00210000B400
00860000B400
005A0003E100
0008DDDC5000
000000000000
000000000000
000009400000
ENDCHAR
STARTCHAR uni0922093C
ENCODING 2397
SWIDTH 485 0
DWIDTH 10 0
BBX 11 15 -1 -2
BITMAP
3DDDDDDEFDD0
00000004B000
00000004B000
00000004B000
0006DDDE9000
005C10000000
009600000000
0095009DC300
009502C05A00
009502603B00
004C10008800
0006CDDDA100
000000000000
000000000000
000006700000
ENDCHAR
STARTCHAR uni092B093C
ENCODING 2398
SWIDTH 739 0
DWIDTH 15 0
BBX 16 14 -1 -1
BITMAP
3DEFDDDEFEDDDDDD
00590000E0000000
00590000E0000000
00590000E7DDC500
00590000E8002D30
00590000E1000770
004A0000F0000680
001D3008F0000680
0004CDD7E0000770
00000000E0002D30
00000000E06DC500
00000000E0000000
00000000E0000000
0003A00040000000
ENDCHAR
STARTCHAR uni092F093C
ENCODING 2399
SWIDTH 564 0
DWIDTH 11 0
BBX 13 14 -1 -1
BITMAP
3DDEFEDDDEED70
00002C10087000
00000A40087000
00000B40087000
00002D10087000
009EC500087000
00A50000087000
00A50000087000
008700000A7000
003D30005F7000
0004BDDDA97000
00000000087000
00000000087000
000C1000011000
ENDCHAR
STARTCHAR uni0960
ENCODING 2400
SWIDTH 753 0
DWIDTH 15 0
BBX 17 16 -1 -3
BITMAP
3DDDDDDEFEDDDDDD40
00000000E000000000
00000000E000000000
00000000E000000000
0008DDD7E0008D7000
007A1007F01BA68000
00A40000F3D7068000
00B30000EE44BD7000
00200006F20D300000
0000008CE00E000000
00000AB1E00C400000
0001C900E005FEA000
002D7000E00C300000
00330000500E000000
00000000000D400000
000000000004CDD000
ENDCHAR
STARTCHAR uni0961
ENCODING 2401
SWIDTH 676 0
DWIDTH 14 0
BBX 15 18 -1 -5
BITMAP
3DDDDDDDDDDEFDA0
000000000004B000
000000000004B000
000000000004B000
0006DDA19DC8B000
003C107D801BB000
0077000F1005B000
0096000E0004B000
0096000E0004B000
009600050004B000
0077000004CE9000
003D20000C400000
0006CD700B400000
0000000003FEC000
000000000A600000
000000000D100000
000000000B500000
0000000003CDD200
ENDCHAR
STARTCHAR uni0964
ENCODING 2404
SWIDTH 286 0
DWIDTH 6 0
BBX 2 13 2 0
BITMAP
2C
2C
2C
2C
2C
2C
2C
2C
2C
2C
2C
2C
2C
ENDCHAR
STARTCHAR uni0965
ENCODING 2405
SWIDTH 518 0
DWIDTH 10 0
BBX 7 13 2 0
BITMAP
2C000760
2C000870
2C000870
2C000870
2C000870
2C000870
2C000870
2C000870
2C000870
2C000870
2C000870
2C000870
2C000760
ENDCHAR
STARTCHAR uni0966
ENCODING 2406
SWIDTH 519 0
DWIDTH 10 0
BBX 8 13 1 0
BITMAP
07DDDDA1
5C10007A
9600001E
9500000F
9500000F
9500000F
9500000F
9500000F
9500000F
9500000F
8600001E
4C20008A
06CDDD91
ENDCHAR
STARTCHAR uni0967
ENCODING 2407
SWIDTH 288 0
DWIDTH 6 0
BBX 5 14 0 -1
BITMAP
018E20
4D9D30
620C30
000C30
000C30
000C30
000C30
000C30
000C30
000C30
000C30
000C30
000C30
000510
ENDCHAR
STARTCHAR uni0968
ENCODING 2408
SWIDTH 453 0
DWIDTH 9 0
BBX 8 13 1 0
BITMAP
2ADDDC30
A70004D0
E00000C2
D00000B3
000000D1
00000990
0002C800
004D5000
08C20000
7B100000
D3000000
E2000000
DDDDDDD3
ENDCHAR
STARTCHAR uni0969
ENCODING 2409
SWIDTH 489 0
DWIDTH 10 0
BBX 8 13 1 0
BITMAP
1ADDDC40
980002D2
D1000095
A0000096
000000A5
000003D1
000CEF40
000003D1
00000095
D1000096
D1000095
980003D1
19DDDC40
ENDCHAR
STARTCHAR uni096A
ENCODING 2410
SWIDTH 453 0
DWIDTH 9 0
BBX 10 14 0 -1
BITMAP
000005F500
00001DB600
0000798600
0001D18600
0009708600
003D008600
00B5008600
04C0008600
0C30008600
6A00008600
9EDDDDEED1
0000008600
0000008600
0000004200
ENDCHAR
STARTCHAR uni096B
ENCODING 2411
SWIDTH 480 0
DWIDTH 10 0
BBX 8 13 1 0
BITMAP
9EDDDDD3
95000000
95000000
95000000
95000000
99DDDD60
891002D4
00000078
00000068
73000068
96000078
5C2002D3
07DDDC60
ENDCHAR
STARTCHAR uni096C
ENCODING 2412
SWIDTH 495 0
DWIDTH 10 0
BBX 8 13 1 0
BITMAP
07DDDDD2
5C100000
96000000
95000000
95000000
98CDDD80
9C2001A8
9600003C
9500002D
9500002D
8600003C
4C2001A7
06CDDD80
ENDCHAR
STARTCHAR uni096D
ENCODING 2413
SWIDTH 380 0
DWIDTH 8 0
BBX 8 14 0 -1
BITMAP
8DDDDDF3
000001E1
000007A0
00000C40
00002E00
00008800
0000D300
0004D000
00097000
000E2000
005B0000
00B60000
01E10000
01400000
ENDCHAR
STARTCHAR uni096E
ENCODING 2414
SWIDTH 523 0
DWIDTH 10 0
BBX 9 13 1 0
BITMAP
07DDDDB200
5C10006B00
9600000E00
9500000E10
9600000E00
4C20007B00
09FEDEE200
4C20006B00
9600000E00
9500000E10
9600000E00
4C20007B00
06CDDDA200
ENDCHAR
STARTCHAR uni096F
ENCODING 2415
SWIDTH 493 0
DWIDTH 10 0
BBX 8 13 1 0
BITMAP
1ADDDD50
A80002D2
E1000086
F0000087
F0000087
E1000087
A8000087
19DDDDE7
00000087
00000087
00000086
000003D2
4DDDDC40
ENDCHAR
STARTCHAR uni0970
ENCODING 2416
SWIDTH 391 0
DWIDTH 8 0
BBX 7 7 0 3
BITMAP
02BDD910
0D5008A0
2D0000E0
3C0000E0
2D0001E0
0C500890
02BDD910
ENDCHAR
STARTCHAR uni0972
ENCODING 2418
SWIDTH 598 0
DWIDTH 12 0
BBX 13 18 0 0
BITMAP
00000011000010
000000670003A0
0000004B100880
00000008DDDA10
00000000000000
07DDC4000CED20
00003E100D2000
00000A400D2000
00000A400D2000
00003D100D2000
00DEF4000D2000
00004B000D2000
00000BEDDF2000
00000A500D2000
00000B400D2000
00004E100D2000
3DDDB3000D2000
000000000B1000
ENDCHAR
STARTCHAR Wgrave
ENCODING 7808
SWIDTH 795 0
DWIDTH 16 0
BBX 16 17 0 0
BITMAP
0000037000000000
000000B600000000
0000001C10000000
0000000000000000
4C00000C900000E2
1F10001ED00002E0
0D30005AB30006B0
0A60009677000980
06A000D24B000C50
03D002D00E000E10
00E105900B303D00
00C4095007706A00
00870D1003B09600
005A2C0000D1C300
002D680000A5E000
000DB400006BC000
000AE000002F8000
ENDCHAR
STARTCHAR wgrave
ENCODING 7809
SWIDTH 682 0
DWIDTH 14 0
BBX 14 14 0 0
BITMAP
00004D10000000
00000890000000
00000080000000
00000000000000
780000C70000D2
3D0001EB0003D0
0E20058D100780
09600949400B40
05A00D05801E00
01E03B01C05A00
00B37700C19600
0077B30085D100
002CD0004CC000
000D90000E7000
ENDCHAR
STARTCHAR Wacute
ENCODING 7810
SWIDTH 795 0
DWIDTH 16 0
BBX 16 17 0 0
BITMAP
0000000017200000
000000008A000000
00000002B0000000
0000000000000000
4C00000C900000E2
1F10001ED00002E0
0D30005AB30006B0
0A60009677000980
06A000D24B000C50
03D002D00E000E10
00E105900B303D00
00C4095007706A00
00870D1003B09600
005A2C0000D1C300
002D680000A5E000
000DB400006BC000
000AE000002F8000
ENDCHAR
STARTCHAR wacute
ENCODING 7811
SWIDTH 682 0
DWIDTH 14 0
BBX 14 14 0 0
BITMAP
00000005D10000
0000000D300000
00000045000000
00000000000000
780000C70000D2
3D0001EB0003D0
0E20058D100780
09600949400B40
05A00D05801E00
01E03B01C05A00
00B37700C19600
0077B30085D100
002CD0004CC000
000D90000E7000
ENDCHAR
STARTCHAR Wdieresis
ENCODING 7812
SWIDTH 795 0
DWIDTH 16 0
BBX 16 17 0 0
BITMAP
000002A00B100000
000003C00E100000
000003C00E100000
0000000000000000
4C00000C900000E2
1F10001ED00002E0
0D30005AB30006B0
0A60009677000980
06A000D24B000C50
03D002D00E000E10
00E105900B303D00
00C4095007706A00
00870D1003B09600
005A2C0000D1C300
002D680000A5E000
000DB400006BC000
000AE000002F8000
ENDCHAR
STARTCHAR wdieresis
ENCODING 7813
SWIDTH 682 0
DWIDTH 14 0
BBX 14 14 0 0
BITMAP
00004A01D00000
00004A01E00000
00004800C00000
00000000000000
780000C70000D2
3D0001EB0003D0
0E20058D100780
09600949400B40
05A00D05801E00
01E03B01C05A00
00B37700C19600
0077B30085D100
002CD0004CC000
000D90000E7000
ENDCHAR
STARTCHAR uni1E9E
ENCODING 7838
SWIDTH 542 0
DWIDTH 11 0
BBX 9 13 1 0
BITMAP
04CDDDDF40
1E30001E20
5A00007900
690000E200
690006A000
69000D3000
69001EEA10
6900001B70
69000005A0
69000004B0
69000005A0
6900001B60
5901DDD800
ENDCHAR
STARTCHAR Ygrave
ENCODING 7922
SWIDTH 493 0
DWIDTH 10 0
BBX 10 17 0 0
BITMAP
0027100000
0009800000
0000B30000
0000000000
5C000001D3
0D400007A0
05B0000D30
00D3006B00
006B00D300
000D35B000
0006AC3000
0000DB0000
0000960000
0000960000
0000960000
0000960000
0000860000
ENDCHAR
STARTCHAR ygrave
ENCODING 7923
SWIDTH 459 0
DWIDTH 9 0
BBX 9 17 0 -3
BITMAP
002E300000
0005B00000
0000620000
0000000000
5A00000780
0E10000D30
0960003D00
04B0008700
00D200D200
008704C000
003C097000
000D3E2000
0008CB0000
0001D60000
0001E10000
000A800000
0DE9000000
ENDCHAR
STARTCHAR uni200B
ENCODING 8203
SWIDTH 0 0
DWIDTH 0 0
BBX 1 1 0 0
BITMAP
00
ENDCHAR
STARTCHAR uni200C
ENCODING 8204
SWIDTH 0 0
DWIDTH 0 0
BBX 2 21 -1 -4
BITMAP
34
77
77
77
77
77
77
77
77
77
77
77
77
77
77
77
77
77
77
77
77
ENDCHAR
STARTCHAR uni200D
ENCODING 8205
SWIDTH 0 0
DWIDTH 0 0
BBX 6 21 -3 -4
BITMAP
130032
3D33D3
03DD30
03EE40
3D99D4
127721
007700
007700
007700
007700
007700
007700
007700
007700
007700
007700
007700
007700
007700
007700
007700
ENDCHAR
STARTCHAR endash
ENCODING 8211
SWIDTH 408 0
DWIDTH 8 0
BBX 8 1 0 6
BITMAP
2DDDDDD4
ENDCHAR
STARTCHAR emdash
ENCODING 8212
SWIDTH 537 0
DWIDTH 11 0
BBX 10 1 0 6
BITMAP
2DDDDDDDDC
ENDCHAR
STARTCHAR quoteleft
ENCODING 8216
SWIDTH 179 0
DWIDTH 4 0
BBX 2 5 1 8
BITMAP
13
55
95
B5
B4
ENDCHAR
STARTCHAR quoteright
ENCODING 8217
SWIDTH 179 0
DWIDTH 4 0
BBX 2 5 1 8
BITMAP
B4
B5
B2
90
40
ENDCHAR
STARTCHAR quotesinglbase
ENCODING 8218
SWIDTH 187 0
DWIDTH 4 0
BBX 2 5 1 -2
BITMAP
96
A6
A4
A1
60
ENDCHAR
STARTCHAR quotedblleft
ENCODING 8220
SWIDTH 329 0
DWIDTH 7 0
BBX 5 5 1 8
BITMAP
130130
550550
950950
B50B50
B40B40
ENDCHAR
STARTCHAR quotedblright
ENCODING 8221
SWIDTH 329 0
DWIDTH 7 0
BBX 5 5 1 8
BITMAP
B40B40
B50B50
B20B20
900900
400400
ENDCHAR
STARTCHAR quotedblbase
ENCODING 8222
SWIDTH 337 0
DWIDTH 7 0
BBX 5 5 1 -2
BITMAP
960960
A60A60
A40A40
900A10
400600
ENDCHAR
STARTCHAR dagger
ENCODING 8224
SWIDTH 427 0
DWIDTH 9 0
BBX 8 13 0 0
BITMAP
0003B000
0003B000
0002A000
0002A000
1CCCECC7
0003B000
0003B000
0003B000
0003B000
0003A000
0002A000
00029000
00018000
ENDCHAR
STARTCHAR daggerdbl
ENCODING 8225
SWIDTH 427 0
DWIDTH 9 0
BBX 8 13 0 0
BITMAP
0003B000
0003B000
0002A000
0002A000
1CCCECC7
0003A000
0003B000
0003B000
0003A000
1DDEEDD8
0002A000
0003B000
0003B000
ENDCHAR
STARTCHAR bullet
ENCODING 8226
SWIDTH 273 0
DWIDTH 5 0
BBX 3 3 1 5
BITMAP
2F90
3F90
2F90
ENDCHAR
STARTCHAR ellipsis
ENCODING 8230
SWIDTH 591 0
DWIDTH 12 0
BBX 10 3 1 0
BITMAP
8500860086
A700A700A7
9600970097
ENDCHAR
STARTCHAR perthousand
ENCODING 8240
SWIDTH 1027 0
DWIDTH 21 0
BBX 19 13 1 0
BITMAP
4DDD5000A20000000000
C201D002B00000000000
D000C108500000000000
D000C11C000000000000
C302D067000000000000
4CDC40C1000000000000
00000490000000000000
00000A31ABB7005BBA20
00002B08500B31C003A0
0000850B200753A000C0
0001C00B200753A000C0
00067009500B31D103B0
000B1002CDD8007DDC30
ENDCHAR
STARTCHAR guilsinglleft
ENCODING 8249
SWIDTH 290 0
DWIDTH 6 0
BBX 4 8 1 1
BITMAP
0003
00A5
0B60
9600
7900
0890
0076
0001
ENDCHAR
STARTCHAR guilsinglright
ENCODING 8250
SWIDTH 290 0
DWIDTH 6 0
BBX 4 8 1 1
BITMAP
3000
8800
0980
0096
01B4
1B50
9500
1000
ENDCHAR
STARTCHAR fraction
ENCODING 8260
SWIDTH 117 0
DWIDTH 2 0
BBX 11 13 -4 0
BITMAP
000000001C10
00000000A400
000000068000
0000003B0000
000001C20000
000009500000
00005A000000
0002C1000000
000B30000000
008700000000
04B000000000
1C1000000000
A40000000000
ENDCHAR
STARTCHAR Euro
ENCODING 8364
SWIDTH 523 0
DWIDTH 10 0
BBX 10 13 0 0
BITMAP
0009DDDB20
007A0006B0
00B40000E1
00C3000091
00C3000000
3DFEDD7000
00C3000000
3DFEDD7000
00C3000000
00C30000A1
00B40000E0
007A0006B0
0009DDDB20
ENDCHAR
STARTCHAR uni20B9
ENCODING 8377
SWIDTH 414 0
DWIDTH 8 0
BBX 8 13 0 0
BITMAP
2DDFFDD8
0001C200
00008600
2DDDEED8
00009600
0002D300
3EDC6000
0C500000
02D10000
007A0000
000B5000
0002D200
00006800
ENDCHAR
STARTCHAR trademark
ENCODING 8482
SWIDTH 591 0
DWIDTH 12 0
BBX 10 5 1 8
BITMAP
9EED1D0078
02701D60B8
0270199758
0270193928
0270180028
ENDCHAR
STARTCHAR uni2126
ENCODING 8486
SWIDTH 629 0
DWIDTH 13 0
BBX 12 13 0 0
BITMAP
002BDDDDD700
00B600001C40
00E000000680
01E000000590
01E000000590
01E000000590
01E000000590
01E000000590
01E000000590
01E000000590
00E000000680
007800002C20
2DDEE70CEEDA
ENDCHAR
STARTCHAR partialdiff
ENCODING 8706
SWIDTH 481 0
DWIDTH 10 0
BBX 8 14 1 0
BITMAP
06DA5000
0014AB10
00000790
000000D1
000000A4
07DDDA95
6B1004F6
B40000A6
C3000096
C3000096
C3000096
B40000A5
6B1004E1
07DDDC40
ENDCHAR
STARTCHAR uni2206
ENCODING 8710
SWIDTH 594 0
DWIDTH 12 0
BBX 12 13 0 0
BITMAP
00000CB00000
00003DE20000
000097970000
0000E23D0000
0005B00D3000
000A50079000
001E1002E000
00790000B500
00C400006B00
03D000001E10
088000000A70
0E20000004C0
4EDDDDDDDDE2
ENDCHAR
STARTCHAR minus
ENCODING 8722
SWIDTH 523 0
DWIDTH 10 0
BBX 8 1 1 6
BITMAP
7DDDDDDD
ENDCHAR
STARTCHAR approxequal
ENCODING 8776
SWIDTH 523 0
DWIDTH 10 0
BBX 9 5 1 4
BITMAP
4CDA611A10
74038CD900
0000000000
0000000000
5CDDDDDA00
ENDCHAR
STARTCHAR notequal
ENCODING 8800
SWIDTH 523 0
DWIDTH 10 0
BBX 8 9 1 2
BITMAP
00000C00
00003900
7EEEEEED
0000C000
0003A000
00076000
7DDFEDDD
002B0000
00740000
ENDCHAR
STARTCHAR lessequal
ENCODING 8804
SWIDTH 523 0
DWIDTH 10 0
BBX 9 8 1 3
BITMAP
0000037C10
0048DB7200
6DA5100000
4CB7300000
0026BD9400
0000015910
0000000000
7DDDDDDD00
ENDCHAR
STARTCHAR greaterequal
ENCODING 8805
SWIDTH 523 0
DWIDTH 10 0
BBX 8 8 1 3
BITMAP
79510000
159DA610
000038CB
000159D9
27BD8400
67200000
00000000
7DDDDDDD
ENDCHAR
STARTCHAR uni25CC
ENCODING 9676
SWIDTH 701 0
DWIDTH 14 0
BBX 12 12 1 1
BITMAP
00002E49C000
007D2C37A880
005B00000AA0
2E5000000000
1C40000000AA
4B1000000088
5D1000000000
0000000000D7
05E1000000A6
04B4C1005E20
0005E2B94B10
000000970000
ENDCHAR
STARTCHAR commaaccent
ENCODING 63171
SWIDTH 0 0
DWIDTH 0 0
BBX 2 4 4 -5
BITMAP
E1
F0
B0
60
ENDCHAR
STARTCHAR .notdef
ENCODING -1
SWIDTH 600 0
DWIDTH 12 0
BBX 8 12 2 0
BITMAP
8EDDDDE8
96000069
96000069
96000069
96000069
96000069
96000069
96000069
96000069
96000069
96000069
8EDDDDE8
ENDCHAR
STARTCHAR .null
ENCODING -1
SWIDTH 0 0
DWIDTH 0 0
BBX 1 1 0 0
BITMAP
00
ENDCHAR
STARTCHAR nonmarkingreturn
ENCODING -1
SWIDTH 333 0
DWIDTH 7 0
BBX 1 1 0 0
BITMAP
00
ENDCHAR
STARTCHAR uni0915094D
ENCODING -1
SWIDTH 519 0
DWIDTH 10 0
BBX 14 13 -1 0
BITMAP
3DDDDDDEFDDDDC
00000003B00000
00000003B00000
0008DD33BADEC3
006B1003F4005B
00B40003C00000
00C30003B00000
00C30003B00000
00B40004B00000
006B101BB00000
0008DDC7B00000
00000003B00000
00000002900000
ENDCHAR
STARTCHAR uni0916094D
ENCODING -1
SWIDTH 468 0
DWIDTH 9 0
BBX 13 13 -1 0
BITMAP
3DDDDFEDDDDD60
00000D20000000
00000D20000000
00000D207D8000
00000D14C10000
00004D08600000
04EDC309500000
01D30008600000
004C0004C10680
000980007DD910
0001D300000000
00005C00000000
00000950000000
ENDCHAR
STARTCHAR uni0917094D
ENCODING -1
SWIDTH 264 0
DWIDTH 5 0
BBX 7 8 -1 5
BITMAP
3DDEFD70
0005A000
0005A000
0005A000
0005A000
00069000
001B6000
08D80000
ENDCHAR
STARTCHAR uni0918094D
ENCODING -1
SWIDTH 321 0
DWIDTH 6 0
BBX 10 11 -1 2
BITMAP
3DDFEDDDDB
004B000000
0086000000
0087000000
004C100000
000AFD6000
005B100000
0086000000
0087000000
005C10005B
0007DDDDA2
ENDCHAR
STARTCHAR uni0919094D
ENCODING -1
SWIDTH 505 0
DWIDTH 10 0
BBX 12 18 -1 -5
BITMAP
3DDDDDDEFDD4
00000004A000
00000004A000
0009DDDE8000
005B00000000
007700000750
005B10000000
0008DDDD6000
00000002E200
00110000B400
00850000B400
006A0002E100
0009DDDC5000
000000000000
000007700000
000001D30000
0000004C0000
000000041000
ENDCHAR
STARTCHAR uni091A094D
ENCODING -1
SWIDTH 330 0
DWIDTH 7 0
BBX 10 11 -1 2
BITMAP
3DDDDDDDDD
0000000000
0000000000
0000000000
07DDEED500
0007900000
000C200000
000D100000
000C200000
0008A1004C
00008DDDB2
ENDCHAR
STARTCHAR uni091B094D
ENCODING -1
SWIDTH 581 0
DWIDTH 12 0
BBX 13 12 -1 1
BITMAP
3DDFFDDDDDDDB0
003C1000000000
00780000000000
00780004DC4000
0078000003E000
003D200000C200
0009FD2000C200
004C100000C200
0078000000C200
0078000000D100
004C100005C000
0007DDDDDB2000
ENDCHAR
STARTCHAR uni091C094D
ENCODING -1
SWIDTH 309 0
DWIDTH 6 0
BBX 10 12 -1 1
BITMAP
3DDDDDDDD3
0000000000
0000000000
0000000000
007DEEDDD3
00002C3000
0000078000
0000068000
0000068000
0000077000
00002D3000
05DDD60000
ENDCHAR
STARTCHAR uni091D094D
ENCODING -1
SWIDTH 432 0
DWIDTH 9 0
BBX 12 14 -1 -1
BITMAP
3DDDDDEFEDD9
0000000E0000
0000000E0000
0009DDDD0000
006A00000000
008700000000
006B10000000
0009DDEEEDD9
000000097000
009400059000
00A900097000
00A9DDDA1000
00A400000000
009400000000
ENDCHAR
STARTCHAR uni091E094D
ENCODING -1
SWIDTH 359 0
DWIDTH 7 0
BBX 11 11 -1 2
BITMAP
3DDDDDDDDD20
000000000000
000000000000
00ADD8000000
000009600000
000002A00000
000001C00000
000001FDDD20
000002C00000
000009900000
01DDDA100000
ENDCHAR
STARTCHAR uni091F094D
ENCODING -1
SWIDTH 485 0
DWIDTH 10 0
BBX 11 17 -1 -4
BITMAP
3DDDDDDEFDC0
000000069000
000000069000
000000069000
0007DDDE7000
005C10000000
009500000000
00A400000000
00A400003900
009500004A00
005C2001B500
0007CDDD7000
000000000000
000003400000
000001D20000
0000005B0000
0000000A3000
ENDCHAR
STARTCHAR uni0920094D
ENCODING -1
SWIDTH 512 0
DWIDTH 10 0
BBX 12 17 -1 -4
BITMAP
3DDDDDDEFDD7
00000002D000
00000002C000
000000079000
0007DDEF7000
005C1001B600
009500004A00
00A400003B00
00A400003B00
009500004A00
005C2001B600
0007DDDD7000
000000000000
000004300000
000002D10000
000000890000
0000000B2000
ENDCHAR
STARTCHAR uni0921094D
ENCODING -1
SWIDTH 475 0
DWIDTH 10 0
BBX 11 18 -1 -5
BITMAP
3DDDDDDEFDA0
00000004A000
00000004A000
0009DDDE8000
005A00000000
007700000000
005A00000000
0009DDDD6000
00000002E200
00210000B400
00860000B400
005A0003E100
0008DDDC5000
000000000000
000005900000
000000C40000
0000003D1000
000000042000
ENDCHAR
STARTCHAR uni0922094D
ENCODING -1
SWIDTH 485 0
DWIDTH 10 0
BBX 11 17 -1 -4
BITMAP
3DDDDDDEFDD0
00000004B000
00000004B000
00000004B000
0006DDDE9000
005C10000000
009600000000
0095009DC300
009502C05A00
009502603B00
004C10008800
0006CDDDA100
000000000000
000003400000
000001D10000
0000006A0000
0000000B3000
ENDCHAR
STARTCHAR uni0923094D
ENCODING -1
SWIDTH 454 0
DWIDTH 9 0
BBX 11 9 -1 4
BITMAP
3DEFDDDFED40
005900086000
005900086000
005900086000
005900086000
005900086000
005900095000
002D202D2000
0005CDC50000
ENDCHAR
STARTCHAR uni0924094D
ENCODING -1
SWIDTH 263 0
DWIDTH 5 0
BBX 9 13 -1 0
BITMAP
3DDDDDDD30
0000000000
0000000000
0000000000
0008DDDD30
006B100000
0095000000
00A4000000
00A4000000
00A4000000
0095000000
005C100000
0007D90000
ENDCHAR
STARTCHAR uni0925094D
ENCODING -1
SWIDTH 359 0
DWIDTH 7 0
BBX 9 11 1 2
BITMAP
06DDA00000
2D10960000
3A00590000
1300680000
0001B50000
BEDD800000
C300000000
B300000000
9600000120
3D30001B50
05CDDDC500
ENDCHAR
STARTCHAR uni0926094D
ENCODING -1
SWIDTH 489 0
DWIDTH 10 0
BBX 11 17 -1 -4
BITMAP
3DDDDDDEFED0
00000000F000
00000000F000
0006DDDDD000
004C20000000
008600000000
00A500000000
00A500000000
008600009400
004C2002D400
0006CDDBB400
00000000A400
000001009400
000006900000
000000C30000
0000004C0000
000000041000
ENDCHAR
STARTCHAR uni0927094D
ENCODING -1
SWIDTH 321 0
DWIDTH 6 0
BBX 11 11 -1 2
BITMAP
3DDFEA0ADD10
004B00000000
008600000000
008700000000
004C10000000
000AFD600000
005B10000000
008600000000
008700000000
005C10005B00
0007DDDDA200
ENDCHAR
STARTCHAR uni0928094D
ENCODING -1
SWIDTH 233 0
DWIDTH 5 0
BBX 8 9 -1 4
BITMAP
3DDDDDD8
00000000
00000000
00000000
00000000
008DDDD8
03D10000
03B00000
01B00000
ENDCHAR
STARTCHAR uni092A094D
ENCODING -1
SWIDTH 269 0
DWIDTH 5 0
BBX 9 9 -1 4
BITMAP
3DEFDDDDC0
0069000000
0059000000
0059000000
0059000000
0059000000
005A000000
001D3005B0
0004CDDA20
ENDCHAR
STARTCHAR uni092B094D
ENCODING -1
SWIDTH 530 0
DWIDTH 11 0
BBX 15 13 -1 0
BITMAP
3DEFDDDEFEDDDD30
00590000E0000000
00590000E0000000
00590000E7DED600
00590000E8002C10
00590000E1000000
004A0000F0000000
001D3008F0000000
0004CDD7E0000000
00000000E0000000
00000000E0000000
00000000E0000000
00000000C0000000
ENDCHAR
STARTCHAR uni092C094D
ENCODING -1
SWIDTH 265 0
DWIDTH 5 0
BBX 9 11 -1 2
BITMAP
3DDDDDDDA0
0000000000
0000000000
0007DD6000
006E200000
00A7B10000
00B33B1000
00B303B160
00A4003BC0
006B100890
0007DDD910
ENDCHAR
STARTCHAR uni092D094D
ENCODING -1
SWIDTH 261 0
DWIDTH 5 0
BBX 9 10 -1 3
BITMAP
3D9000DD40
00A5000000
0068000000
0068000000
0068000000
0069000000
006FDDDD40
0069000000
0068000000
0023000000
ENDCHAR
STARTCHAR uni092E094D
ENCODING -1
SWIDTH 261 0
DWIDTH 5 0
BBX 9 10 -1 3
BITMAP
3DEFDDDD40
0068000000
0068000000
0068000000
0068000000
0068000000
006FDDDD40
0068000000
0068000000
0023000000
ENDCHAR
STARTCHAR uni092F094D
ENCODING -1
SWIDTH 323 0
DWIDTH 6 0
BBX 10 11 -1 2
BITMAP
3DDEFEDDD5
00002C1000
00000A4000
00000B4000
00002D1000
009EC50000
00A5000000
00A5000000
0087000001
003D30006C
0004BDDD91
ENDCHAR
STARTCHAR uni0930094D
ENCODING -1
SWIDTH 337 0
DWIDTH 7 0
BBX 8 18 -1 -5
BITMAP
3DDDDFED
00000D20
00000D20
00000D20
00000D10
00004D00
04EDC300
01D30000
005C0000
000A6000
0002D100
00006A00
00000C40
00000000
0002C100
00008800
00001D30
00000230
ENDCHAR
STARTCHAR uni0932094D
ENCODING -1
SWIDTH 431 0
DWIDTH 9 0
BBX 13 12 -1 1
BITMAP
3DDDDDDDDDDD30
00000000000000
00000000000000
00000000000000
0007DDA2ADD600
004C106E701910
0086000E100000
0096000E000000
00960009000000
00860000000000
004C2000000000
0007CD70000000
ENDCHAR
STARTCHAR uni0933094D
ENCODING -1
SWIDTH 677 0
DWIDTH 14 0
BBX 15 12 -1 1
BITMAP
3DDDDDDDDDDDDDA0
0000000000000000
0000000000000000
0000000000000000
0007DDB28DDA2000
005B105E9106B000
0095000D3000E000
00A4000C2000E000
00A4000C2000E000
0095000D3000E000
005B105EA106B000
0007DDB28DDA1000
ENDCHAR
STARTCHAR uni0935094D
ENCODING -1
SWIDTH 255 0
DWIDTH 5 0
BBX 9 11 -1 2
BITMAP
3DDDDDDDA0
0000000000
0000000000
0007DD6000
006B100000
00A4000000
00B3000000
00B3000060
00A40000C0
006B100790
0007DDD910
ENDCHAR
STARTCHAR uni0936094D
ENCODING -1
SWIDTH 378 0
DWIDTH 8 0
BBX 7 13 0 0
BITMAP
009DDA10
05B00880
087004A0
054004B0
000005A0
00001B60
2EDDD800
0B600000
02D10000
007A0000
000C4000
0003D100
00008600
ENDCHAR
STARTCHAR uni0937094D
ENCODING -1
SWIDTH 282 0
DWIDTH 6 0
BBX 10 9 -1 4
BITMAP
3DEEDDDDD2
005E300000
005AB20000
00592B1000
005903B000
0059005A00
005A0006A1
001D3005D1
0004CDDA10
ENDCHAR
STARTCHAR uni0938094D
ENCODING -1
SWIDTH 338 0
DWIDTH 7 0
BBX 11 13 -1 0
BITMAP
3DDDEFDDDD10
00004B000000
00004B000000
00004B000000
00005A000000
0001A5000000
04EEEDDDDD10
01D300000000
005B00000000
000C40000000
0004C0000000
0000B6000000
00002B000000
ENDCHAR
STARTCHAR uni0939094D
ENCODING -1
SWIDTH 457 0
DWIDTH 9 0
BBX 13 14 -1 -1
BITMAP
3DDDDDDEFDB000
00000002D00000
00000002D00000
0007DDDEB00000
004C1000000000
00690000000000
003C1000000000
0008FEDDDDDD20
002D2000000000
00780000000000
00870000000000
00680000000000
002D3000000000
0004CDDDC00000
ENDCHAR
STARTCHAR uni0915093C094D
ENCODING -1
SWIDTH 519 0
DWIDTH 10 0
BBX 14 14 -1 -1
BITMAP
3DDDDDDEFDDDDC
00000003B00000
00000003B00000
0008DD33BADEC3
006B1003F5005B
00B40003C00000
00C30003B00000
00C30003B00000
00B40004B00000
006B101BB00000
0008DDC7B00000
00000003B00000
00000003B00000
00094000200000
ENDCHAR
STARTCHAR uni0916093C094D
ENCODING -1
SWIDTH 463 0
DWIDTH 9 0
BBX 13 14 -1 -1
BITMAP
3DDDDFEDDDDD60
00000D20000000
00000D20000000
00000D207D8000
00000D14C10000
00004D08600000
04EDC309500000
01D30008600000
005C0004C10680
000B60007DD910
0002E100000000
00007A00000000
00000C40000000
00850110000000
ENDCHAR
STARTCHAR uni0917093C094D
ENCODING -1
SWIDTH 264 0
DWIDTH 5 0
BBX 7 13 -1 0
BITMAP
3DDEFD70
0005A000
0005A000
0005A000
0005A000
00069000
001B6000
08D80000
00000000
00000000
00000000
00000000
000C1000
ENDCHAR
STARTCHAR uni091C093C094D
ENCODING -1
SWIDTH 314 0
DWIDTH 6 0
BBX 10 15 -1 -2
BITMAP
3DDDDDDDD3
0000000000
0000000000
0000000000
007DEEDDD3
00002C3000
0000078000
0000068000
0000068000
0000077000
00002D3000
05DDD60000
0000000000
0000000000
002B000000
ENDCHAR
STARTCHAR uni0928093C094D
ENCODING -1
SWIDTH 241 0
DWIDTH 5 0
BBX 8 13 -1 0
BITMAP
1DDDDDDA
00000000
00000000
00000000
00000000
006DDDDA
00E20000
00D00000
00910000
00000000
00000000
00000000
00067000
ENDCHAR
STARTCHAR uni092B093C094D
ENCODING -1
SWIDTH 530 0
DWIDTH 11 0
BBX 15 14 -1 -1
BITMAP
3DEFDDDEFEDDDD30
00590000E0000000
00590000E0000000
00590000E7DED600
00590000E8002C10
00590000E1000000
004A0000F0000000
001D3008F0000000
0004CDD7E0000000
00000000E0000000
00000000E0000000
00000000E0000000
00000000E0000000
0002B00040000000
ENDCHAR
STARTCHAR uni092F093C094D
ENCODING -1
SWIDTH 325 0
DWIDTH 7 0
BBX 10 14 -1 -1
BITMAP
3DDEFEDDD5
00002C1000
00000A4000
00000B4000
00002D1000
009EC50000
00A5000000
00A5000000
0087000001
003D30006C
0004BDDD91
0000000000
0000000000
0000C00000
ENDCHAR
STARTCHAR uni09080902
ENCODING -1
SWIDTH 478 0
DWIDTH 10 0
BBX 11 19 -1 -1
BITMAP
0000002BDD10
000000B60000
000000E06600
000000F00000
000000D20000
3DDDDDDEFDA0
00000004B000
00000004B000
0009DDDE9000
006A00000000
008600000000
006A00000000
0009DDDD6000
00000001D200
00000000A400
00940000A400
009A0002D200
0099CDDD6000
009400000000
ENDCHAR
STARTCHAR uni09300941
ENCODING -1
SWIDTH 533 0
DWIDTH 11 0
BBX 12 13 -1 0
BITMAP
3DDDDFEDDDDC
00000D200000
00000D200000
00000DEDD600
00000D101C30
00004D000850
04EDC3000950
01D300000C30
004C00008B00
000A700CB100
0001D2030000
00005B000000
00000A400000
ENDCHAR
STARTCHAR uni09300942
ENCODING -1
SWIDTH 645 0
DWIDTH 13 0
BBX 15 13 -1 0
BITMAP
3DDDDFEDDDDDDD20
00000D2000000000
00000D2000000000
00000D208DD90000
00000D14C1096000
00004D0680049000
04EDC30670049000
01D3000000077000
004C0000004D2000
000970002AC20000
0001D20066000000
00005B0000000000
00000A4000000000
ENDCHAR
STARTCHAR uni09390941
ENCODING -1
SWIDTH 495 0
DWIDTH 10 0
BBX 12 18 -1 -5
BITMAP
3DDDDDDEFDD2
00000002D000
00000002D000
0007DDDEB000
004C10000000
006900000000
003C10000000
0008FEDC4000
002D2003E000
00780000C200
008700006100
006800000000
002D30000000
0004CDDDA100
001000008800
00B500005900
002D6000A600
00029DDD8000
ENDCHAR
STARTCHAR uni09390942
ENCODING -1
SWIDTH 492 0
DWIDTH 10 0
BBX 11 18 -1 -5
BITMAP
3DDDDDDEFDB0
00000002D000
00000002D000
0007DDDEB000
004C10000000
006900000000
003C10000000
0008FEDC4000
002D2003D000
00680000C200
008700009200
007800000000
002E30000000
0008FED91000
000D2006C000
002C0000A500
000D10002C00
0006DD200610
ENDCHAR
STARTCHAR uni09260943
ENCODING -1
SWIDTH 390 0
DWIDTH 8 0
BBX 10 12 -1 1
BITMAP
3DDDDDFED1
000000B400
000000B400
0008DDE200
005B100000
0077000000
004B100000
000BFD7000
004A000000
0077000000
005B100000
0008DDDA00
ENDCHAR
STARTCHAR uni09390943
ENCODING -1
SWIDTH 519 0
DWIDTH 10 0
BBX 12 16 -1 -3
BITMAP
3DDDDDDEFDD8
00000002C000
00000002C000
0009DDDEA000
006A00000000
008600000000
006A00000000
000BFDEEDA00
005C14A00A50
00A507700650
00B407700000
00B404B00000
00B4009DDD00
009500000000
004C20000000
0006CDDDB000
ENDCHAR
STARTCHAR uni094D0930
ENCODING -1
SWIDTH 0 0
DWIDTH 0 0
BBX 6 4 -8 -4
BITMAP
00CB00
089A70
3D11D3
C4004C
ENDCHAR
STARTCHAR uni0930094D.1
ENCODING -1
SWIDTH 192 0
DWIDTH 4 0
BBX 8 6 -2 7
BITMAP
03DDDD10
00000000
00000000
00000001
4B20005B
06CDDDA1
ENDCHAR
STARTCHAR uni0930094D.2
ENCODING -1
SWIDTH 0 0
DWIDTH 0 0
BBX 4 6 -3 12
BITMAP
1BD5
9700
C300
C200
C200
A400
ENDCHAR
STARTCHAR uni0930094D0902
ENCODING -1
SWIDTH 0 0
DWIDTH 0 0
BBX 4 6 -3 12
BITMAP
1BD5
9700
C300
C2A2
C200
A400
ENDCHAR
STARTCHAR uni093E0930094D
ENCODING -1
SWIDTH 231 0
DWIDTH 5 0
BBX 6 18 -1 0
BITMAP
0005DD
000E20
002C00
002C00
003C00
3DEFDB
002C00
002C00
002C00
002C00
002C00
002C00
002C00
002C00
002C00
002C00
002C00
002A00
ENDCHAR
STARTCHAR uni093E0930094D0902
ENCODING -1
SWIDTH 231 0
DWIDTH 5 0
BBX 7 18 -1 0
BITMAP
0005DD00
001E2000
002C0B10
002C0000
003C0000
3DEFDB00
002C0000
002C0000
002C0000
002C0000
002C0000
002C0000
002C0000
002C0000
002C0000
002C0000
002C0000
002A0000
ENDCHAR
STARTCHAR uni0930094D.aMatraI
ENCODING -1
SWIDTH 0 0
DWIDTH 0 0
BBX 4 4 -1 13
BITMAP
3CD3
C500
E000
E000
ENDCHAR
STARTCHAR uni0902.aMatraI
ENCODING -1
SWIDTH 0 0
DWIDTH 0 0
BBX 2 1 0 15
BITMAP
2C
ENDCHAR
STARTCHAR uni0930094D0902.aMatraI
ENCODING -1
SWIDTH 0 0
DWIDTH 0 0
BBX 4 4 -1 13
BITMAP
3CD3
C500
E0B1
E000
ENDCHAR
STARTCHAR uni09400930094D
ENCODING -1
SWIDTH 231 0
DWIDTH 5 0
BBX 9 18 -3 0
BITMAP
1ADEA4DD10
97008E2000
C2003C0000
81002C0000
00003C0000
003DEFDB00
00002C0000
00002C0000
00002C0000
00002C0000
00002C0000
00002C0000
00002C0000
00002C0000
00002C0000
00002C0000
00002C0000
00002A0000
ENDCHAR
STARTCHAR uni09400902
ENCODING -1
SWIDTH 231 0
DWIDTH 5 0
BBX 8 18 -3 0
BITMAP
1ADDA100
97008900
C2003C1C
81002C00
00003C00
003DEFDB
00002C00
00002C00
00002C00
00002C00
00002C00
00002C00
00002C00
00002C00
00002C00
00002C00
00002C00
00002A00
ENDCHAR
STARTCHAR uni09400930094D0902
ENCODING -1
SWIDTH 231 0
DWIDTH 5 0
BBX 9 18 -3 0
BITMAP
2BDEA4DD10
A7008E2000
D2003C0A10
20002C0000
00003C0000
003DEFDB00
00002C0000
00002C0000
00002C0000
00002C0000
00002C0000
00002C0000
00002C0000
00002C0000
00002C0000
00002C0000
00002C0000
00002A0000
ENDCHAR
STARTCHAR uni0940.aLong
ENCODING -1
SWIDTH 231 0
DWIDTH 5 0
BBX 13 18 -8 0
BITMAP
1ADDDDDDDA1000
89000000089000
B400000003C000
7200000002C000
0000000003C000
00000003DEFDB0
0000000002C000
0000000002C000
0000000002C000
0000000002C000
0000000002C000
0000000002C000
0000000002C000
0000000002C000
0000000002C000
0000000002C000
0000000002C000
0000000002A000
ENDCHAR
STARTCHAR uni09400930094D.aLong
ENCODING -1
SWIDTH 231 0
DWIDTH 5 0
BBX 13 18 -8 0
BITMAP
1ADDDDDDD94DD0
8900000008E200
B400000003C000
7200000002C000
0000000003C000
00000003DEFDB0
0000000002C000
0000000002C000
0000000002C000
0000000002C000
0000000002C000
0000000002C000
0000000002C000
0000000002C000
0000000002C000
0000000002C000
0000000002C000
0000000002A000
ENDCHAR
STARTCHAR uni09400902.aLong
ENCODING -1
SWIDTH 231 0
DWIDTH 5 0
BBX 14 18 -8 0
BITMAP
1ADDDDDDDA1000
89000000089000
B400000003C0B3
7200000002C000
0000000003C000
00000003DEFDB0
0000000002C000
0000000002C000
0000000002C000
0000000002C000
0000000002C000
0000000002C000
0000000002C000
0000000002C000
0000000002C000
0000000002C000
0000000002C000
0000000002A000
ENDCHAR
STARTCHAR uni09400930094D0902.aLong
ENCODING -1
SWIDTH 231 0
DWIDTH 5 0
BBX 14 18 -8 0
BITMAP
1ADDDDDDD95DD0
9800000008E200
B300000003C0A2
2000000002C000
0000000003C000
00000003DEFDB0
0000000002C000
0000000002C000
0000000002C000
0000000002C000
0000000002C000
0000000002C000
0000000002C000
0000000002C000
0000000002C000
0000000002C000
0000000002C000
0000000002A000
ENDCHAR
STARTCHAR uni09470930094D
ENCODING -1
SWIDTH 0 0
DWIDTH 0 0
BBX 7 5 -6 13
BITMAP
D402BD50
4D196000
079A2000
009E2000
000B3000
ENDCHAR
STARTCHAR uni09470902
ENCODING -1
SWIDTH 0 0
DWIDTH 0 0
BBX 7 6 -7 12
BITMAP
1E300000
07C00000
00C703A0
003E2000
0007C000
00009700
ENDCHAR
STARTCHAR uni09470901
ENCODING -1
SWIDTH 0 0
DWIDTH 0 0
BBX 10 6 -6 12
BITMAP
D300009300
6C0680000D
0B73C1005B
02E27DDDB2
006C000000
0009700000
ENDCHAR
STARTCHAR uni09470930094D0902
ENCODING -1
SWIDTH 0 0
DWIDTH 0 0
BBX 7 5 -6 13
BITMAP
D402CD50
4E296000
07CB2920
00AF2000
000B3000
ENDCHAR
STARTCHAR uni09480930094D
ENCODING -1
SWIDTH 0 0
DWIDTH 0 0
BBX 8 6 -7 12
BITMAP
690776D6
0C479B10
03C5C500
0088E300
000AD200
0002E300
ENDCHAR
STARTCHAR uni09480902
ENCODING -1
SWIDTH 0 0
DWIDTH 0 0
BBX 8 6 -7 12
BITMAP
3D10B200
0980C200
01D2B286
005BA200
0009C200
0001C300
ENDCHAR
STARTCHAR uni09480901
ENCODING -1
SWIDTH 0 0
DWIDTH 0 0
BBX 13 6 -7 12
BITMAP
3D10B2002A0000
0980C2C1000770
01D2B2A6000B40
005BA22BDDD800
000AC200000000
0001C400000000
ENDCHAR
STARTCHAR uni09480930094D0902
ENCODING -1
SWIDTH 0 0
DWIDTH 0 0
BBX 8 6 -7 12
BITMAP
690776D6
0C379B10
03C5C500
0088E392
000AD200
0002E300
ENDCHAR
STARTCHAR uni094B0930094D
ENCODING -1
SWIDTH 231 0
DWIDTH 5 0
BBX 7 18 -2 0
BITMAP
5C005DD0
0B70D200
01D3C000
004CC000
0007C000
03DEFDB0
0002C000
0002C000
0002C000
0002C000
0002C000
0002C000
0002C000
0002C000
0002C000
0002C000
0002C000
0002A000
ENDCHAR
STARTCHAR uni094B0902
ENCODING -1
SWIDTH 231 0
DWIDTH 5 0
BBX 7 18 -2 0
BITMAP
5B000000
0B600000
01D20C10
004B0000
00076000
03DEFDB0
0002C000
0002C000
0002C000
0002C000
0002C000
0002C000
0002C000
0002C000
0002C000
0002C000
0002C000
0002A000
ENDCHAR
STARTCHAR uni094B0930094D0902
ENCODING -1
SWIDTH 231 0
DWIDTH 5 0
BBX 8 18 -2 0
BITMAP
5C106DD0
0AA0E200
01D7C0A1
003FC000
0007C000
03DEFDB0
0002C000
0002C000
0002C000
0002C000
0002C000
0002C000
0002C000
0002C000
0002C000
0002C000
0002C000
0002A000
ENDCHAR
STARTCHAR uni094C0930094D
ENCODING -1
SWIDTH 231 0
DWIDTH 5 0
BBX 8 18 -2 0
BITMAP
B50D3AD1
2D1C9600
069AB000
00AAB000
001BC000
03DEFDB0
0002C000
0002C000
0002C000
0002C000
0002C000
0002C000
0002C000
0002C000
0002C000
0002C000
0002C000
0002A000
ENDCHAR
STARTCHAR uni094C0902
ENCODING -1
SWIDTH 231 0
DWIDTH 5 0
BBX 7 18 -2 0
BITMAP
7902C000
0C42C000
02C2C1C0
0068C000
0008B000
03DEFDB0
0002C000
0002C000
0002C000
0002C000
0002C000
0002C000
0002C000
0002C000
0002C000
0002C000
0002C000
0002A000
ENDCHAR
STARTCHAR uni094C0930094D0902
ENCODING -1
SWIDTH 231 0
DWIDTH 5 0
BBX 8 18 -2 0
BITMAP
B50D3AD1
2D1C9600
06AAB0B1
00AAB000
001BC000
03DEFDB0
0002C000
0002C000
0002C000
0002C000
0002C000
0002C000
0002C000
0002C000
0002C000
0002C000
0002C000
0002A000
ENDCHAR
STARTCHAR uni0915094D0937
ENCODING -1
SWIDTH 656 0
DWIDTH 13 0
BBX 13 13 1 0
BITMAP
008DDA100AED50
06A008700C3000
0A4002B00C3000
094002B00C3000
04A109600C3000
19EEEEDDDF3000
790000000C3000
A50000000C3000
B40003A00C3000
A50004B00C3000
79001AB00C3000
19DDD9B00C3000
000003A0092000
ENDCHAR
STARTCHAR uni0915094D0937094D
ENCODING -1
SWIDTH 429 0
DWIDTH 9 0
BBX 10 13 1 0
BITMAP
008DDA1000
06A0087000
0A4002B000
094002B000
04A1096000
19EEEEDDDB
7900000000
A500000000
B40003A000
A50004B000
79001AB000
19DDD9B000
000003A000
ENDCHAR
STARTCHAR uni0915094D0937094D092E
ENCODING -1
SWIDTH 933 0
DWIDTH 19 0
BBX 18 13 1 0
BITMAP
008DDA109FEDDDEFDC
06A008700860002D00
0A4002B00860002D00
094002B00860002D00
04A109600860002D00
19EEEEDDDE60002D00
7900000008EDDDED00
A50000000860002D00
B40003A00860002D00
A50004B00530002D00
79001AB00000002D00
19DDD9B00000002D00
000003A00000001A00
ENDCHAR
STARTCHAR uni0915094D0937094D092E094D
ENCODING -1
SWIDTH 717 0
DWIDTH 14 0
BBX 16 13 1 0
BITMAP
008DDA109FEDDDD7
06A0087008600000
0A4002B008600000
094002B008600000
04A1096008600000
19EEEEDDDE600000
7900000008EDDDD7
A500000008600000
B40003A008600000
A50004B005300000
79001AB000000000
19DDD9B000000000
000003A000000000
ENDCHAR
STARTCHAR uni0915094D0937094D092E094D092F
ENCODING -1
SWIDTH 1283 0
DWIDTH 26 0
BBX 25 13 1 0
BITMAP
008DDA109FEDDDDDEFDDDEFDC0
06A00870086000000A5002C000
0A4002B008600000059002C000
094002B00860000005A002C000
04A10960086000001A6002C000
19EEEEDDDE60003ED90002C000
7900000008EDDDEB000002C000
A50000000860004B000002C000
B40003A00860002C000004C000
A50004B00320000B70002CC000
79001AB0000000019DDDC6C000
19DDC7B000000000000002C000
000003A000000000000001A000
ENDCHAR
STARTCHAR uni0915094D0937094D092F
ENCODING -1
SWIDTH 989 0
DWIDTH 20 0
BBX 19 13 1 0
BITMAP
008DDA108DEFEDDEFED0
06A0087000087000E000
0A4002B00003B000E000
094002B00003B000E000
04A1096000088000E000
19EEEEDDEEDA1000E000
790000002C000000E000
A50000002C000000E000
B40003A00E000002E000
A50004B00991002BE000
7A001AB0008DDDC5E000
19DDC7B000000000E000
000003A000000000B000
ENDCHAR
STARTCHAR uni0915094D0937094D0935
ENCODING -1
SWIDTH 936 0
DWIDTH 19 0
BBX 18 13 1 0
BITMAP
008DDA108DDDDDEFDD
06A008700000001D00
0A4002B00000001D00
094002B0007DD51D00
04A1096005B1001D00
19EEEEDDDE50001D00
790000000A40001D00
A50000000A40001D00
B40003A00950002D00
A50004B005C101AD00
79001AB0007DDD7D00
19DDC7B00000001D00
000003A00000001A00
ENDCHAR
STARTCHAR uni091C094D091E
ENCODING -1
SWIDTH 629 0
DWIDTH 13 0
BBX 14 14 -1 -1
BITMAP
3DDDDDDDDDEFDA
00000000004A00
00000000004A00
0009DDDDDDEA00
006B1000004A00
00870000004A00
006B1000004A00
0009DDDC404A00
00000003E04A00
00850000D14A00
009A1003E04A00
009ACDDC404A00
00960000002600
00850000000000
ENDCHAR
STARTCHAR uni091C094D091E094D
ENCODING -1
SWIDTH 398 0
DWIDTH 8 0
BBX 11 14 -1 -1
BITMAP
3DDDDDDDDDD0
000000000000
000000000000
0009DDDDDDD0
006B10000000
008700000000
006B10000000
0009DDDC4000
00000003E000
00850000D100
009A1003E000
009ACDDC4000
009600000000
008500000000
ENDCHAR
STARTCHAR uni091C094D091E094D092F
ENCODING -1
SWIDTH 975 0
DWIDTH 20 0
BBX 21 14 -1 -1
BITMAP
3DDDDDDDDDDDFFDDDEFDA0
0000000000000B3004A000
000000000000077004A000
0009DDDDDDA0077004A000
006B100000B51B5004A000
00870000008ED80004A000
006B10000087000004A000
0009DDDC4077000005A000
00000002E05A000007A000
00850000D11D50003DA000
009A1003E002ADDDB7A000
009ACDDC4000000004A000
0096000000000000026000
0085000000000000000000
ENDCHAR
STARTCHAR uni0915094D0928
ENCODING -1
SWIDTH 1003 0
DWIDTH 20 0
BBX 22 13 -1 0
BITMAP
3DDDDDDEFDDDDDDDDDFED4
00000003B000000000B300
00000003B000000000B300
0008DD33BADDB30000B300
006B1003F4004D0000B300
00B40003C0001EEDDDF300
00C30003B0006A0000B300
00C30003B000780000B300
00B40004B000380000B300
006B101BB000000000B300
0008DDC7B000000000B300
00000003B000000000B300
0000000290000000009200
ENDCHAR
STARTCHAR uni0916094D0928
ENCODING -1
SWIDTH 958 0
DWIDTH 19 0
BBX 21 13 -1 0
BITMAP
3DDDDFEDDDDDDDDDDFED50
00000D20000000000A5000
00000D20000000000A5000
00000D207DDB20000A5000
00000D15C107C0000A5000
00004D096000FEDDDF5000
04EDC3096003C0000A5000
01D30005C10690000A5000
004C00007DDEB0000A5000
000980000000A0000A5000
0001D300000000000A5000
00005C00000000000A5000
0000095000000000084000
ENDCHAR
STARTCHAR uni0917094D0928
ENCODING -1
SWIDTH 736 0
DWIDTH 15 0
BBX 16 13 -1 0
BITMAP
3DDEFDDDDDDDEFDD
0005A00000001E00
0005A00000001E00
0005A00000001E00
0005A00000001E00
00069004DDDDEE00
001B600C50001E00
08D8000B30001E00
0000000430001E00
0000000000001E00
0000000000001E00
0000000000001E00
0000000000001B00
ENDCHAR
STARTCHAR uni0918094D0928
ENCODING -1
SWIDTH 814 0
DWIDTH 16 0
BBX 18 13 -1 0
BITMAP
3DDFEDDDDDDDDDEED7
004B00000000008700
008700000000008700
007700000000008700
001A10000000008700
001CFD6008DDDDE700
007B10002D10008700
008700004B00008700
004B10019D00008700
0006CDDD8C10008700
000000000000008700
000000000000008700
000000000000006600
ENDCHAR
STARTCHAR uni091A094D0928
ENCODING -1
SWIDTH 829 0
DWIDTH 17 0
BBX 18 13 -1 0
BITMAP
3DDDDDDDDDDDDDEFDB
000000000000003C00
000000000000003C00
000000000000003C00
07DDEED50000003C00
0007900004DDDDEC00
000C20000D40003C00
000C20000E00003C00
000891006F20003C00
00019DDDA950003C00
000000000000003C00
000000000000003C00
000000000000002A00
ENDCHAR
STARTCHAR uni091B094D0928
ENCODING -1
SWIDTH 977 0
DWIDTH 20 0
BBX 21 13 -1 0
BITMAP
3DDFFDDDDDDDDDDDDEFDA0
003C10000000000004B000
007800000000000004B000
00780004DC40000004B000
0068000003E0000004B000
002B200000C25DDDDEB000
000AFD2000C2E20004B000
005C100000C2E00004B000
0078000000C2B20004B000
0078000000D1000004B000
003C100005C0000004B000
0006DDDDDB20000004B000
0000000000000000039000
ENDCHAR
STARTCHAR uni091C094D0928
ENCODING -1
SWIDTH 831 0
DWIDTH 17 0
BBX 18 13 -1 0
BITMAP
3DDDDDDDDDDDDDEFDB
000000000000003C00
000000000000003C00
000000000000003C00
000000000000003C00
007DEEDDDEEDDDEC00
00001C300D30003C00
000007800E10003C00
000006800730003C00
000007800000003C00
00001C400000003C00
05DDD7000000003C00
000000000000002A00
ENDCHAR
STARTCHAR uni091D094D0928
ENCODING -1
SWIDTH 935 0
DWIDTH 19 0
BBX 20 14 -1 -1
BITMAP
3DDDDDEFEDDDDDDDEFDC
0000000E000000001D00
0000000E000000001D00
0009DDDD000000001D00
006A0000000000002D00
008700000002CDDDED00
006B1000000950002D00
0009DDEEEDDF20001D00
00000009700B40001D00
00940005900210001D00
00A90009700000001D00
00A9DDDA100000001D00
00A40000000000001D00
00940000000000000100
ENDCHAR
STARTCHAR uni091F094D0928
ENCODING -1
SWIDTH 494 0
DWIDTH 10 0
BBX 12 18 -1 -5
BITMAP
3DDDDDDEFDD1
00000004B000
00000004B000
00000004B000
0006DDDE9000
004C10000000
009600000000
00A400001D00
009600002C00
004C2001A800
0006CDDED000
00000003C000
00000003C000
001BEDDEC000
00890003C000
00860003C000
00470003C000
00000002C000
ENDCHAR
STARTCHAR uni0920094D0928
ENCODING -1
SWIDTH 516 0
DWIDTH 10 0
BBX 12 18 -1 -5
BITMAP
3DDDDDDEFED8
00000001E000
00000001D000
00000006A000
0007DDEF8000
005C1001A700
009500003C00
00A400002C00
009500003C00
005C1001A800
0007DDDED000
00000003C000
00000003C000
001BEDDEC000
00890003C000
00860003C000
00470003C000
00000002C000
ENDCHAR
STARTCHAR uni0921094D0928
ENCODING -1
SWIDTH 481 0
DWIDTH 10 0
BBX 11 18 -1 -5
BITMAP
3DDDDDDEFDB0
00000002C000
00000003C000
0008DDDEA000
005B10000000
007700000000
005B10000000
0009DDDD7000
00000001C300
008500009500
006A0001D300
0009DDDEC000
00000003C000
001BEDDEC000
007A0003C000
00870003C000
00490003C000
00000003B000
ENDCHAR
STARTCHAR uni0924094D0928
ENCODING -1
SWIDTH 756 0
DWIDTH 15 0
BBX 17 13 -1 0
BITMAP
3DDDDDDDDDDDDFED50
0000000000000A4000
0000000000000A4000
0000000000000A4000
0008DDDD50000A4000
006B1002EEDDDF4000
00950005B0000A4000
00A4000690000A4000
00A4000290000A4000
00A4000000000A4000
0095000000000A4000
005C100000000A4000
0007D9000000094000
ENDCHAR
STARTCHAR uni0925094D0928
ENCODING -1
SWIDTH 855 0
DWIDTH 17 0
BBX 17 13 1 0
BITMAP
06DDA02DDDDDDFED40
1D10960000000B4000
3A00690000000B4000
1400680000000B4000
0001C50000000B4000
BEDD8000AEDDDF4000
C3000006A0000B4000
A400000780000B4000
5C20003CB0000B4000
06CDDDC480000B4000
0000000000000B4000
0000000000000B4000
000000000000093000
ENDCHAR
STARTCHAR uni0926094D0928
ENCODING -1
SWIDTH 955 0
DWIDTH 19 0
BBX 21 18 -1 -5
BITMAP
3DDDDDDEFEDDDDDDDFED40
00000000F00000000B4000
00000000F00000000B4000
0006DDDDD00000000B4000
004C2000000000000B4000
008600000000AEDDDF4000
00A500000005B0000B4000
00A50000000680000B4000
008600009403A0000B4000
004C2002D40000000B4000
0006CDDBB40000000B4000
00000000A40000000B4000
00000000940000000A4000
0000000000000000000000
0000000078000000000000
000000001D300000000000
0000000004C00000000000
0000000000410000000000
ENDCHAR
STARTCHAR uni0927094D0928
ENCODING -1
SWIDTH 814 0
DWIDTH 16 0
BBX 18 13 -1 0
BITMAP
3DDFED009DDDDDEED7
004B00000000008700
008700000000008700
007700000000008700
001A10000000008700
001CFD6008DDDDE700
007B10002D10008700
008700004B00008700
004B10019D00008700
0006CDDC6910008700
000000000000008700
000000000000008700
000000000000006600
ENDCHAR
STARTCHAR uni0928094D0928
ENCODING -1
SWIDTH 738 0
DWIDTH 15 0
BBX 16 13 -1 0
BITMAP
3DDDDDDDDDDDEFDD
0000000000001E00
0000000000001E00
0000000000001E00
0000000000001E00
006DDDDEEEDDEE00
00E2000A50001E00
00D0000B30001E00
00A1000640001E00
0000000000001E00
0000000000001E00
0000000000001E00
0000000000000B00
ENDCHAR
STARTCHAR uni092A094D0928
ENCODING -1
SWIDTH 782 0
DWIDTH 16 0
BBX 17 13 -1 0
BITMAP
3DEFDDDDDDDDDEFDB0
00590000000002C000
00590000000002C000
00590000000002C000
00590000000002C000
005900004DDDDEC000
004A0000C40002C000
001D3007F10002C000
0003BDDAC40002C000
00000000100002C000
00000000000002C000
00000000000002C000
00000000000002A000
ENDCHAR
STARTCHAR uni092B094D0928
ENCODING -1
SWIDTH 1013 0
DWIDTH 20 0
BBX 22 13 -1 0
BITMAP
3DEFDDDEFEDDDDDDDDEED7
00590000E0000000008700
00590000E0000000008700
00590000E7DEC300008700
00590000E8004D00008700
00590000E1000CEDDDF700
004A0000F0003C10008700
001D3008F0003B00008700
0004CDD7E0000900008700
00000000E0000000008700
00000000E0000000008700
00000000E0000000008700
00000000C0000000006500
ENDCHAR
STARTCHAR uni092C094D0928
ENCODING -1
SWIDTH 810 0
DWIDTH 16 0
BBX 18 13 -1 0
BITMAP
3DDDDDDDDDDDDDFED6
000000000000009500
000000000000009500
0007DD600000009500
006E20000000009500
00A6B10009EDDDF500
00B32B104C00009500
00B302B15A00009500
00A4002B2800009500
006B101A8000009500
0007DDD90000009500
000000000000009500
000000000000007400
ENDCHAR
STARTCHAR uni092D094D0928
ENCODING -1
SWIDTH 757 0
DWIDTH 15 0
BBX 17 13 -1 0
BITMAP
3D9000DDDDDDDFED50
00A5000000000A4000
0068000000000A4000
0068000000000A4000
0068000000000A4000
006900008DDDDF4000
006FDDDEB0000A4000
0069000690000A4000
0068000290000A4000
0022000000000A4000
0000000000000A4000
0000000000000A4000
000000000000083000
ENDCHAR
STARTCHAR uni092E094D0928
ENCODING -1
SWIDTH 757 0
DWIDTH 15 0
BBX 17 13 -1 0
BITMAP
3DEFDDDDDDDDDFED50
0068000000000A4000
0068000000000A4000
0068000000000A4000
0068000000000A4000
006800008DDDDF4000
006FDDDEB0000A4000
0068000690000A4000
0068000290000A4000
0022000000000A4000
0000000000000A4000
0000000000000A4000
000000000000083000
ENDCHAR
STARTCHAR uni092F094D0928
ENCODING -1
SWIDTH 829 0
DWIDTH 17 0
BBX 18 13 -1 0
BITMAP
3DDEFEDDDDDDDDEFDB
00002C100000003B00
00000A400000003B00
00000B400000003B00
00002D100000003B00
009EC50004DDDDEB00
00A500000D30003B00
008600000E00003B00
003D30019F20003B00
0004CDDD7640003B00
000000000000003B00
000000000000003B00
000000000000002900
ENDCHAR
STARTCHAR uni0935094D0928
ENCODING -1
SWIDTH 798 0
DWIDTH 16 0
BBX 18 13 -1 0
BITMAP
3DDDDDDDDDDDDDFED2
00000000000000D200
00000000000000D200
0007DD60000000D200
006B1000000000D200
00A400001BEDDDF200
00B30000880000D200
00B30000860000D200
00A40000460000D200
006B1018800000D200
0007DDD8000000D200
00000000000000D200
00000000000000B100
ENDCHAR
STARTCHAR uni0936094D0928
ENCODING -1
SWIDTH 845 0
DWIDTH 17 0
BBX 18 13 0 0
BITMAP
008DDA10ADDDDDFED2
05B00880000000D100
077004A0000000D100
065004B0000000D100
000005A0000000D100
00001B602CEDDDF100
2EDDD800970000D100
0B600000960000D100
02D10000350000D100
007A0000000000D100
000C4000000000D100
0003D100000000D100
00008600000000B100
ENDCHAR
STARTCHAR uni0938094D0928
ENCODING -1
SWIDTH 831 0
DWIDTH 17 0
BBX 18 13 -1 0
BITMAP
3DDDEFDDDDDDDDEFDB
00004B000000003C00
00004B000000003C00
00004B000000003C00
00005A000000003C00
0001A50004DDDDEC00
04EEEDDDDF30003C00
01D300000D10003C00
005B00000730003C00
000C40000000003C00
0004C0000000003C00
0000B6000000003C00
00002B000000002A00
ENDCHAR
STARTCHAR uni0939094D0928
ENCODING -1
SWIDTH 500 0
DWIDTH 10 0
BBX 12 15 -1 -2
BITMAP
3DDDDDDDFED3
00000000A400
00000000A400
0007DDDDE300
004C10000000
006900000000
003C10000000
0008FEDDED00
002D2006CE00
0078009A1E00
008703C00E00
008702D00E00
006800620200
002D30000000
0004CDDDC000
ENDCHAR
STARTCHAR uni0915094D0930
ENCODING -1
SWIDTH 725 0
DWIDTH 15 0
BBX 16 14 -1 -1
BITMAP
3DDDDDDEFDDDDDDA
00000003B0000000
00000003B0000000
0007DD33BADDB300
006B1003F4004D10
00B40003C0000B30
00C30003B0000A40
00C30003B0000A40
00B40004B0000B30
007B101BB0004D00
0008DEF9B0ADB300
00000973B0000000
0000A803B0000000
0007800000000000
ENDCHAR
STARTCHAR uni0916094D0930
ENCODING -1
SWIDTH 698 0
DWIDTH 14 0
BBX 16 14 -1 -1
BITMAP
3DDDDFEDDDDDFED2
00000D200000C200
00000D200000C200
00000D206D90C200
00000D13C100C200
00004D087000C200
04EDC3096000C200
01D300087000D200
005C0004D206F200
000A70007DECD200
0002E20001C2C200
00006B000B50C200
00000B507900C200
00000002B1000000
ENDCHAR
STARTCHAR uni0917094D0930
ENCODING -1
SWIDTH 494 0
DWIDTH 10 0
BBX 12 13 -1 0
BITMAP
3DDEFDDDFED1
0005A000E100
0005A000E100
0005A000E100
0005A000E100
00069000E100
001B6003F100
08D8001CF100
000000B5E100
00000880E100
00005B00E100
0003D100E100
000B3000C000
ENDCHAR
STARTCHAR uni0918094D0930
ENCODING -1
SWIDTH 559 0
DWIDTH 11 0
BBX 13 14 -1 -1
BITMAP
3DDFEDDDDFED50
004B0000095000
00860000095000
00870000095000
004C1000095000
000AFD60095000
005B1000095000
00860000095000
008700000B5000
004C10005F5000
0007DDDFCA5000
0000008A195000
00001B90074000
0000B600000000
ENDCHAR
STARTCHAR uni0919094D0930
ENCODING -1
SWIDTH 505 0
DWIDTH 10 0
BBX 12 16 -1 -3
BITMAP
3DDDDDDEFDD4
00000004A000
00000004A000
0009DDDE8000
005B00000000
007700000750
005B10000000
0008DDDD6000
00000002E200
00000000B400
00850000B400
00690002E200
001ADEED6000
000098D40000
0005C03D1000
001D2007A000
ENDCHAR
STARTCHAR uni091A094D0930
ENCODING -1
SWIDTH 563 0
DWIDTH 11 0
BBX 13 14 -1 -1
BITMAP
3DDDDDDDDEED70
00000000087000
00000000087000
00000000087000
07DDEED5087000
00069000087000
000C2000087000
000D1000087000
000C2000097000
0008A1003E7000
00019DDEDA7000
0000008A187000
00002C60075000
00004300000000
ENDCHAR
STARTCHAR uni091B094D0930
ENCODING -1
SWIDTH 581 0
DWIDTH 12 0
BBX 13 15 -1 -2
BITMAP
3DDFFDDDDEFDB0
003C1000059000
00780000059000
00780000059000
00780004DE7000
003D200003E000
0009FD2000C200
004C100000C200
0078000000C200
0078000000D100
004C100005C000
0007DEEEDB2000
00000A7C500000
00006B02D20000
0001C2005A0000
ENDCHAR
STARTCHAR uni091C094D0930
ENCODING -1
SWIDTH 547 0
DWIDTH 11 0
BBX 13 14 -1 -1
BITMAP
3DDDDDDDDFED20
000000000D1000
000000000D1000
000000000D1000
007DEEDDDF1000
00001C300D1000
000007700D1000
000006800D1000
000007800D1000
00001C409F1000
05DDD708AD1000
0000007B0D1000
000006C10A1000
00000510000000
ENDCHAR
STARTCHAR uni091D094D0930
ENCODING -1
SWIDTH 684 0
DWIDTH 14 0
BBX 15 14 -1 -1
BITMAP
3DDDDDEFEDDEFDC0
0000000E0001D000
0000000E0001D000
0009DDDD0001D000
006A00000001D000
008700000001D000
006B10000002D000
0009DDEEEDDED000
000000097001D000
009400059006D000
00A90009705BD000
00A9DDDA13C2D000
00A400002D21D000
00940000D5004000
ENDCHAR
STARTCHAR uni091E094D0930
ENCODING -1
SWIDTH 598 0
DWIDTH 12 0
BBX 14 14 -1 -1
BITMAP
3DDDDDDDDDFED3
0000000000C200
0000000000C200
00ADD80000C200
0000096000C200
000002A000C200
000001C000C200
000001FDDDF200
000002C000D200
000009900AE200
01DDDA10A6C200
0000000A80C200
0000009900C200
00000150000000
ENDCHAR
STARTCHAR uni091F094D0930
ENCODING -1
SWIDTH 485 0
DWIDTH 10 0
BBX 11 15 -1 -2
BITMAP
3DDDDDDEFDC0
000000069000
000000069000
000000069000
0007DDDE7000
005C10000000
009500000000
00A400000000
00A400003A00
009500004A00
005C2001B500
0007DEED7000
00005C7A0000
0001D20B6000
000A6002D100
ENDCHAR
STARTCHAR uni0920094D0930
ENCODING -1
SWIDTH 512 0
DWIDTH 10 0
BBX 12 16 -1 -3
BITMAP
3DDDDDDEFDD7
00000002D000
00000002C000
000000079000
0007DDEF7000
005C1001B600
009500004A00
00A400003B00
00A400003B00
009500004A00
005C2001B600
0007DEED7000
00004D8A0000
0000D40D4000
0008A004D100
000410004100
ENDCHAR
STARTCHAR uni0921094D0930
ENCODING -1
SWIDTH 475 0
DWIDTH 10 0
BBX 11 16 -1 -3
BITMAP
3DDDDDDEFDA0
00000004A000
00000004A000
0009DDDE8000
005B00000000
007700000000
005B10000000
0008DDDD6000
00000002E200
00000000B400
00850000B400
00690002E100
0009DEED5000
000089A70000
0004D11D3000
000D3005C000
ENDCHAR
STARTCHAR uni0922094D0930
ENCODING -1
SWIDTH 485 0
DWIDTH 10 0
BBX 11 16 -1 -3
BITMAP
3DDDDDDEFDD0
00000004B000
00000004B000
00000004B000
0006DDDE9000
005C10000000
009600000000
0095009DC300
009502C05A00
009502603B00
004C10008800
0006DEEEA100
00003D9A0000
0000C51D4000
0007A004D100
000410004100
ENDCHAR
STARTCHAR uni0923094D0930
ENCODING -1
SWIDTH 681 0
DWIDTH 14 0
BBX 15 13 -1 0
BITMAP
3DEFDDDFEDDEFDC0
005900086002C000
005900086002C000
005900086002C000
005900086002C000
005900086002C000
005900095004C000
002D202D201DC000
0005CDC500B7C000
000000000972C000
000000006A02C000
00000004C102C000
0000001B2002A000
ENDCHAR
STARTCHAR uni0924094D0930
ENCODING -1
SWIDTH 493 0
DWIDTH 10 0
BBX 12 13 -1 0
BITMAP
3DDDDDDEFED1
00000000E000
00000000E000
00000000E000
0008DDD7E000
007A1007F000
00A40000F000
00B30000E000
00200007F000
000001AAE000
00002C70E000
0004D400E000
004B2000C000
ENDCHAR
STARTCHAR uni0925094D0930
ENCODING -1
SWIDTH 593 0
DWIDTH 12 0
BBX 12 14 1 -1
BITMAP
06DDA000DED1
2D109600E100
3A005900E100
13006800E100
0001B500E100
BEDD8000E100
C3000000E100
B3000000E100
96000001F100
4D30001AF100
05CDDEF6E100
00003C40E100
0007C200E100
007A10001000
ENDCHAR
STARTCHAR uni0926094D0930
ENCODING -1
SWIDTH 489 0
DWIDTH 10 0
BBX 11 14 -1 -1
BITMAP
3DDDDDDEFED0
00000000F000
00000000F000
0006DDDDD000
004C20000000
008600000000
00A500000000
00A500000000
008600009400
004C2002D400
0006CDEEC400
000003D3A400
00002D309400
000033000000
ENDCHAR
STARTCHAR uni0927094D0930
ENCODING -1
SWIDTH 560 0
DWIDTH 11 0
BBX 13 14 -1 -1
BITMAP
3DDFE807DFED60
004B0000095000
00870000095000
00870000095000
004C1000095000
000AFD60095000
004C1000095000
00870000095000
008700000A5000
004C20004F5000
0006CDDFDA5000
0000006D295000
000007D2095000
00005B10000000
ENDCHAR
STARTCHAR uni0928094D0930
ENCODING -1
SWIDTH 473 0
DWIDTH 9 0
BBX 11 13 -1 0
BITMAP
3DDDDDDEFD90
000000059000
000000059000
000000059000
000000059000
006DDDDE9000
00E200079000
01E0003E9000
00A102D89000
00001C559000
0000B7059000
0008A0059000
004A00048000
ENDCHAR
STARTCHAR uni092A094D0930
ENCODING -1
SWIDTH 503 0
DWIDTH 10 0
BBX 12 14 -1 -1
BITMAP
3DEFDDDDFED4
00590000B400
00590000B400
00590000B400
00590000B400
00590000B400
005A0000C400
002E3005F400
0004CEEDC400
000002C2B400
00001C40B400
0000B600B400
00099000A300
000500000000
ENDCHAR
STARTCHAR uni092B094D0930
ENCODING -1
SWIDTH 741 0
DWIDTH 15 0
BBX 17 14 -1 -1
BITMAP
3DEFDDDDFEDDDDDD10
00590000E100000000
00590000E100000000
00590000E7DDC60000
00590000E9002D3000
00590000E200078000
005A0000F100069000
001E3008F100069000
0004CEFAE100078000
000004C1E1002D3000
00003D20E16DC50000
0001D400E100000000
000C6000E100000000
001400001000000000
ENDCHAR
STARTCHAR uni092C094D0930
ENCODING -1
SWIDTH 491 0
DWIDTH 10 0
BBX 12 14 -1 -1
BITMAP
3DDDDDDEFED1
00000000F000
00000000F000
0007DD60F000
006F3000F000
00A8B100F000
00B33B10F000
00B303B1F000
00A4003BF000
006B101AF000
0007DDF9F000
000007A0F000
00007B00E000
0005A0000000
ENDCHAR
STARTCHAR uni092D094D0930
ENCODING -1
SWIDTH 491 0
DWIDTH 10 0
BBX 12 13 -1 0
BITMAP
3D9000DEFED1
00A50000F000
00680000F000
00680000F000
00680000F000
00690000F000
006FDDDEF000
00690006F000
0068005BF000
002203C1F000
00002C20F000
0001C300F000
000A4000C000
ENDCHAR
STARTCHAR uni092E094D0930
ENCODING -1
SWIDTH 490 0
DWIDTH 10 0
BBX 12 13 -1 0
BITMAP
3DEFDDDEFED1
00680000E000
00680000E000
00680000E000
00680000E000
00680000E000
006FDDDEE000
00680008E000
0068006BE000
001205C1E000
00004D10E000
0003D200E000
000B3000C000
ENDCHAR
STARTCHAR uni092F094D0930
ENCODING -1
SWIDTH 564 0
DWIDTH 11 0
BBX 13 14 -1 -1
BITMAP
3DDEFEDDDEED70
00002C10087000
00000A40087000
00000B40087000
00002D10087000
009EC500087000
00A50000087000
00A50000087000
008700000A7000
003D30005F7000
0004CEDFC97000
0000009A187000
00001C80087000
0000B600011000
ENDCHAR
STARTCHAR uni0935094D0930
ENCODING -1
SWIDTH 484 0
DWIDTH 10 0
BBX 11 14 -1 -1
BITMAP
3DDDDDDEFDC0
00000001D000
00000001D000
0007DD51D000
006B1001D000
00A50001D000
00B40001D000
00B40001D000
00A40002D000
006B101AD000
0007DEF8D000
00000991D000
00009901D000
000690001000
ENDCHAR
STARTCHAR uni0936094D0930
ENCODING -1
SWIDTH 558 0
DWIDTH 11 0
BBX 12 13 0 0
BITMAP
01ADDA109ED4
07900970A500
0A5004A0A500
08700690A500
03D21C40A500
005DD700A500
008DCA10A500
3D9106D8E500
130001ACB500
00003D70A500
0008D300A500
00071000A500
000000008400
ENDCHAR
STARTCHAR uni0938094D0930
ENCODING -1
SWIDTH 604 0
DWIDTH 12 0
BBX 14 13 -1 0
BITMAP
3DDDEFDDDDFED4
00004B0000B400
00004B0000B400
00004B0000B400
00005A0000B400
0001A50000B400
04EEEDDDDEF400
01D300003DC400
005B0001D3B400
000C400A70B400
0004C03800B400
0000B60000B400
00002B00009300
ENDCHAR
STARTCHAR uni0939094D0930
ENCODING -1
SWIDTH 505 0
DWIDTH 10 0
BBX 12 15 -1 -2
BITMAP
3DDDDDDDFED4
00000000D100
00000000D100
0019DDDDE100
007A00000000
009600000000
006A10000000
000BFDDEEA00
005C10099C00
00A5005C1C00
00B402D21C00
00B40A501C00
009500000200
004C20000000
0006CDDDB000
ENDCHAR
STARTCHAR uni0915093C094D0930
ENCODING -1
SWIDTH 725 0
DWIDTH 15 0
BBX 16 15 -1 -2
BITMAP
3DDDDDDEFDDDDDDA
00000003B0000000
00000003B0000000
0007DD33BADDB300
006B1003F4004D10
00B40003C0000B30
00C30003B0000A40
00C30003B0000A40
00B40004B0000B30
007B101BB0004D00
0008DEF9B0ADB300
00000973B0000000
0000A703A0000000
0007700000000000
00000A3000000000
ENDCHAR
STARTCHAR uni0916093C094D0930
ENCODING -1
SWIDTH 698 0
DWIDTH 14 0
BBX 16 15 -1 -2
BITMAP
3DDDDFEDDDDDFED2
00000D200000C200
00000D200000C200
00000D206D90C200
00000D13C100C200
00004D087000C200
04EDC3096000C200
01D300087000D200
005C0004D206F200
000A70007DECD200
0001D20001C2C200
00006B000B50C200
00000B508900C200
00000002B0000000
0000000004900000
ENDCHAR
STARTCHAR uni0917093C094D0930
ENCODING -1
SWIDTH 494 0
DWIDTH 10 0
BBX 12 15 -1 -2
BITMAP
3DDEFDDDFED1
0005A000E100
0005A000E100
0005A000E100
0005A000E100
00069000E100
001B6002F100
08D8001CF100
000000A5E100
00000790E100
00004C00E100
0002D200E100
000C5000E100
000100001000
00000A300000
ENDCHAR
STARTCHAR uni091C093C094D0930
ENCODING -1
SWIDTH 547 0
DWIDTH 11 0
BBX 13 14 -1 -1
BITMAP
3DDDDDDDDFED20
000000000D1000
000000000D1000
000000000D1000
007DEEDDDF1000
00001C300D1000
000007800D1000
000006800D1000
000007800E1000
00001C409F1000
05DDD7089D1000
0000006B0D1000
000004D10D1000
05700720010000
ENDCHAR
STARTCHAR uni0921093C094D0930
ENCODING -1
SWIDTH 475 0
DWIDTH 10 0
BBX 11 16 -1 -3
BITMAP
3DDDDDDEFDA0
00000004A000
00000004A000
0009DDDE8000
005B00000000
007700000000
005B10000000
0008DDDD6000
00000002E200
00000000B400
00850000B400
00690002E100
0009DEED5000
0B2088A70000
0004C01D3000
000D3004C000
ENDCHAR
STARTCHAR uni0922093C094D0930
ENCODING -1
SWIDTH 485 0
DWIDTH 10 0
BBX 11 16 -1 -3
BITMAP
3DDDDDDEFDD0
00000004B000
00000004B000
00000004B000
0006DDDE9000
005C10000000
009600000000
0095009DC300
009502C05A00
009502603B00
004C10008800
0006DEEEA100
0B203D7A0000
0000D40C4000
0008A003D100
000410004100
ENDCHAR
STARTCHAR uni0928093C094D0930
ENCODING -1
SWIDTH 473 0
DWIDTH 9 0
BBX 11 15 -1 -2
BITMAP
3DDDDDDEFD90
000000059000
000000059000
000000059000
000000059000
006DDDDE9000
00E200079000
01E0003E9000
00B101D99000
00000B659000
000099059000
0006B0059000
003D10059000
001100001000
000075000000
ENDCHAR
STARTCHAR uni092B093C094D0930
ENCODING -1
SWIDTH 741 0
DWIDTH 15 0
BBX 17 15 -1 -2
BITMAP
3DEFDDDDFEDDDDDD10
00590000E100000000
00590000E100000000
00590000E7DDC60000
00590000E9002D3000
00590000E200078000
005A0000F100069000
001E3008F100069000
0004CEFAE100078000
000004C1E1002D3000
00002D20E16DC50000
0001D400E100000000
000B7000E100000000
001600002000000000
00000C100000000000
ENDCHAR
STARTCHAR uni092F093C094D0930
ENCODING -1
SWIDTH 564 0
DWIDTH 11 0
BBX 13 15 -1 -2
BITMAP
3DDEFEDDDEED70
00002C10087000
00000A40087000
00000B40087000
00002D10087000
009EC500087000
00A50000087000
00A50000087000
008700000A7000
003D30005F7000
0004CEDFC97000
0000009A187000
00001B90087000
0000B700011000
00000076000000
ENDCHAR
STARTCHAR uni0915094D0930094D
ENCODING -1
SWIDTH 518 0
DWIDTH 10 0
BBX 14 14 -1 -1
BITMAP
3DDDDDDEFDDDDC
00000003B00000
00000003B00000
0007DD33BADEC3
006B1003F4005B
00B40003C00000
00C30003B00000
00C30003B00000
00B40004B00000
007B101BB00000
0008DEF9B00000
00000973B00000
0000A803B00000
00078000000000
ENDCHAR
STARTCHAR uni0916094D0930094D
ENCODING -1
SWIDTH 469 0
DWIDTH 9 0
BBX 13 14 -1 -1
BITMAP
3DDDDFEDDDDD60
00000D20000000
00000D20000000
00000D206D9000
00000D13C10000
00004D08700000
04EDC309600000
01D30008700010
005C0004D20790
000A70007DED10
0002E20001C300
00006B000B6000
00000B507A0000
00000002B10000
ENDCHAR
STARTCHAR uni0917094D0930094D
ENCODING -1
SWIDTH 264 0
DWIDTH 5 0
BBX 9 13 -1 0
BITMAP
3DDEFD7000
0005A00000
0005A00000
0005A00000
0005A00000
0006900000
001B600290
08D8001C30
000000B600
0000089000
00005B0000
0003D10000
000B300000
ENDCHAR
STARTCHAR uni0918094D0930094D
ENCODING -1
SWIDTH 319 0
DWIDTH 6 0
BBX 10 14 -1 -1
BITMAP
3DDFEDDDD6
004B000000
0086000000
0087000000
004C100000
000AFD6000
005B100000
0086000000
0087000000
004C10016B
0007DDDFC1
0000008B10
00001B9000
0000B60000
ENDCHAR
STARTCHAR uni091A094D0930094D
ENCODING -1
SWIDTH 331 0
DWIDTH 7 0
BBX 10 14 -1 -1
BITMAP
3DDDDDDDD3
0000000000
0000000000
0000000000
07DDEED500
0006900000
000C200000
000D100000
000C200001
0008A1004C
00019DDFD2
0000008A10
00002C7000
0000420000
ENDCHAR
STARTCHAR uni091C094D0930094D
ENCODING -1
SWIDTH 312 0
DWIDTH 6 0
BBX 10 14 -1 -1
BITMAP
3DDDDDDDD4
0000000000
0000000000
0000000000
007DEEDDD4
00001C3000
0000078000
0000068000
0000078002
00001C406A
05DDD706C1
0000006C10
000006C100
0000051000
ENDCHAR
STARTCHAR uni091D094D0930094D
ENCODING -1
SWIDTH 441 0
DWIDTH 9 0
BBX 13 14 -1 -1
BITMAP
3DDDDDEFEDDC00
0000000E000000
0000000E000000
0009DDDD000000
006A0000000000
00870000000000
006B1000000000
0009DDEEEDDE40
00000009700940
00940005900A30
00A90009706B00
00A9DDDA14D100
00A400003D3000
00940000D40000
ENDCHAR
STARTCHAR uni091E094D0930094D
ENCODING -1
SWIDTH 374 0
DWIDTH 7 0
BBX 11 14 -1 -1
BITMAP
3DDDDDDDDD50
000000000000
000000000000
00ADD8000000
000009600000
000002A00000
000001C00000
000001FDDDE0
000002C000D0
0000099006B0
01DDDA106C10
00000006C100
0000005D1000
000000510000
ENDCHAR
STARTCHAR uni091F094D0930094D
ENCODING -1
SWIDTH 485 0
DWIDTH 10 0
BBX 11 19 -1 -6
BITMAP
3DDDDDDEFDC0
000000069000
000000069000
000000069000
0007DDDE7000
005C10000000
009500000000
00A400000000
00A400003A00
009500004A00
005C2001B500
0007DEED7000
00005C7A0000
0001D20B6000
000A6002D100
000002B00000
000000880000
0000001D3000
000000033000
ENDCHAR
STARTCHAR uni0920094D0930094D
ENCODING -1
SWIDTH 512 0
DWIDTH 10 0
BBX 12 19 -1 -6
BITMAP
3DDDDDDEFDD7
00000002D000
00000002C000
000000079000
0007DDEF7000
005C1001B600
009500004A00
00A400003B00
00A400003B00
009500004A00
005C2001B600
0007DEED7000
00004C7A0000
0001D30B6000
000A6002D200
000001C10000
000000890000
0000000D3000
000000023000
ENDCHAR
STARTCHAR uni0921094D0930094D
ENCODING -1
SWIDTH 475 0
DWIDTH 10 0
BBX 11 20 -1 -7
BITMAP
3DDDDDDEFDA0
00000004A000
00000004A000
0009DDDE8000
005B00000000
007700000000
005B10000000
0008DDDD6000
00000002E100
00000000B400
00850000B400
00690002E200
0009DEED6000
00008AB60000
0004D12D2000
000D3005C000
000004800000
000000C40000
0000002D1000
000000042000
ENDCHAR
STARTCHAR uni0922094D0930094D
ENCODING -1
SWIDTH 485 0
DWIDTH 10 0
BBX 11 19 -1 -6
BITMAP
3DDDDDDEFDD0
00000004B000
00000004B000
00000004B000
0006DDDE9000
005C10000000
009600000000
0095009DC300
009502C05A00
009502603B00
004C10008800
0006CEEEA100
00003D8B0000
0000D50C6000
00089002E200
000201802100
000000A50000
0000002D1000
000000076000
ENDCHAR
STARTCHAR uni0923094D0930094D
ENCODING -1
SWIDTH 457 0
DWIDTH 9 0
BBX 13 13 -1 0
BITMAP
3DEFDDDFED4000
00590008600000
00590008600000
00590008600000
00590008600000
00590008600000
00590009500350
002D202D201D30
0005CDC500C500
00000000097000
000000007A0000
00000004C10000
0000001B200000
ENDCHAR
STARTCHAR uni0924094D0930094D
ENCODING -1
SWIDTH 268 0
DWIDTH 5 0
BBX 10 13 -1 0
BITMAP
3DDDDDDDD5
0000000000
0000000000
0000000000
0008DDD910
007A100780
00A40000B0
00B30000B0
00200007A0
000001AA10
00002C7000
0004D40000
004B200000
ENDCHAR
STARTCHAR uni0925094D0930094D
ENCODING -1
SWIDTH 358 0
DWIDTH 7 0
BBX 9 14 1 -1
BITMAP
06DDA00000
2D10960000
3A00590000
1300680000
0001B50000
BEDD800000
C300000000
B300000000
9600000000
4D30002B50
05CDDEF600
00003C4000
0007C20000
007A100000
ENDCHAR
STARTCHAR uni0926094D0930094D
ENCODING -1
SWIDTH 489 0
DWIDTH 10 0
BBX 11 17 -1 -4
BITMAP
3DDDDDDEFED0
00000000F000
00000000F000
0006DDDDD000
004C20000000
008600000000
00A500000000
00A500000000
008600009400
004C2002D400
0006CDEEC400
000002D3A400
00001D509400
000045220000
0000002D1000
00000006A000
00000000A300
ENDCHAR
STARTCHAR uni0927094D0930094D
ENCODING -1
SWIDTH 322 0
DWIDTH 6 0
BBX 10 14 -1 -1
BITMAP
3DDFE708D5
004B000000
0086000000
0087000000
005B100000
000AFD6000
004B100000
0087000000
0087000000
004C10005B
0006CDDFD2
0000006D20
000007C100
00005B1000
ENDCHAR
STARTCHAR uni0928094D0930094D
ENCODING -1
SWIDTH 247 0
DWIDTH 5 0
BBX 9 13 -1 0
BITMAP
3DDDDDDD60
0000000000
0000000000
0000000000
0000000000
006DDDDE80
00E2000480
01E0001C30
00A100B600
00000A8000
0000990000
0008A00000
004B100000
ENDCHAR
STARTCHAR uni092A094D0930094D
ENCODING -1
SWIDTH 270 0
DWIDTH 5 0
BBX 9 14 -1 -1
BITMAP
3DEFDDDA00
0059000000
0059000000
0059000000
0059000000
0059000000
005A000010
002E3016B0
0004CEED20
000002C300
00001C5000
0000B70000
0009900000
0005000000
ENDCHAR
STARTCHAR uni092B094D0930094D
ENCODING -1
SWIDTH 523 0
DWIDTH 10 0
BBX 14 14 -1 -1
BITMAP
6DFEDDDEFDDDDC
00950003C00000
00950003C00000
00950003C9DEC4
00950003F5004C
00950003D00000
00860004C00000
004C201BC00000
0007DDF9C00000
00000793C00000
00005C03C00000
0003D103C00000
002D3003C00000
00330000100000
ENDCHAR
STARTCHAR uni092C094D0930094D
ENCODING -1
SWIDTH 267 0
DWIDTH 5 0
BBX 9 14 -1 -1
BITMAP
3DDDDDDD90
0000000000
0000000000
0007DD6000
006F300000
00A8B10000
00B33B1000
00B303B100
00A4003BC0
006B101A70
0007DDFB00
000007C100
00007C1000
0005A10000
ENDCHAR
STARTCHAR uni092D094D0930094D
ENCODING -1
SWIDTH 257 0
DWIDTH 5 0
BBX 9 13 -1 0
BITMAP
3D9000DD80
00A5000000
0068000000
0068000000
0068000000
0069000000
006FDDDE80
0069000960
0068007A00
001205B000
00003C1000
0002D20000
000A400000
ENDCHAR
STARTCHAR uni092E094D0930094D
ENCODING -1
SWIDTH 261 0
DWIDTH 5 0
BBX 9 13 -1 0
BITMAP
3DEFDDDD80
0068000000
0068000000
0068000000
0068000000
0068000000
006FDDDE80
0068000960
0068007A00
001205B000
00003C1000
0002D20000
000A400000
ENDCHAR
STARTCHAR uni092F094D0930094D
ENCODING -1
SWIDTH 323 0
DWIDTH 6 0
BBX 10 14 -1 -1
BITMAP
3DDEFEDDA0
00002C1000
00000A4000
00000B4000
00002E1000
009EC50000
00A5000000
00A5000000
0087000002
003D30006B
0004CEDFC1
0000009A10
00001C8000
0000B60000
ENDCHAR
STARTCHAR uni0935094D0930094D
ENCODING -1
SWIDTH 255 0
DWIDTH 5 0
BBX 9 14 -1 -1
BITMAP
3DDDDDD600
0000000000
0000000000
0007DD5000
006B100000
00A4000000
00B4000000
00B4000000
00A4000000
006B102960
0007DEFA00
000009A000
00009A0000
0006A00000
ENDCHAR
STARTCHAR uni0938094D0930094D
ENCODING -1
SWIDTH 347 0
DWIDTH 7 0
BBX 11 13 -1 0
BITMAP
3DDDEFDDD800
00004B000000
00004B000000
00004B000000
00005A000000
0001A5000000
04EEEDDDDE40
01D300004C10
005B0002D200
000C401C5000
0004C0970000
0000B6000000
00002B000000
ENDCHAR
STARTCHAR uni0915093C094D0930094D
ENCODING -1
SWIDTH 518 0
DWIDTH 10 0
BBX 14 15 -1 -2
BITMAP
3DDDDDDEFDDDDC
00000003B00000
00000003B00000
0007DD33BADEC3
006B1003F4005B
00B40003C00000
00C30003B00000
00C30003B00000
00B40004B00000
007B101BB00000
0008DEF9B00000
00000973B00000
00009803B00000
00078000100000
00000A30000000
ENDCHAR
STARTCHAR uni0916093C094D0930094D
ENCODING -1
SWIDTH 466 0
DWIDTH 9 0
BBX 13 15 -1 -2
BITMAP
3DDDDFEDDDDD60
00000D20000000
00000D20000000
00000D206D9000
00000D13C10000
00004D08700000
04EDC309600000
01D30008700010
005C0004D20790
000A60007DED10
0002E20001C300
00007A000A7000
00000C407A0000
00000112D10000
0000000002B000
ENDCHAR
STARTCHAR uni0917093C094D0930094D
ENCODING -1
SWIDTH 264 0
DWIDTH 5 0
BBX 9 15 -1 -2
BITMAP
3DDEFD7000
0005A00000
0005A00000
0005A00000
0005A00000
0006900000
001B600290
08D8001C40
000000A700
000007A000
00004D1000
0002D30000
000C500000
0001000000
0000094000
ENDCHAR
STARTCHAR uni091C093C094D0930094D
ENCODING -1
SWIDTH 320 0
DWIDTH 6 0
BBX 10 15 -1 -2
BITMAP
3DDDDDDDD4
0000000000
0000000000
0000000000
007DEEDDD4
00001C3000
0000078000
0000068000
0000078000
00001C4017
05DDD701B6
0000001B70
000001B700
00000A7000
0670000000
ENDCHAR
STARTCHAR uni0928093C094D0930094D
ENCODING -1
SWIDTH 247 0
DWIDTH 5 0
BBX 9 15 -1 -2
BITMAP
3DDDDDDD60
0000000000
0000000000
0000000000
0000000000
006DDDDE80
00E2000480
01E0000B50
00D1009900
000007B000
00005D1000
0003D20000
001D400000
0034000000
0000490000
ENDCHAR
STARTCHAR uni092B093C094D0930094D
ENCODING -1
SWIDTH 523 0
DWIDTH 10 0
BBX 14 15 -1 -2
BITMAP
6DFEDDDEFDDDDC
00950003C00000
00950003C00000
00950003C9DEC4
00950003F5004C
00950003D00000
00860004C00000
004C201BC00000
0007DDFAC00000
000007A3C00000
00005C13C00000
0003D203C00000
001D4003C00000
00450000300000
00004900000000
ENDCHAR
STARTCHAR uni092F093C094D0930094D
ENCODING -1
SWIDTH 323 0
DWIDTH 6 0
BBX 10 15 -1 -2
BITMAP
3DDEFEDDA0
00002C1000
00000A4000
00000B4000
00002E1000
009EC50000
00A5000000
00A5000000
0087000002
003D30006B
0004CEDFC1
0000009A10
00001C8000
0000B60000
0000006700
ENDCHAR
STARTCHAR uni0915094D0915
ENCODING -1
SWIDTH 1255 0
DWIDTH 25 0
BBX 27 13 -1 0
BITMAP
3DDDDDDEFDDDDDDDDDFEDDDDDD50
00000003B0000000009500000000
00000003B0000000009500000000
0008DD33BADDB4BDB098CDD91000
006B1003F4005F50009C101A8000
00B40003C0002D0000960002C000
00C30003B0003C0000950001D000
00C30003B0003C0000950001D000
00B40004B0002D0000A50002C000
006B101BB0000D6004E5001A8000
0008DDC7B00002BDDAA52DD80000
00000003B0000000009500000000
0000000290000000008400000000
ENDCHAR
STARTCHAR uni0915094D0916
ENCODING -1
SWIDTH 1256 0
DWIDTH 25 0
BBX 27 13 -1 0
BITMAP
3DDDDDDEFDDDDDDDFEDDDDDFED50
00000003B0000000A500000A4000
00000003B0000000A500000A4000
0008DD33BADD8000A504CB0A4000
006B1003F401A700A42D200A4000
00B40003C0003B02E159000A4000
00C30003B0002FED5068000A4000
00C30003B0000B600059000B4000
00B40004B00002D2002E304F4000
006B101BB000006A0005CD9A4000
0008DDC7B000000B5000000A4000
00000003B0000002D100000A4000
0000000290000000670000083000
ENDCHAR
STARTCHAR uni0915094D091A
ENCODING -1
SWIDTH 1086 0
DWIDTH 22 0
BBX 23 13 -1 0
BITMAP
3DDDDDDEFDDDDDDDDDDEFDD0
00000003B00000000001D000
00000003B00000000001D000
0008DD33BADC50000001D000
006B1003F402DDEEEB01D000
00B40003C00001C30001D000
00C30003B00005900001D000
00C30003B00006800001D000
00B40004B00005900002D000
006B101BB00001E3001AD000
0008DDC7B000004CDDC6D000
00000003B00000000001D000
00000002900000000001B000
ENDCHAR
STARTCHAR uni0915094D091C
ENCODING -1
SWIDTH 1071 0
DWIDTH 21 0
BBX 23 13 -1 0
BITMAP
3DDDDDDEFDDDDDDDDDDEFD80
00000003B000000000069000
00000003B000000000069000
0008DD33B000000000069000
006B1003BADD36EEEDDE9000
00B40003F400000790069000
00C30003C0000000E0069000
00C30003B0000000E1069000
00B40004B0000000E1069000
006B101BB0000000E0069000
0008DDC7B0000007B0069000
00000003B000CDDB20069000
000000029000000000057000
ENDCHAR
STARTCHAR uni0915094D091F
ENCODING -1
SWIDTH 984 0
DWIDTH 20 0
BBX 21 13 -1 0
BITMAP
3DDDDDDEFDDDDDDDDEFDC0
00000003B0000000069000
00000003B0000000068000
0008DD33BADEC300068000
006B1003F4006EDDDE7000
00B40003C0005C10000000
00C30003B0009500000000
00C30003B000A400000000
00B40004B000A400003900
006B101BB0009500005900
0008DDC7B0005C1001B500
00000003B00007DDDD7000
0000000290000000000000
ENDCHAR
STARTCHAR uni0915094D0923
ENCODING -1
SWIDTH 1183 0
DWIDTH 24 0
BBX 25 13 -1 0
BITMAP
3DDDDDDEFDDDEFDDDEEDDEFDC0
00000003B0005A00077001D000
00000003B0004A00077001D000
0008DD33B0004A00077001D000
006B1003BADDEA00077001D000
00B40003F4004A00077001D000
00C30003B0004A00087001D000
00C30003B0002E302D3001D000
00B40004B00005CDC60001D000
006B101BB0000000000001D000
0008DDC7B0000000000001D000
00000003B0000000000001D000
0000000290000000000001B000
ENDCHAR
STARTCHAR uni0915094D0924
ENCODING -1
SWIDTH 761 0
DWIDTH 15 0
BBX 17 13 -1 0
BITMAP
3DDDDDDDEEDDDDDD60
000000007800000000
000000007800000000
000000007800000000
00ADEEDDE9BDD91000
0006A0007E20099000
000A4000790001D000
000C3000780000F000
000B3000780000F000
000A4000780001D000
0006B1007800199000
00008DB0780BD91000
000000006600000000
ENDCHAR
STARTCHAR uni0915094D0925
ENCODING -1
SWIDTH 1118 0
DWIDTH 22 0
BBX 24 13 -1 0
BITMAP
3DDDDDDEFDD901BDC4006ED8
00000003B00009703D007800
00000003B0000B300D107800
0008DD33B00004100E007800
006B1003B00000006C007800
00B40003BADDEEDDB2007800
00C30003F4004B0000007800
00C30003B0004B0000007800
00B40004B0003C0000009800
006B101BB0000C600005E800
0008DDC7B00002ADDDDB8800
00000003B000000000007800
000000029000000000005600
ENDCHAR
STARTCHAR uni0915094D0926
ENCODING -1
SWIDTH 1009 0
DWIDTH 20 0
BBX 22 13 -1 0
BITMAP
3DDDDDDEFDDDDDDDDDFED5
00000003B0000000009600
00000003B0000000009600
0008DD33BADDB4ADDDE400
006B1003F4004F50000000
00B40003C0003C00000000
00C30003B0003B00000000
00C30003B0004B00000000
00B40004B0002C00003A00
006B101BB0000D50008A00
0008DDC7B00002BDDD9A00
00000003B0000000004A00
00000003A0000000003A00
ENDCHAR
STARTCHAR uni0915094D092A
ENCODING -1
SWIDTH 1007 0
DWIDTH 20 0
BBX 22 13 -1 0
BITMAP
3DDDDDDEFDDDEFDDDDFED5
00000003B0004A0000A400
00000003B0004A0000A400
0008DD33B0004A0000A400
006B1003BADDEA0000A400
00B40003F4004A0000A400
00C30003B0004B0000B400
00C30003B0001E4004F400
00B40004B00004CDD9A400
006B101BB000000000A400
0008DDC7B000000000A400
00000003B000000000A400
0000000290000000008300
ENDCHAR
STARTCHAR uni0915094D092B
ENCODING -1
SWIDTH 1242 0
DWIDTH 25 0
BBX 27 13 -1 0
BITMAP
3DDDDDDEFDDDEFDDDDFEDDDDDD10
00000003B0004A0000E100000000
00000003B0004A0000E100000000
0008DD33B0004A0000E7DDC60000
006B1003BADDEA0000E9002D4000
00B40003F4004A0000E200068000
00C30003B0004B0000E100059000
00C30003B0001E4007F100059000
00B40004B00004CDD8E100068000
006B101BB000000000E1002D4000
0008DDC7B000000000E15DC60000
00000003B000000000E100000000
000000029000000000B100000000
ENDCHAR
STARTCHAR uni0915094D092E
ENCODING -1
SWIDTH 994 0
DWIDTH 20 0
BBX 22 13 -1 0
BITMAP
3DDDDDDEFDDDEFDDDDFED1
00000003B000590000E100
00000003B000590000E100
0008DD33B000590000E100
006B1003BADDE90000E100
00B40003F4005A0000E100
00C30003B0005FDDDEF100
00C30003B000590000E100
00B40004B000590000E100
006B101BB000120000E100
0008DDC7B000000000E100
00000003B000000000E100
000000029000000000B000
ENDCHAR
STARTCHAR uni0915094D092F
ENCODING -1
SWIDTH 1076 0
DWIDTH 22 0
BBX 23 13 -1 0
BITMAP
3DDDDDDEFDDDDDEFDDDEFDA0
00000003B000000A4004A000
00000003B00000078004A000
0008DD33B000001B5004A000
006B1003BADDEED80004A000
00B40003F50068000004A000
00C30003C00068000004A000
00C30003B00069000004A000
00B40004B0003B000007A000
006B101BB0000C60003DA000
0008DDC7B00002ADDDB7A000
00000003B00000000004A000
000000029000000000039000
ENDCHAR
STARTCHAR uni0915094D0932
ENCODING -1
SWIDTH 1178 0
DWIDTH 24 0
BBX 25 13 -1 0
BITMAP
3DDDDDDEFDDDDDDDDDDDDEFDA0
00000003B0000000000004B000
00000003B0000000000004B000
0008DD33BADEC300000004B000
006B1003F4006EDDA19DC8B000
00B40003C0004C105D801AB000
00C30003B00087000E2004B000
00C30003B00086000D1004B000
00B40004B0008600090004B000
006B101BB0007700000004B000
0008DDC7B0004C20000004B000
00000003B00006CD700004B000
00000002900000000000039000
ENDCHAR
STARTCHAR uni0915094D0935
ENCODING -1
SWIDTH 1013 0
DWIDTH 20 0
BBX 22 13 -1 0
BITMAP
3DDDDDDEFDDDDDDDDDEED6
00000003B0000000008600
00000003B0000000008600
0008DD33BADDB4ADD08600
006B1003F4005F60008600
00B40003C0001D00008600
00C30003B0002C00008600
00C30003B0002C00008600
00B40004B0001D00009600
006B101BB0000C6003E600
0008DDC7B00002ADDB9600
00000003B0000000008600
0000000290000000006500
ENDCHAR
STARTCHAR uni0915094D0936
ENCODING -1
SWIDTH 1194 0
DWIDTH 24 0
BBX 26 13 -1 0
BITMAP
3DDDDDDEFDDD703CDD6000DED1
00000003B00000C501D200E100
00000003B00000D100A400E100
0008DD33BADDA20000A400E100
006B1003F5006B0000B400E100
00B40003C0000D0003D100E100
00C30003B0000CEDDC4000E100
00C30003B00006B0000000E100
00B40004B00000B6000000E100
006B101BB000002D200000E100
0008DDC7B0000006B00000E100
00000003B0000000B60000E100
00000002900000002C0000B000
ENDCHAR
STARTCHAR uni0915094D0938
ENCODING -1
SWIDTH 1143 0
DWIDTH 23 0
BBX 25 13 -1 0
BITMAP
3DDDDDDEFDDDDDDDFEDDDFED10
00000003B0000000E1000E1000
00000003B0000000E1000E1000
0008DD33BADDA100E1000E1000
006B1003F4007A00E0000E1000
00B40003C0000D05B0000E1000
00C30003B0000EEEEDDDEF1000
00C30003B000098000000E1000
00B40004B00001D200000E1000
006B101BB000007A00000E1000
0008DDC7B000000D30000E1000
00000003B0000005B0000E1000
0000000290000000A3000C0000
ENDCHAR
STARTCHAR uni0916094D0916
ENCODING -1
SWIDTH 1223 0
DWIDTH 24 0
BBX 26 13 -1 0
BITMAP
3DDDDFEDDDDDDDDEFDDDDDEFD9
00000D2000000004A000005900
00000D2000000004A000005900
00000D207D800004A02AD25900
00000D14C100000590B6005900
00004D086000001A60E0005900
04EDC3095000BED901D0005900
01D3000860007B0000E0006900
004C0004C103CC6000B701C900
000980007DDC32D1002ADB7900
0001D3000000007A0000005900
00005C000000000C5000005900
0000095000000002B000004800
ENDCHAR
STARTCHAR uni0916094D0924
ENCODING -1
SWIDTH 984 0
DWIDTH 20 0
BBX 21 13 -1 0
BITMAP
3DDDDFEDDDDDDDDDDEFDC0
00000D200000000002D000
00000D200000000002D000
00000D207D80000002D000
00000D14C1001ADDDED000
00004D086000980002D000
04EDC3095000D20002D000
01D300086000E10002D000
004C0004C100E10002D000
000A70007DDDF10002D000
0001D2000000D20002D000
00005B000000991002D000
00000A50000019D602C000
ENDCHAR
STARTCHAR uni0916094D092E
ENCODING -1
SWIDTH 965 0
DWIDTH 19 0
BBX 21 13 -1 0
BITMAP
3DDDDFEDDDDDFEDDDEED70
00000D200000E100087000
00000D200000E100087000
00000D207D80E100087000
00000D14C100E100087000
00004D086000E100087000
04EDC3095000EEDDDE7000
01D300086000E100087000
004C0004C204D000087000
000980006CDC4000087000
0001D30000000000087000
00005C0000000000087000
0000095000000000066000
ENDCHAR
STARTCHAR uni0916094D092F
ENCODING -1
SWIDTH 1047 0
DWIDTH 21 0
BBX 23 13 -1 0
BITMAP
3DDDDFEDDDDDDEFEDDDFED20
00000D200000005A000D2000
00000D200000000E000D2000
00000D207D80000E000D2000
00000D14C100006B000D2000
00004D086000DDB2000D2000
04EDC3095000E000000D2000
01D300086000E000000D2000
004C0004C105F200000E2000
000980007DD96A10019F2000
0001D300000006DDDD6D2000
00005C0000000000000D2000
0000095000000000000B1000
ENDCHAR
STARTCHAR uni0916094D0935
ENCODING -1
SWIDTH 975 0
DWIDTH 20 0
BBX 21 13 -1 0
BITMAP
3DDDDFEDDDDDDDDDDEFDA0
00000D200000000004A000
00000D200000000004A000
00000D206D8019DD24A000
00000D13C100890004A000
00004D087000C20004A000
04EDC3095000E10004A000
01D300095000E10004A000
004C00087000E20005A000
00098003D206F9102CA000
0001D3006DD93BEDC8A000
00005C000000000004A000
0000095000000000038000
ENDCHAR
STARTCHAR uni0916094D0936
ENCODING -1
SWIDTH 1123 0
DWIDTH 22 0
BBX 24 13 -1 0
BITMAP
3DDDDFEDDDD107DDB2004FD9
00000D2000003D106A005900
00000D2000005A001D005900
00000D207D8024001D005900
00000D14C10000002C005900
00004D086000000089005900
04EDC3095009EDDD91005900
01D300086004C00000005900
004C0004C106F70000005900
000980007DDA3E2000005900
0001D300000006B000005900
00005C00000000C600005900
000009500000002B00004800
ENDCHAR
STARTCHAR uni0917094D0917
ENCODING -1
SWIDTH 744 0
DWIDTH 15 0
BBX 17 13 -1 0
BITMAP
3DDEFDDDEFDDDFED10
0005A0005A000E1000
0005A0005A000E1000
0005A0005A000E1000
0005A0005A000E1000
0006900069000E1000
001B6001B6000E1000
08D8008D80000E1000
0000000000000E1000
0000000000000E1000
0000000000000E1000
0000000000000E1000
0000000000000B0000
ENDCHAR
STARTCHAR uni0917094D0918
ENCODING -1
SWIDTH 823 0
DWIDTH 16 0
BBX 18 13 -1 0
BITMAP
3DDEFDDDEFDDDDEFD9
0005A001D200005A00
0005A004B000005A00
0005A004B000005A00
0005A001D200005A00
000690006FEA005A00
001B6001D200005A00
08D80004B000005A00
00000004B000007A00
00000001E30002DA00
000000004CDDDC8A00
000000000000005A00
000000000000004800
ENDCHAR
STARTCHAR uni0917094D091C
ENCODING -1
SWIDTH 801 0
DWIDTH 16 0
BBX 18 13 -1 0
BITMAP
3DDEFDDDDDDDDDFED3
0005A000000000C300
0005A000000000C300
0005A000000000C300
0005A006DEEDDDF300
0006900001C400C300
001B6000006900C300
08D80000005A00C300
00000000005A00C300
00000000006800C300
0000000001C400C300
0000003DDD7000C300
00000000000000A200
ENDCHAR
STARTCHAR uni0917094D0923
ENCODING -1
SWIDTH 945 0
DWIDTH 19 0
BBX 21 13 -1 0
BITMAP
3DDEFDDEFDDDEFDDDFED20
0005A001D0004A000E1000
0005A001D0004A000E1000
0005A001D0004A000E1000
0005A001D0004A000E1000
00069001D0004A000E1000
001B6001D00059000E1000
08D80000C501B6000E1000
000000003BDD80000E1000
00000000000000000E1000
00000000000000000E1000
00000000000000000E1000
00000000000000000B1000
ENDCHAR
STARTCHAR uni0917094D0926
ENCODING -1
SWIDTH 748 0
DWIDTH 15 0
BBX 17 13 -1 0
BITMAP
3DDEFDDDDDDDDFED20
0005A00000000C2000
0005A00000000C2000
0005A0004CDDDE2000
0005A002D300000000
000690069000000000
001B60078000000000
08D800078000000000
000000069000076000
00000002D3001B7000
000000004CDDCA7000
000000000000077000
000000000000076000
ENDCHAR
STARTCHAR uni0917094D0927
ENCODING -1
SWIDTH 823 0
DWIDTH 16 0
BBX 18 13 -1 0
BITMAP
3DDEFDDDEFC04DEFD9
0005A001D200005A00
0005A003B000005A00
0005A004B000005A00
0005A001D300005A00
000690005FEA005A00
001B6001D300005A00
08D80003B000005A00
00000004B000005A00
00000003C000007A00
00000000D40002DA00
000000003BDDDC7A00
000000000000004800
ENDCHAR
STARTCHAR uni0917094D092C
ENCODING -1
SWIDTH 755 0
DWIDTH 15 0
BBX 17 13 -1 0
BITMAP
3DDEFDDDDDDDDFED50
0005A00000000A4000
0005A00000000A4000
0005A0004CDA0A4000
0005A002E7000A4000
0006900699600A4000
001B600780960A4000
08D8000780098A4000
0000000690009F4000
00000002D3006F4000
000000004CDDAB4000
0000000000000A4000
000000000000093000
ENDCHAR
STARTCHAR uni0917094D092D
ENCODING -1
SWIDTH 755 0
DWIDTH 15 0
BBX 17 13 -1 0
BITMAP
3DDEFDDB2009DFED40
0005A006A0000B4000
0005A002C0000B4000
0005A002D0000B4000
0005A002D0000B4000
00069002D0000B4000
001B6002FDDDDF4000
08D80002D0000B4000
00000001C0000B4000
0000000000000B4000
0000000000000B4000
0000000000000B4000
000000000000093000
ENDCHAR
STARTCHAR uni0917094D092E
ENCODING -1
SWIDTH 754 0
DWIDTH 15 0
BBX 17 13 -1 0
BITMAP
3DDEFDDEFDDDDFED40
0005A002C0000B4000
0005A002C0000B4000
0005A002C0000B4000
0005A002C0000B4000
00069002C0000B4000
001B6002FDDDDF4000
08D80002C0000B4000
00000002B0000B4000
0000000000000B4000
0000000000000B4000
0000000000000B4000
000000000000093000
ENDCHAR
STARTCHAR uni0917094D092F
ENCODING -1
SWIDTH 828 0
DWIDTH 17 0
BBX 18 13 -1 0
BITMAP
3DDEFDDDDFFDDDEFDA
0005A00000B4004B00
0005A0000068004B00
0005A0000068004B00
0005A00001B5004B00
00069005ED80004B00
001B60059000004B00
08D800059000004B00
00000004B000006B00
00000000D50003DB00
000000002ADDDB6B00
000000000000004B00
000000000000003900
ENDCHAR
STARTCHAR uni0917094D0932
ENCODING -1
SWIDTH 924 0
DWIDTH 18 0
BBX 20 13 -1 0
BITMAP
3DDEFDDDDDDDDDDDEFD9
0005A000000000005A00
0005A000000000005A00
0005A000000000005A00
0005A0007DDA2ADC8A00
00069005B105E601BA00
001B60096000F0005A00
08D800095000E0005A00
00000009500040005A00
00000009600000005A00
00000005C10000005A00
000000007DD600005A00
00000000000000004800
ENDCHAR
STARTCHAR uni0917094D0935
ENCODING -1
SWIDTH 747 0
DWIDTH 15 0
BBX 17 13 -1 0
BITMAP
3DDEFDDDDDDDDFED20
0005A00000000C2000
0005A00000000C2000
0005A0004CD90C2000
0005A002D3000C2000
0006900690000C2000
001B600780000C2000
08D8000780000C2000
0000000690000D2000
00000002D3006F2000
000000004CDD9C2000
0000000000000C2000
0000000000000A1000
ENDCHAR
STARTCHAR uni0917094D0938
ENCODING -1
SWIDTH 839 0
DWIDTH 17 0
BBX 19 13 -1 0
BITMAP
3DDEFDDDDEFEDDEFED10
0005A00000F0000E0000
0005A00000F0000E0000
0005A00000F0000E0000
0005A00001E0000E0000
0006900007A0000E0000
001B600EEEEDDDEE0000
08D8000A7000000E0000
00000002D100000E0000
000000008800000E0000
000000001D20000E0000
0000000006A0000E0000
0000000000B2000C0000
ENDCHAR
STARTCHAR uni0918094D092E
ENCODING -1
SWIDTH 818 0
DWIDTH 16 0
BBX 18 13 -1 0
BITMAP
3DDFEDDDDFEDDDEED8
004A00000D10007800
008600000D10007800
008700000D10007800
005C10000D10007800
000AFD600D20007800
004B10000DEDDDE800
008600000D10007800
008700000E10007800
005C10005D00007800
0007DDDDB300007800
000000000000007800
000000000000005700
ENDCHAR
STARTCHAR uni0918094D092F
ENCODING -1
SWIDTH 867 0
DWIDTH 17 0
BBX 19 13 -1 0
BITMAP
3DDFEDDDDDFEDDDEED70
004B0000001C10078000
00860000000950078000
00870000000A50078000
006C1000002D20078000
000AFD608EC500078000
004B1000960000078000
00860000960000078000
00870000770000098000
005C10004E30005E8000
0007DDDDA3ADDDA88000
00000000000000078000
00000000000000066000
ENDCHAR
STARTCHAR uni091A094D091A
ENCODING -1
SWIDTH 868 0
DWIDTH 17 0
BBX 19 13 -1 0
BITMAP
3DDDDDDDDDDDDDDEED80
00000000000000078000
00000000000000078000
00000000000000078000
07DDEE80BDEED6078000
0007900005B100078000
000C20000B4000078000
000D10000C2000078000
000C20000B4000088000
0008A1004EB1003E8000
00008DDDB38DDDB98000
00000000000000078000
00000000000000066000
ENDCHAR
STARTCHAR uni091A094D091B
ENCODING -1
SWIDTH 922 0
DWIDTH 18 0
BBX 20 12 -1 1
BITMAP
3DDDDDDDDDFEDDDDEED9
0000000005A000008700
00000000095000008700
000000000A5000008600
07DDEED50950007DE500
0007900006B100005C00
000C200000BFD0000E00
000D100006A100000E00
000C20000A5000000E00
0008A1003D5000000E00
00008DDDBAA100008900
00000000019DDDDD9100
ENDCHAR
STARTCHAR uni091A094D092E
ENCODING -1
SWIDTH 830 0
DWIDTH 17 0
BBX 18 13 -1 0
BITMAP
3DDDDDDDDFEDDDEFDB
000000000950003C00
000000000950003C00
000000000950003C00
07DDEED50950003C00
0006900009EDDDEC00
000C20000950003C00
000D10000950003C00
000C20000B30003C00
0007A1004C00003C00
00008DDDB200003C00
000000000000003C00
000000000000002A00
ENDCHAR
STARTCHAR uni091A094D092F
ENCODING -1
SWIDTH 904 0
DWIDTH 18 0
BBX 20 13 -1 0
BITMAP
3DDDDDDDDDEFEDDDFED4
000000000004B000B400
000000000000D100B400
000000000000E100B400
07DDEED50004C000B400
000790000CEB3000B400
000C20000D200000B400
000D10000D200000B400
000C20000B400000D400
0008A1004DC20018F400
00008DDDB27DDDD9B400
0000000000000000B400
00000000000000009300
ENDCHAR
STARTCHAR uni091B094D092F
ENCODING -1
SWIDTH 1068 0
DWIDTH 21 0
BBX 23 13 -1 0
BITMAP
3DDFFDDDDDDDDDDDDDDEED80
003C10000000000000078000
007800000000000000078000
00780004EEEDDDDB30078000
0078000003E00004C0078000
003D200000C20000E0078000
0009FD2000C20005C0078000
004C100000C20DDB30078000
0078000000C20D1000098000
0078000000D10991004E8000
004C100005C0018DDDA88000
0007DDDDDB20000000078000
000000000000000000066000
ENDCHAR
STARTCHAR uni091B094D0935
ENCODING -1
SWIDTH 581 0
DWIDTH 12 0
BBX 13 15 -1 -2
BITMAP
3DDFFDDDDEFDB0
003C1000068000
00780000068000
00780004DE7000
003C100003D000
0009FD2000C200
003D200000C200
0078000000C200
0078000000D100
003D200006B000
0008FEDDDD8000
000A5000068000
000D1000067000
000B70002C3000
0002ADDDC50000
ENDCHAR
STARTCHAR uni091C094D0915
ENCODING -1
SWIDTH 1054 0
DWIDTH 21 0
BBX 23 13 -1 0
BITMAP
3DDDDDDDDDDDDDFEDDDDDD40
00000000000000A400000000
00000000000000A400000000
0000000003BDB0A8DDD80000
007DEEDDEF5000AC101A8000
00002C303D0000A50002C000
000007803C0000A40001D000
000006803C0000A40001D000
000006802D0000B40002C000
000007700C5004F4001A8000
00002D3002ADD9A42DD80000
05DDD600000000A400000000
000000000000008300000000
ENDCHAR
STARTCHAR uni091C094D091C
ENCODING -1
SWIDTH 903 0
DWIDTH 18 0
BBX 20 13 -1 0
BITMAP
3DDDDDDDDDDDDDDDFED4
0000000000000000B300
0000000000000000B300
0000000000000000B300
007DEEDD90CEEDDDF300
00001C300001B400B300
0000078000005A00B300
0000069000004B00B300
0000069000004B00B300
0000077000005900B300
00002D300001C500B300
05DDD6006DDD8000B300
00000000000000009200
ENDCHAR
STARTCHAR uni091C094D091D
ENCODING -1
SWIDTH 990 0
DWIDTH 20 0
BBX 22 14 -1 -1
BITMAP
3DDDDDDDDDDDDEFDDEFED1
000000000000068000E000
000000000000068000E000
0000000006DDDE7000E000
007DEEDDDF30000000E000
00002C300E00000000E000
000007800C40000000E000
0000068003BDDEEDDEE000
00000680000002D100E000
000007702C0000C200E000
00002D302F3002E100E000
05DDD6002EDDDC5000E000
000000002C00000000E000
000000002C000000002000
ENDCHAR
STARTCHAR uni091C094D091F
ENCODING -1
SWIDTH 815 0
DWIDTH 16 0
BBX 18 12 -1 1
BITMAP
3DDDDDDDDDDDDDFED7
00000000000000C300
00000000000000C300
00000000000000C300
009DEEDDD5ADDDE200
00002D202F70000000
000009601E00000000
000008701E00000000
000008701E00000730
000009500E00000A40
00002D200A70004D10
06DDC50001ADDDB300
ENDCHAR
STARTCHAR uni091C094D0921
ENCODING -1
SWIDTH 797 0
DWIDTH 16 0
BBX 18 13 -1 0
BITMAP
3DDDDDDDDDDDDDFED2
00000000000000D100
00000000000000D100
0000000002BDDDE100
009DEEDDDE30000000
00002D201D00000000
000009600E30000000
0000087004CDDDA100
000008700000009800
000009500000005A00
00002D201800005A00
06DDC5001E10009700
0000000006DDDDA100
ENDCHAR
STARTCHAR uni091C094D0924
ENCODING -1
SWIDTH 830 0
DWIDTH 17 0
BBX 18 13 -1 0
BITMAP
3DDDDDDDDDDDDDEFDB
000000000000003B00
000000000000003B00
000000000000003B00
009DEEDDEAADDDEB00
00002D200D70003B00
000009600E00003B00
000008700E00003B00
000008700E00003B00
000009500E00003B00
00002D200E00003B00
06DDC5000A80003B00
0000000001AD503A00
ENDCHAR
STARTCHAR uni091C094D0926
ENCODING -1
SWIDTH 817 0
DWIDTH 16 0
BBX 18 13 -1 0
BITMAP
3DDDDDDDDDDDDDEED7
000000000000006800
000000000000006800
0000000001ADDDE700
007DEEDDDF70000000
00002C300E00000000
000007801D00000000
000006801D00000000
000006800E00001C00
000007700B70006D00
00002D3001ADDDCD00
05DDD6000000001D00
000000000000001C00
ENDCHAR
STARTCHAR uni091C094D092C
ENCODING -1
SWIDTH 820 0
DWIDTH 16 0
BBX 18 13 -1 0
BITMAP
3DDDDDDDDDDDDDEFD8
000000000000006800
000000000000006800
0000000004CDD16800
007DEEDDDEB1006800
00002C302C4A006800
000007802C05A06800
000006802C005A6800
000006801D0006D800
000007700C6003E800
00002D3002ADDC8800
05DDD6000000006800
000000000000005700
ENDCHAR
STARTCHAR uni091C094D092E
ENCODING -1
SWIDTH 813 0
DWIDTH 16 0
BBX 18 13 -1 0
BITMAP
3DDDDDDDEFEDDDEED6
000000000E00008600
000000000E00008600
000000000E00008600
007DEEDDDF00008600
00002C300E00008600
000007800EEDDDF600
000006800E00008600
000006800E00008600
000007700900008600
00002D300000008600
05DDD6000000008600
000000000000007500
ENDCHAR
STARTCHAR uni091C094D092F
ENCODING -1
SWIDTH 893 0
DWIDTH 18 0
BBX 20 13 -1 0
BITMAP
3DDDDDDDDDEFEDDDFED1
0000000000078000E100
000000000001D000E100
000000000002D000E100
009DEEDDD607A000E100
00002C202FDA2000E100
000009601E000000E100
000008701E000000E100
000008700E100001F100
000009600891001AF100
00002D20007CDDD6E100
06DDC50000000000E100
0000000000000000B000
ENDCHAR
STARTCHAR uni091C094D0935
ENCODING -1
SWIDTH 813 0
DWIDTH 16 0
BBX 18 13 -1 0
BITMAP
3DDDDDDDDDDDDDEED6
000000000000008600
000000000000008600
0000000003BDD08600
007DEEDDDF60008600
00002C302D00008600
000007802C00008600
000006802C00008600
000006801D00009600
000007700C6003E600
00002D3002ADDB9600
05DDD6000000008600
000000000000006500
ENDCHAR
STARTCHAR uni091D094D092E
ENCODING -1
SWIDTH 936 0
DWIDTH 19 0
BBX 20 14 -1 -1
BITMAP
3DDDDDEFEDDEEDDDEFDD
0000000E000870001D00
0000000E000870001D00
0009DDDD000870001D00
006A0000000870001D00
00870000000870001D00
006B10000008EDDDED00
0009DDEEEDDE70001D00
00000009700870001D00
00940005900440001D00
00A90009700000001D00
00A9DDDA100000001D00
00A40000000000001D00
00940000000000000100
ENDCHAR
STARTCHAR uni091D094D092F
ENCODING -1
SWIDTH 1000 0
DWIDTH 20 0
BBX 22 14 -1 -1
BITMAP
3DDDDDEFEDDDEFEDDDFED3
0000000E000004A000C300
0000000E000000E000C300
0009DDDD000000E000C300
006A0000000005C000C300
00870000000DDB2000C300
006B1000000E100000C300
0009DDEEEDDF100000C300
00000009700C300000E300
009400059007B20019F300
00A9000970007CDDD8C300
00A9DDDA1000000000C300
00A400000000000000C300
0094000000000000001000
ENDCHAR
STARTCHAR uni091E094D091B
ENCODING -1
SWIDTH 913 0
DWIDTH 18 0
BBX 20 12 -1 1
BITMAP
3DDDDDDDDEFEDDDDFED6
0000000008800000B400
000000000C300000B400
00CDD9100D200000B400
00000A800C30009DF200
000003B0048000008900
000002FDDEFEA0002C00
000002B00B8000002C00
000003900D2000002C00
00001A500C2000003B00
02DDD70008800001A700
00000000019DDDDD8000
ENDCHAR
STARTCHAR uni091E094D091C
ENCODING -1
SWIDTH 932 0
DWIDTH 19 0
BBX 20 13 -1 0
BITMAP
3DDDDDDDDDDDDDDDEFDB
00000000000000002C00
00000000000000002C00
00000000000000002C00
00ADD91000BEEEDDEC00
0000088000004C002C00
000002B000000C302C00
000001FDD3000A402C00
000002B000000A402C00
0000097000000C302C00
01DDD90000004D002C00
0000000009DDC3002C00
00000000000000002A00
ENDCHAR
STARTCHAR uni091E094D0936
ENCODING -1
SWIDTH 975 0
DWIDTH 20 0
BBX 21 13 -1 0
BITMAP
3DDDDDDD206DDC3004FDA0
0000000002D105B004A000
0000000004A001E004A000
00ADDA10049001E004A000
00000990000001D004A000
000002C0000008A004A000
000001FDDEEDDA1004A000
000001C00790000004A000
000002B000C4000004A000
00000970003D000004A000
01DDD8000009700004A000
000000000001D20004A000
0000000000005900039000
ENDCHAR
STARTCHAR uni091F094D091F
ENCODING -1
SWIDTH 494 0
DWIDTH 10 0
BBX 12 19 -1 -6
BITMAP
3DDDDDDEFDD2
000000068000
000000068000
0007DDDE7000
006B10000000
00A400000000
00B300002500
00A400005A00
006B1001B500
0007DDDEA000
000000068000
000000068000
0007DDDE7000
006B10000000
00A400000000
00B300002500
00A400005900
006B1001B500
0007DDDC6000
ENDCHAR
STARTCHAR uni091F094D0920
ENCODING -1
SWIDTH 495 0
DWIDTH 10 0
BBX 12 19 -1 -6
BITMAP
3DDDDDDEFDD2
000000068000
000000068000
0007DDDE7000
006B10000000
00A400000000
00B300002500
00A400005900
006B1001B500
0007DDDED000
00000003C000
000000089000
0007DDEF7000
005C1001B500
009500004A00
00A400003B00
009500005A00
005C2001C500
0006CDDD7000
ENDCHAR
STARTCHAR uni091F094D092F
ENCODING -1
SWIDTH 990 0
DWIDTH 20 0
BBX 22 13 -1 0
BITMAP
3DDDDDDEFDDDDDDDDDFED1
000000069000000000E100
000000069000000000E100
000000069000000000E100
0007DDDEEDDDDD8000E100
005C1000000001B500E100
009500000000007700E100
00A40000000001B400E100
00A400001506ED7000E100
009500004A05900001F100
005C2001A702D3001AF100
0007CDDD80004BDDD6E100
000000000000000000C000
ENDCHAR
STARTCHAR uni091F094D0935
ENCODING -1
SWIDTH 501 0
DWIDTH 10 0
BBX 12 15 -1 -2
BITMAP
3DDDDDDEFDD3
00000004B000
00000004B000
0006CDDE9000
003D20000000
008600000000
00A500000500
00A400001D00
009600003C00
004D2001A800
000AFDDDD700
004C10007700
006800008600
004C1002D200
0007DDDC5000
ENDCHAR
STARTCHAR uni0920094D092F
ENCODING -1
SWIDTH 998 0
DWIDTH 20 0
BBX 22 13 -1 0
BITMAP
3DDDDDDEFDDDDDDDDDFED3
00000003C000000000C200
00000003B000000000C200
000000078000000000C200
0007DDEF52CDDD9000C200
005C1001BD3000A600C200
009500004C00006800C200
00A400003B0001A600C200
00A400003B04ED8000C200
009500004A04A00000E200
005C2001B601D40019F200
0007DDDD70003BDDD7C200
000000000000000000A100
ENDCHAR
STARTCHAR uni0921094D0921
ENCODING -1
SWIDTH 493 0
DWIDTH 10 0
BBX 12 19 -1 -6
BITMAP
3DDDDDDEFDD1
00000003B000
00000003B000
001ADDDE9000
006900000000
006A00000000
001ADDDD6000
00000001D200
005300009500
008600009500
006B0002D200
001EFDDD6000
006A00000000
006A00000000
001ADDDD7000
00000001C300
008500009500
00690001C300
0019DDDD7000
ENDCHAR
STARTCHAR uni0921094D0922
ENCODING -1
SWIDTH 493 0
DWIDTH 10 0
BBX 12 18 -1 -5
BITMAP
3DDDDDDEFDD1
00000003B000
00000003B000
0008DDDE9000
005B00000000
007700000000
005B10000000
0009DDDD7000
00000001C300
008500009500
00790001D300
001DFDDD7000
004C20000000
0086008DC300
009502C05A00
008602702B00
004C10007800
0007DDDDB100
ENDCHAR
STARTCHAR uni0921094D092F
ENCODING -1
SWIDTH 973 0
DWIDTH 19 0
BBX 21 13 -1 0
BITMAP
3DDDDDDEFDDDDDDDDEFD90
00000004A0000000059000
00000004A0000000059000
0009DDDEEDDDDC40059000
005B0000000003D0059000
00770000000000D1059000
005B1000000004D0059000
0008DDDD600CDB30059000
00000002E20C2000059000
00000000B40A4000089000
00640000B405C2004E9000
00790002E1006CDDB79000
001ADDDC50000000048000
ENDCHAR
STARTCHAR uni0921094D0935
ENCODING -1
SWIDTH 493 0
DWIDTH 10 0
BBX 12 16 -1 -3
BITMAP
3DDDDDDEFDD1
00000003B000
00000003B000
001ADDDE9000
006900000000
006A00000000
001ADDDD7000
00000001D300
005300009500
008600009600
005B0002D600
000CFDDCC600
002C10008600
005900009400
002D2003C100
0006CDDB3000
ENDCHAR
STARTCHAR uni0922094D092F
ENCODING -1
SWIDTH 981 0
DWIDTH 20 0
BBX 21 13 -1 0
BITMAP
3DDDDDDEFDDDDDDDDEFDB0
00000004B000000003C000
00000004B000000003C000
00000004B000000003C000
0006DDDEEDDDDC5003C000
005C1000000002D103C000
00960000000000B303C000
0095008DC30002D103C000
009502C05A0AEC5003C000
009503903B09500005C000
004C10008805C2003DC000
0006CDDDA1006CDDC6C000
000000000000000002A000
ENDCHAR
STARTCHAR uni0923094D091F
ENCODING -1
SWIDTH 908 0
DWIDTH 18 0
BBX 20 12 -1 1
BITMAP
3DEFDDDFEDDDDDDDFED5
0059000860000000E100
0059000860000000E100
0059000860000000E100
005900086002BDDDD000
00590008600D50000000
00590009502C00000000
002D202D203C00000200
0005CDC5003C00000C20
00000000002C00000D10
00000000000D50006C00
000000000002BDDDA200
ENDCHAR
STARTCHAR uni0923094D0920
ENCODING -1
SWIDTH 936 0
DWIDTH 19 0
BBX 20 12 -1 1
BITMAP
3DEFDDDFEDDDDDDDFEDD
0059000860000000A500
0059000860000000A400
0059000860000001D200
005900086002BDDEC200
00590008600D50005D00
00590009502C00000C30
002D202D203C00000B30
0005CDC5003C00000B30
00000000002C00000C20
00000000000D50005D00
000000000002BDDDB300
ENDCHAR
STARTCHAR uni0923094D0921
ENCODING -1
SWIDTH 892 0
DWIDTH 18 0
BBX 20 13 -1 0
BITMAP
3DEFDDDFEDDDDDDEFED1
0059000860000000E000
0059000860000000E000
005900086005CDDDD000
00590008601E20000000
00590008603C00000000
00590009501E20000000
002D202D2005CDDD9000
0005CDC500000000A600
00000000001200006900
00000000004A00006800
00000000001D1001B600
000000000006DDDD9000
ENDCHAR
STARTCHAR uni0923094D0922
ENCODING -1
SWIDTH 908 0
DWIDTH 18 0
BBX 20 12 -1 1
BITMAP
3DEFDDDFEDDDDDDDFED5
0059000860000000C200
0059000860000000C200
0059000860000000C200
005900086002BDDDE200
00590008600C50000000
00590009501D00000000
002D202D202C004DD800
0005CDC5002C00B30D20
00000000001D00400B30
00000000000C50002D10
000000000002ADDDC400
ENDCHAR
STARTCHAR uni0923094D0923
ENCODING -1
SWIDTH 1127 0
DWIDTH 23 0
BBX 24 13 -1 0
BITMAP
3DEFDDDFEDDEEDDDFEDDEFDB
005900086007800095004B00
005900086007800095004B00
005900086007800095004B00
005900086007800095004B00
005900086007800095004B00
0059000950068000A4004B00
002D202D2003D203D1004B00
0005CDC500006CDC40004B00
000000000000000000004B00
000000000000000000004B00
000000000000000000004B00
000000000000000000003900
ENDCHAR
STARTCHAR uni0923094D092E
ENCODING -1
SWIDTH 932 0
DWIDTH 19 0
BBX 20 13 -1 0
BITMAP
3DEFDDDFEDDFEDDDEFDB
00590008600960002C00
00590008600960002C00
00590008600960002C00
00590008600960002C00
00590008600960002C00
005900095009EDDDEC00
002D202D200960002C00
0005CDC5000850002C00
00000000000000002C00
00000000000000002C00
00000000000000002C00
00000000000000002A00
ENDCHAR
STARTCHAR uni0923094D092F
ENCODING -1
SWIDTH 998 0
DWIDTH 20 0
BBX 22 13 -1 0
BITMAP
3DEFDDDFEDDDEFEDDDFED2
00590008600005A000D200
00590008600000E000D200
00590008600000E000D200
00590008600006B000D200
00590008600DDB2000D200
00590009500E000000D200
002D202D200E000000D200
0005CDC5000D200000E200
000000000007A10019E200
0000000000007CDDD6D200
000000000000000000D200
000000000000000000B100
ENDCHAR
STARTCHAR uni0923094D0935
ENCODING -1
SWIDTH 923 0
DWIDTH 18 0
BBX 20 13 -1 0
BITMAP
3DEFDDDFEDDDDDDDEFD9
00590008600000005900
00590008600000005900
0059000860019DD25900
00590008600990005900
00590008600D10005900
00590009500E00005900
002D202D200E00005900
0005CDC5000D10006900
0000000000098002C900
0000000000019DDC8900
00000000000000005900
00000000000000004800
ENDCHAR
STARTCHAR uni0924094D0915
ENCODING -1
SWIDTH 992 0
DWIDTH 20 0
BBX 22 13 -1 0
BITMAP
3DDDDDDDDDDDDFEDDDDDD1
0000000000000D10000000
0000000000000D10000000
000000005CD80D7DDD6000
0008DDDEE3000D9002C400
006B100690000D20006800
0095000780000D10005900
00A4000780000D10005900
00A4000590000E10006800
00A40002D3007F1002C400
009500004CDD7D15DC6000
005C100000000D10000000
0007D90000000C10000000
ENDCHAR
STARTCHAR uni0924094D0916
ENCODING -1
SWIDTH 1014 0
DWIDTH 20 0
BBX 22 13 -1 0
BITMAP
3DDDDDDDDDDEEDDDDDEED7
0000000000077000008700
0000000000077000008700
000000000007703CD08700
0008DDDC300870D4008700
006B1004B01C43C0008700
00A50000EED704B0008700
00B40000980003C0009700
00B400001D3000D403E700
00B4000004C0003BDA9700
00A5000000A70000008700
006B1000001D2000008700
0008D9000005A000007600
ENDCHAR
STARTCHAR uni0924094D0924
ENCODING -1
SWIDTH 542 0
DWIDTH 11 0
BBX 13 13 -1 0
BITMAP
3DDDDDDDEFED10
000000000E0000
000000000E0000
000000000E0000
04DDEEDDEF0000
0006A0000E0000
000B40000E0000
000C30000E0000
000C30000E0000
000B30000E0000
000A40000E0000
0006B1000E0000
00008D800D0000
ENDCHAR
STARTCHAR uni0924094D0925
ENCODING -1
SWIDTH 869 0
DWIDTH 17 0
BBX 19 13 -1 0
BITMAP
3DDDDDA01BDD4005FD80
000000009702D0068000
00000000B300D1068000
000000002000D1068000
000000000005C0068000
0008DDDEEDDB30068000
006B1004B00000068000
00A50004B00000068000
00B40002D00000098000
00B40000B700004E8000
00A5000019DDDDA88000
006B1000000000068000
0008D900000000067000
ENDCHAR
STARTCHAR uni0924094D092A
ENCODING -1
SWIDTH 757 0
DWIDTH 15 0
BBX 17 13 -1 0
BITMAP
3DDDDDDEFDDDDFED50
00000005A0000A4000
00000004A0000A4000
00000004A0000A4000
0008DDDEA0000A4000
006B1004A0000A4000
00A40004B0000B4000
00B40001D4004F4000
00B400003BDD9A4000
00B4000000000A4000
00A4000000000A4000
006B100000000A4000
0008D8000000094000
ENDCHAR
STARTCHAR uni0924094D092B
ENCODING -1
SWIDTH 992 0
DWIDTH 20 0
BBX 22 13 -1 0
BITMAP
3DDDDDDEFDDDDFEDDDDDD1
00000004A0000E10000000
00000004A0000E10000000
00000004A0000E8DDC6000
0008DDDEA0000E9002D400
006B1004A0000E20006800
00A40003B0000E10005900
00B40001D4007F10005900
00B400003BDD8E10006800
00B4000000000E1002D400
00A4000000000E15DC6000
006B100000000E10000000
0008D80000000C10000000
ENDCHAR
STARTCHAR uni0924094D092E
ENCODING -1
SWIDTH 764 0
DWIDTH 15 0
BBX 17 13 -1 0
BITMAP
3DDDDDDEFEDDDEED70
00000000E000087000
00000000E000087000
00000000E000087000
0008DDDDF000087000
005B1000E000087000
00950000EEDDDF7000
00A40000E000087000
00A40000E000087000
00A400005000087000
009500000000087000
005C10000000087000
0007D9000000076000
ENDCHAR
STARTCHAR uni0924094D092F
ENCODING -1
SWIDTH 830 0
DWIDTH 17 0
BBX 18 13 -1 0
BITMAP
3DDDDDDDDEFDDDEFDB
0000000000A4003C00
000000000059003C00
000000000059003C00
0000000001A6003C00
0008DDDEED80003C00
006B1005A000003C00
00A50004A000003C00
00B40003C000005C00
00B40000B60003DC00
00A5000019DDDC6C00
006B10000000003C00
0008D9000000002B00
ENDCHAR
STARTCHAR uni0924094D0932
ENCODING -1
SWIDTH 957 0
DWIDTH 19 0
BBX 21 13 -1 0
BITMAP
3DDDDDDDDDDDDDDDDFED50
00000000000000000A4000
00000000000000000A4000
00000000000000000A4000
0008DDDB3ADD73CDAB4000
006B1005F701BD203E4000
00A50000F1005A000B4000
00B40000E0004A000A4000
00B40000E00036000A4000
00B40000E10000000A4000
00A50000A70000000A4000
006B10001ADD10000A4000
0008D90000000000094000
ENDCHAR
STARTCHAR uni0924094D0935
ENCODING -1
SWIDTH 751 0
DWIDTH 15 0
BBX 17 13 -1 0
BITMAP
3DDDDDDDDDDDDFED30
0000000000000C3000
0000000000000C3000
000000004CDA0C3000
0008DDDEE3000C3000
006B1006A0000C3000
0095000690000C3000
00A4000690000C3000
00A40005A0000D3000
00A40001D3006F3000
009500004BDD9C3000
005C100000000C3000
0007D90000000A2000
ENDCHAR
STARTCHAR uni0924094D0938
ENCODING -1
SWIDTH 876 0
DWIDTH 18 0
BBX 19 13 -1 0
BITMAP
3DDDDDDDDDEFDDDEFDA0
00000000004B0004B000
00000000004B0004B000
00000000004B0004B000
0008DDDA005A0004B000
006B100961A60004B000
00A50005FEEDDDDEB000
00B40001D3000004B000
00B400005B000004B000
00B400000C400004B000
00A5000004C00004B000
006B100000B60004B000
0008D900003C00049000
ENDCHAR
STARTCHAR uni0925094D092F
ENCODING -1
SWIDTH 931 0
DWIDTH 19 0
BBX 18 13 1 0
BITMAP
05DDA00BDEFDDDEFDB
1D10960000A4003C00
3B0059000059003C00
270068000059003C00
0001B50001B5003C00
BEDD8004ED80003C00
C3000005A000003C00
B3000005A000003C00
96000003B000005C00
3D30001CE60003CC00
05CDDDC62ADDDC6C00
000000000000003C00
000000000000002A00
ENDCHAR
STARTCHAR uni0925094D0935
ENCODING -1
SWIDTH 862 0
DWIDTH 17 0
BBX 17 13 1 0
BITMAP
06DDA00BDDDDDFED60
1D1096000000086000
3A0059000000086000
260068002ADC086000
0001B500C600086000
BEDD8001D000086000
C3000002C000086000
B3000002C000086000
96000002D000096000
3D30001BF6003E6000
05CDDDC63BEDBA6000
000000000000086000
000000000000075000
ENDCHAR
STARTCHAR uni0926094D0917
ENCODING -1
SWIDTH 489 0
DWIDTH 10 0
BBX 11 15 -1 -2
BITMAP
3DDDDDDEFED0
00000000F000
00000000F000
0006DDDDD000
004D20000000
008600000000
00A500000000
00A500009400
00860000A400
004C2003E400
0006DEDBB400
00007800A400
000077009400
0001C4000000
009D70000000
ENDCHAR
STARTCHAR uni0926094D0918
ENCODING -1
SWIDTH 686 0
DWIDTH 14 0
BBX 15 14 -1 -1
BITMAP
3DDDDDDDDDDEFDD0
000000000000E000
000000000000E000
00000005DDDEC000
0000003C10000000
003CDDE500000000
00C400A400000000
00E000A400000000
00C400A50000A300
004FE66C2002E300
00C40009EDDBC300
00E000058000B300
00C4001B5000A300
003BDDD800000000
ENDCHAR
STARTCHAR uni0926094D0926
ENCODING -1
SWIDTH 506 0
DWIDTH 10 0
BBX 12 14 -1 -1
BITMAP
3DDDDDDDFED4
00000000C300
00000000C300
0008DDDDE200
004B10000000
006800000000
004B10000000
000BFDD20000
004B10000000
007800004A00
005B10009A00
0008DDDD9A00
000000004A00
000000004A00
ENDCHAR
STARTCHAR uni0926094D0927
ENCODING -1
SWIDTH 686 0
DWIDTH 14 0
BBX 15 14 -1 -1
BITMAP
3DDDDDDDDDDEFDD0
000000000000E000
000000000000E000
00000007DDDEC000
0000005C10000000
003CD09500000000
00C400A400000000
00E000A400000000
00C400A50000A300
004FE65C2002E300
00C40008EDDBC300
00E000058000B300
00C4001B5000A300
003BDDD800000000
ENDCHAR
STARTCHAR uni0926094D092C
ENCODING -1
SWIDTH 481 0
DWIDTH 10 0
BBX 11 16 -1 -3
BITMAP
3DDDDDDEFEB0
00000000F000
00000000F000
0006DDDDD000
004C20000000
008600000000
00A500000000
00A500006200
00960000A400
005C2002E400
000BFDDBB400
003DB5009400
00681C509400
006801C5B300
003D201DD000
0006CDDB3000
ENDCHAR
STARTCHAR uni0926094D092D
ENCODING -1
SWIDTH 499 0
DWIDTH 10 0
BBX 12 17 -1 -4
BITMAP
3DDDDDDDFED3
00000000D100
00000000D100
0005CDDDE100
003D20000000
007800000000
008600007000
00780000D100
002D3004F100
0005CDDAD100
02D90000D100
000A6000D100
00068000D100
0006FDDDF100
00069000D100
00024000D100
000000004000
ENDCHAR
STARTCHAR uni0926094D092E
ENCODING -1
SWIDTH 706 0
DWIDTH 14 0
BBX 16 14 -1 -1
BITMAP
3DDDDDDEEDDDFED4
000000087000B400
000000087000B400
0019DDDE5000B400
009900000000B400
00D200000000B400
00D200059000B400
0099001A9000B400
0019DDC9A000B400
00000005FDDDF400
00000005A000B400
000000049000B400
000000000000B400
0000000000004100
ENDCHAR
STARTCHAR uni0926094D092F
ENCODING -1
SWIDTH 583 0
DWIDTH 12 0
BBX 13 13 -1 0
BITMAP
3DDDDEFEDEFDC0
000000E002C000
000000E002C000
0008DDD002C000
005B100002C000
0077000002C000
004B100002C000
000BFD4002C000
005A000002C000
0077000003C000
005B10001AC000
0008DDDDD8C000
0000000002A000
ENDCHAR
STARTCHAR uni0926094D0935
ENCODING -1
SWIDTH 483 0
DWIDTH 10 0
BBX 11 16 -1 -3
BITMAP
3DDDDDDEFEB0
00000000F000
00000000F000
0006DDDDD000
004C20000000
008600000000
00A500000000
00A500006200
00960000A400
005C2002E400
000AFEDBB400
002D2000A400
00690000A400
00590000B300
002D2004D000
0005CDDB3000
ENDCHAR
STARTCHAR uni0927094D092E
ENCODING -1
SWIDTH 817 0
DWIDTH 16 0
BBX 18 13 -1 0
BITMAP
3DDFEA00DFEDDDEFD8
004B00000D20006800
008600000D20006800
008700000D20006800
004C10000D20006800
000AFD600D20006800
005B10000DEDDDE800
008600000D20006800
008700000D20006800
005C10005E00006800
0007DDDDB300006800
000000000000006800
000000000000005700
ENDCHAR
STARTCHAR uni0927094D092F
ENCODING -1
SWIDTH 886 0
DWIDTH 18 0
BBX 19 13 -1 0
BITMAP
3DDFEA00DDEFDDDEFDD0
004B000000096001E000
008600000004A001E000
008700000004A001E000
006C100000097001E000
000AFD602ED91001E000
004B10003C000001E000
008600003C000001E000
008700001D000003E000
005C10002E81002BE000
0007DDDDB48DDDC6E000
0000000000000001E000
0000000000000001B000
ENDCHAR
STARTCHAR uni0927094D0935
ENCODING -1
SWIDTH 810 0
DWIDTH 16 0
BBX 18 13 -1 0
BITMAP
3DDFEA00DDDDDDFED6
004B00000000009500
008600000000009500
0087000002BDC09500
004C10000D50009500
000AFD602C00009500
005B10003C00009500
008600003C00009500
008700002C0000A500
005C10004F5004E500
0007DDDDA3ADDAA500
000000000000009500
000000000000007400
ENDCHAR
STARTCHAR uni0928094D0915
ENCODING -1
SWIDTH 973 0
DWIDTH 19 0
BBX 21 13 -1 0
BITMAP
3DDDDDDDDDDDEFDDDDDD90
0000000000004A00000000
0000000000004A00000000
000000009DD24BADDB2000
00000008A1004F4005D000
008DDDDF30004B0000C200
03D1000D20004A0000B300
03B0000D20004A0000B300
00A0000C30005A0000C200
00000007A101CA0005D000
000000008DDC7A0ADB2000
0000000000004A00000000
0000000000003800000000
ENDCHAR
STARTCHAR uni0928094D091A
ENCODING -1
SWIDTH 820 0
DWIDTH 16 0
BBX 18 13 -1 0
BITMAP
3DDDDDDDDDDDDDEFD8
000000000000006800
000000000000006800
000000000000006800
0000000CDEED706800
000000005B10006800
007DDDD3A400006800
02D10000B300006800
02C00000A400007800
00D000006B1002D800
0000000008DDDB8800
000000000000006800
000000000000005700
ENDCHAR
STARTCHAR uni0928094D091B
ENCODING -1
SWIDTH 781 0
DWIDTH 16 0
BBX 17 12 -1 1
BITMAP
3DDDDDDFFDDDDEFDC0
0000003C100005A000
00000068000005A000
000000780000059000
000000580004DE8000
006DDDDC200003E000
00E2001DFD2000C200
01D0006C100000C300
00D10078000000C300
00200068000000D200
0000003C100006D000
00000006CDDDDB2000
ENDCHAR
STARTCHAR uni0928094D091F
ENCODING -1
SWIDTH 715 0
DWIDTH 14 0
BBX 16 12 -1 1
BITMAP
3DDDDDDDDDDDFED7
000000000000C300
000000000000C300
000000000000C300
00000003BEDDE200
008DDDDF70000000
03D1001E00000000
03B0001E00000100
0090001E00000A40
0000000E00000B30
0000000A70004D10
00000001ADDDB300
ENDCHAR
STARTCHAR uni0928094D0921
ENCODING -1
SWIDTH 705 0
DWIDTH 14 0
BBX 16 13 -1 0
BITMAP
3DDDDDDDDDDDFED5
000000000000A400
000000000000A400
00000002BDDDE300
0000000B50000000
008DDDDF10000000
03D1000C50000000
03B00003BDDDB200
0090000000007A00
0000000200002D00
0000000E00002D00
0000000C40007A00
00000003CDDDB200
ENDCHAR
STARTCHAR uni0928094D0924
ENCODING -1
SWIDTH 717 0
DWIDTH 14 0
BBX 16 13 -1 0
BITMAP
3DDDDDDDDDDDEED7
0000000000007800
0000000000007800
0000000000007800
00000002BDDDE800
008DDDEE40007800
03D1003C00007800
03B0004B00007800
01B0004B00007800
0000004B00007800
0000003C00007800
0000000D40007800
00000003BD106700
ENDCHAR
STARTCHAR uni0928094D0925
ENCODING -1
SWIDTH 804 0
DWIDTH 16 0
BBX 18 13 -1 0
BITMAP
3DDDD504DDB200AED4
0000000D306A00B400
0000001E002C00B400
00000004003B00B400
00000000009800B400
008DDDEEDD9100B400
03D10096000000B400
04A00086000000B400
01D00069000000D400
0020001D400018F400
00000003BDDDD8B400
00000000000000B400
000000000000009300
ENDCHAR
STARTCHAR uni0928094D0926
ENCODING -1
SWIDTH 724 0
DWIDTH 14 0
BBX 16 13 -1 0
BITMAP
3DDDDDDDDDDDEFD9
0000000000004A00
0000000000004A00
000000019DDDE900
0000000890000000
008DDDDF10000000
02D1000E00000000
03B0000E00000000
01C0000D10000D00
0000000991004F00
000000019DDD9E00
0000000000000E00
0000000000000D00
ENDCHAR
STARTCHAR uni0928094D0927
ENCODING -1
SWIDTH 753 0
DWIDTH 15 0
BBX 17 13 -1 0
BITMAP
3DDDDDDFE609DFED40
0000006900000B4000
0000009500000B4000
0000009500000B4000
0000006A10000B4000
008DDDEFFD500B4000
02D1006B10000B4000
04B0009500000B4000
01D000A400000B4000
0020009500000D4000
0000005C10007F4000
00000007DDDD9B4000
000000000000093000
ENDCHAR
STARTCHAR uni0928094D092A
ENCODING -1
SWIDTH 742 0
DWIDTH 15 0
BBX 17 13 -1 0
BITMAP
3DDDDDDFEDDDEFED10
0000000960000E0000
0000000960000E0000
0000000960000E0000
0000000960000E0000
0000000960000E0000
008DDDDE60000F0000
01E10006C2008F0000
00C000008DDD7E0000
0000000000000E0000
0000000000000E0000
0000000000000E0000
0000000000000C0000
ENDCHAR
STARTCHAR uni0928094D092B
ENCODING -1
SWIDTH 970 0
DWIDTH 19 0
BBX 21 13 -1 0
BITMAP
3DDDDDDFEDDDEFDDDDDD80
0000000B30005900000000
0000000B30005900000000
0000000B30005ABDDB2000
0000000B30005E3006C000
008DDDDF30005A0000D100
03D1000A4000690000C200
03B00006B102C90000C200
009000007DDB890000D100
000000000000590006C000
000000000000590BDA2000
0000000000005900000000
0000000000004800000000
ENDCHAR
STARTCHAR uni0928094D092D
ENCODING -1
SWIDTH 739 0
DWIDTH 15 0
BBX 16 13 -1 0
BITMAP
3DDDDDD9001DEFED
0000000B50000E00
0000000770000E00
0000000780000E00
0000000780000E00
0000000780000E00
007DDDDEFDDDEE00
01E1000780000E00
00D0000780000E00
0040000220000E00
0000000000000E00
0000000000000E00
0000000000000C00
ENDCHAR
STARTCHAR uni0928094D092E
ENCODING -1
SWIDTH 735 0
DWIDTH 15 0
BBX 16 13 -1 0
BITMAP
3DDDDDDEEDDDEFDC
0000000870001D00
0000000870001D00
0000000870001D00
0000000870001D00
0000000870002D00
007DDDDEEDDDED00
01E1000870002D00
00D0000870001D00
0040000220001D00
0000000000001D00
0000000000001D00
0000000000001B00
ENDCHAR
STARTCHAR uni0928094D092F
ENCODING -1
SWIDTH 801 0
DWIDTH 16 0
BBX 18 13 -1 0
BITMAP
3DDDDDDDEFEDDDFED3
0000000004A000C300
0000000000E000C300
0000000000E000C300
0000000005C000C300
008DDDDEDB2000C300
03D1000E100000C300
03B0000E100000C300
0080000C300000E300
00000006B20019F300
000000006CDDD8C300
00000000000000C300
00000000000000A200
ENDCHAR
STARTCHAR uni0928094D0935
ENCODING -1
SWIDTH 732 0
DWIDTH 15 0
BBX 16 13 -1 0
BITMAP
3DDDDDDDDDDDEFDB
0000000000002C00
0000000000002C00
000000008DD42C00
00000007B1002C00
008DDDDF40002C00
03D1000C30002C00
03B0000C30002C00
00A0000B40003C00
00000006B101AC00
000000007DDD7C00
0000000000002C00
0000000000001A00
ENDCHAR
STARTCHAR uni0928094D0938
ENCODING -1
SWIDTH 867 0
DWIDTH 17 0
BBX 19 13 -1 0
BITMAP
3DDDDDDDDDEEDDDEED70
00000000007800078000
00000000007800078000
00000000007800078000
00000000007700078000
009DDDDB11C300078000
03D10009EEEDDDDE8000
02C00002D10000078000
00500000880000078000
000000001D2000078000
0000000006A000078000
0000000000D300078000
00000000004900066000
ENDCHAR
STARTCHAR uni0928094D0939
ENCODING -1
SWIDTH 714 0
DWIDTH 14 0
BBX 16 14 -1 -1
BITMAP
3DDDDDDDDDDDEED7
0000000000007800
0000000000007800
00000001ADDDE600
0000000980000000
006DDDDF40000000
01E2000880000000
00D00001DFDDB100
00910007A1008900
0000000C30002C00
0000000D10001700
0000000B30000000
00000007A1000000
000000007DDDD700
ENDCHAR
STARTCHAR uni092A094D091F
ENCODING -1
SWIDTH 489 0
DWIDTH 10 0
BBX 11 13 -1 0
BITMAP
3DEEDDDDFED0
00780000A400
00780000A400
00780000A400
00690000A400
002D2000A400
000AFEDDD100
006B10000000
009500000000
00A400003900
009500004A00
004C2001B500
0006CDDD7000
ENDCHAR
STARTCHAR uni092A094D0920
ENCODING -1
SWIDTH 506 0
DWIDTH 10 0
BBX 12 13 -1 0
BITMAP
3DEEDDDDEED5
007800007800
007800007800
007800007800
006900008700
002D2002D300
000AFDDFC000
005B1001B600
009600005A00
009500004A00
008600005900
004C2001B500
0006CDDD7000
ENDCHAR
STARTCHAR uni092A094D0924
ENCODING -1
SWIDTH 495 0
DWIDTH 10 0
BBX 12 13 -1 0
BITMAP
3DEEDDDDFED2
00860000E100
00860000E100
00860000E100
00770000E100
003D2000E100
000BFEDDF100
007A1000E100
00A50000E100
00B40000E100
00A50000E100
006B1000E100
0008D900C100
ENDCHAR
STARTCHAR uni092A094D092A
ENCODING -1
SWIDTH 770 0
DWIDTH 15 0
BBX 17 13 -1 0
BITMAP
3DEFDDDEFEDDDEFD80
00590000E000069000
00590000E000069000
00590000E000069000
00590000E000069000
00590000E000069000
005A0000E000079000
001D3005F7002D9000
0004CDDA2ADDB89000
000000000000069000
000000000000069000
000000000000069000
000000000000057000
ENDCHAR
STARTCHAR uni092A094D092B
ENCODING -1
SWIDTH 1003 0
DWIDTH 20 0
BBX 22 13 -1 0
BITMAP
3DEFDDDEFDDDDFEDDDDDD4
00590001D0000A40000000
00590001D0000A40000000
00590001D0000A8DDD8000
00590001D0000AB101A700
00590001D0000A50003B00
005A0000E0000B40002C00
001D3005F6004F40002C00
0004CDDA29DDAB40003B00
0000000000000A4001A700
0000000000000A42DD8000
0000000000000A40000000
0000000000000930000000
ENDCHAR
STARTCHAR uni092A094D092E
ENCODING -1
SWIDTH 774 0
DWIDTH 15 0
BBX 17 13 -1 0
BITMAP
3DEFDDDDFEDDDEFD90
00590000B30005A000
00590000B30005A000
00590000B30005A000
00590000B30005A000
00590000B30005A000
004A0000BEDDDEA000
001D3007F30005A000
0003BDDAC30005A000
00000000620005A000
00000000000005A000
00000000000005A000
000000000000048000
ENDCHAR
STARTCHAR uni092A094D092F
ENCODING -1
SWIDTH 855 0
DWIDTH 17 0
BBX 19 13 -1 0
BITMAP
3DEFDDDDDEFEDDDFED40
00590000003C000B4000
00590000000D100B4000
00590000000D100B4000
00590000004D000B4000
00590000BEC3000B4000
005A0000C200000B4000
001D3004E200000B4000
0004CDDAA400000D4000
000000003B20018E4000
0000000004CDDD8B4000
000000000000000B4000
00000000000000093000
ENDCHAR
ENDFONT
